<mxfile host="app.diagrams.net" modified="2023-05-22T02:01:36.787Z" agent="Mozilla/5.0 (Windows NT 10.0; Win64; x64) AppleWebKit/537.36 (KHTML, like Gecko) Chrome/113.0.0.0 Safari/537.36 Edg/113.0.1774.35" etag="JwWmDINkQYNhIwdOt5uw" version="21.3.2" type="github">
  <diagram id="hmJf-n0jonPnj5yPlmyh" name="Page-2">
    <mxGraphModel dx="2490" dy="1433" grid="1" gridSize="10" guides="1" tooltips="1" connect="1" arrows="1" fold="1" page="1" pageScale="1" pageWidth="1169" pageHeight="1654" background="#FFFFFF" math="0" shadow="0">
      <root>
        <mxCell id="IuaTcRtPijXqOsnX0eB4-0" />
        <mxCell id="IuaTcRtPijXqOsnX0eB4-1" parent="IuaTcRtPijXqOsnX0eB4-0" />
        <mxCell id="IuaTcRtPijXqOsnX0eB4-4" style="edgeStyle=orthogonalEdgeStyle;rounded=0;orthogonalLoop=1;jettySize=auto;html=1;exitX=0;exitY=0.5;exitDx=0;exitDy=0;entryX=1;entryY=0.5;entryDx=0;entryDy=0;startArrow=none;" parent="IuaTcRtPijXqOsnX0eB4-1" source="IuaTcRtPijXqOsnX0eB4-72" target="IuaTcRtPijXqOsnX0eB4-6" edge="1">
          <mxGeometry relative="1" as="geometry">
            <mxPoint x="675" y="910" as="targetPoint" />
            <mxPoint x="730" y="825" as="sourcePoint" />
            <Array as="points">
              <mxPoint x="190" y="690" />
              <mxPoint x="190" y="690" />
            </Array>
          </mxGeometry>
        </mxCell>
        <mxCell id="IuaTcRtPijXqOsnX0eB4-74" value="is a" style="edgeLabel;html=1;align=center;verticalAlign=middle;resizable=0;points=[];" parent="IuaTcRtPijXqOsnX0eB4-4" vertex="1" connectable="0">
          <mxGeometry x="0.2718" y="5" relative="1" as="geometry">
            <mxPoint x="14" y="-5" as="offset" />
          </mxGeometry>
        </mxCell>
        <mxCell id="IuaTcRtPijXqOsnX0eB4-6" value="Complex vector space" style="ellipse;whiteSpace=wrap;html=1;strokeColor=#000000;" parent="IuaTcRtPijXqOsnX0eB4-1" vertex="1">
          <mxGeometry x="10" y="650" width="120" height="80" as="geometry" />
        </mxCell>
        <mxCell id="IuaTcRtPijXqOsnX0eB4-75" style="edgeStyle=orthogonalEdgeStyle;rounded=0;orthogonalLoop=1;jettySize=auto;html=1;exitX=0.5;exitY=0;exitDx=0;exitDy=0;entryX=0.5;entryY=1;entryDx=0;entryDy=0;" parent="IuaTcRtPijXqOsnX0eB4-1" source="IuaTcRtPijXqOsnX0eB4-8" target="IuaTcRtPijXqOsnX0eB4-72" edge="1">
          <mxGeometry relative="1" as="geometry" />
        </mxCell>
        <mxCell id="aK0aah2MI1z-rDvGibRR-91" style="edgeStyle=orthogonalEdgeStyle;rounded=0;orthogonalLoop=1;jettySize=auto;html=1;exitX=1;exitY=0.5;exitDx=0;exitDy=0;dashed=1;endArrow=none;endFill=0;" parent="IuaTcRtPijXqOsnX0eB4-1" source="IuaTcRtPijXqOsnX0eB4-8" target="IuaTcRtPijXqOsnX0eB4-64" edge="1">
          <mxGeometry relative="1" as="geometry" />
        </mxCell>
        <mxCell id="IuaTcRtPijXqOsnX0eB4-8" value="operator" style="ellipse;whiteSpace=wrap;html=1;sketch=0;strokeWidth=1;fillColor=#dae8fc;strokeColor=#6c8ebf;" parent="IuaTcRtPijXqOsnX0eB4-1" vertex="1">
          <mxGeometry x="230" y="1175" width="120" height="80" as="geometry" />
        </mxCell>
        <mxCell id="vuEfzPaLM79mjF0In50A-17" style="edgeStyle=orthogonalEdgeStyle;rounded=0;orthogonalLoop=1;jettySize=auto;html=1;exitX=1;exitY=0.5;exitDx=0;exitDy=0;entryX=0;entryY=0.5;entryDx=0;entryDy=0;endArrow=none;endFill=0;startArrow=classic;startFill=1;" parent="IuaTcRtPijXqOsnX0eB4-1" source="IuaTcRtPijXqOsnX0eB4-10" target="vuEfzPaLM79mjF0In50A-16" edge="1">
          <mxGeometry relative="1" as="geometry" />
        </mxCell>
        <mxCell id="IuaTcRtPijXqOsnX0eB4-10" value="normal operator" style="ellipse;whiteSpace=wrap;html=1;fillColor=#d5e8d4;strokeColor=#82b366;" parent="IuaTcRtPijXqOsnX0eB4-1" vertex="1">
          <mxGeometry x="645" y="300" width="120" height="80" as="geometry" />
        </mxCell>
        <mxCell id="IuaTcRtPijXqOsnX0eB4-12" value="&lt;span&gt;Every nonconstant polynomial with complex coefficients has a zero.&lt;/span&gt;" style="rounded=0;whiteSpace=wrap;html=1;" parent="IuaTcRtPijXqOsnX0eB4-1" vertex="1">
          <mxGeometry x="734.95" y="802.5" width="120" height="60" as="geometry" />
        </mxCell>
        <mxCell id="IuaTcRtPijXqOsnX0eB4-84" style="edgeStyle=orthogonalEdgeStyle;rounded=0;orthogonalLoop=1;jettySize=auto;html=1;exitX=1;exitY=0.5;exitDx=0;exitDy=0;entryX=0;entryY=0.5;entryDx=0;entryDy=0;" parent="IuaTcRtPijXqOsnX0eB4-1" source="IuaTcRtPijXqOsnX0eB4-14" target="IuaTcRtPijXqOsnX0eB4-12" edge="1">
          <mxGeometry relative="1" as="geometry" />
        </mxCell>
        <mxCell id="IuaTcRtPijXqOsnX0eB4-14" value="&lt;span&gt;Every operator on a finite-dimensional, nonzero, complex vector space has an eigenvalue.&lt;/span&gt;" style="rounded=0;whiteSpace=wrap;html=1;" parent="IuaTcRtPijXqOsnX0eB4-1" vertex="1">
          <mxGeometry x="564.95" y="797.5" width="120" height="70" as="geometry" />
        </mxCell>
        <mxCell id="IuaTcRtPijXqOsnX0eB4-83" style="edgeStyle=orthogonalEdgeStyle;rounded=0;orthogonalLoop=1;jettySize=auto;html=1;exitX=1;exitY=0.5;exitDx=0;exitDy=0;entryX=0;entryY=0.5;entryDx=0;entryDy=0;" parent="IuaTcRtPijXqOsnX0eB4-1" source="IuaTcRtPijXqOsnX0eB4-16" target="IuaTcRtPijXqOsnX0eB4-14" edge="1">
          <mxGeometry relative="1" as="geometry" />
        </mxCell>
        <mxCell id="IuaTcRtPijXqOsnX0eB4-16" value="Over C, every operator has an upper-triangular matrix." style="rounded=1;whiteSpace=wrap;html=1;" parent="IuaTcRtPijXqOsnX0eB4-1" vertex="1">
          <mxGeometry x="394.95" y="802.5" width="120" height="60" as="geometry" />
        </mxCell>
        <mxCell id="IuaTcRtPijXqOsnX0eB4-87" style="edgeStyle=orthogonalEdgeStyle;rounded=0;orthogonalLoop=1;jettySize=auto;html=1;exitX=1;exitY=0.5;exitDx=0;exitDy=0;entryX=0;entryY=0.5;entryDx=0;entryDy=0;" parent="IuaTcRtPijXqOsnX0eB4-1" source="IuaTcRtPijXqOsnX0eB4-22" target="IuaTcRtPijXqOsnX0eB4-23" edge="1">
          <mxGeometry relative="1" as="geometry" />
        </mxCell>
        <mxCell id="IuaTcRtPijXqOsnX0eB4-88" style="edgeStyle=orthogonalEdgeStyle;rounded=0;orthogonalLoop=1;jettySize=auto;html=1;exitX=0.5;exitY=0;exitDx=0;exitDy=0;entryX=0.5;entryY=1;entryDx=0;entryDy=0;" parent="IuaTcRtPijXqOsnX0eB4-1" source="IuaTcRtPijXqOsnX0eB4-22" target="IuaTcRtPijXqOsnX0eB4-16" edge="1">
          <mxGeometry relative="1" as="geometry" />
        </mxCell>
        <mxCell id="IuaTcRtPijXqOsnX0eB4-22" value="Over C, every operator has an upper-triangular matrix with respect to some orthonormal basis." style="rounded=1;whiteSpace=wrap;html=1;fillColor=#E6E6E6;" parent="IuaTcRtPijXqOsnX0eB4-1" vertex="1">
          <mxGeometry x="394.95" y="912.5" width="120" height="100" as="geometry" />
        </mxCell>
        <mxCell id="IuaTcRtPijXqOsnX0eB4-23" value="&lt;span&gt;Gram-Schmidt Procedure:&lt;br&gt;If T has an upper-triangular matrix with respect to some basis of V, then T has an upper-triangular matrix with respect to some orthonormal basis of V.&lt;/span&gt;" style="rounded=0;whiteSpace=wrap;html=1;fillColor=#E6E6E6;" parent="IuaTcRtPijXqOsnX0eB4-1" vertex="1">
          <mxGeometry x="549.95" y="905" width="150" height="115" as="geometry" />
        </mxCell>
        <mxCell id="IuaTcRtPijXqOsnX0eB4-110" style="edgeStyle=orthogonalEdgeStyle;rounded=0;orthogonalLoop=1;jettySize=auto;html=1;exitX=0.5;exitY=0;exitDx=0;exitDy=0;entryX=0.5;entryY=1;entryDx=0;entryDy=0;" parent="IuaTcRtPijXqOsnX0eB4-1" source="IuaTcRtPijXqOsnX0eB4-26" target="IuaTcRtPijXqOsnX0eB4-8" edge="1">
          <mxGeometry relative="1" as="geometry" />
        </mxCell>
        <mxCell id="aK0aah2MI1z-rDvGibRR-92" style="edgeStyle=orthogonalEdgeStyle;rounded=0;orthogonalLoop=1;jettySize=auto;html=1;exitX=1;exitY=0.5;exitDx=0;exitDy=0;entryX=0;entryY=0.5;entryDx=0;entryDy=0;dashed=1;endArrow=none;endFill=0;" parent="IuaTcRtPijXqOsnX0eB4-1" source="IuaTcRtPijXqOsnX0eB4-26" target="IuaTcRtPijXqOsnX0eB4-28" edge="1">
          <mxGeometry relative="1" as="geometry" />
        </mxCell>
        <mxCell id="IuaTcRtPijXqOsnX0eB4-26" value="normal operator" style="ellipse;whiteSpace=wrap;html=1;fillColor=#d5e8d4;gradientDirection=west;strokeColor=#82b366;" parent="IuaTcRtPijXqOsnX0eB4-1" vertex="1">
          <mxGeometry x="230.00000000000006" y="1350" width="120" height="80" as="geometry" />
        </mxCell>
        <mxCell id="aK0aah2MI1z-rDvGibRR-78" style="edgeStyle=orthogonalEdgeStyle;rounded=0;orthogonalLoop=1;jettySize=auto;html=1;exitX=0.5;exitY=0;exitDx=0;exitDy=0;entryX=0;entryY=0.5;entryDx=0;entryDy=0;" parent="IuaTcRtPijXqOsnX0eB4-1" source="IuaTcRtPijXqOsnX0eB4-27" target="IuaTcRtPijXqOsnX0eB4-26" edge="1">
          <mxGeometry relative="1" as="geometry" />
        </mxCell>
        <mxCell id="IuaTcRtPijXqOsnX0eB4-27" value="self-adjoint operator" style="ellipse;whiteSpace=wrap;html=1;fillColor=#d5e8d4;strokeColor=#82b366;gradientDirection=west;" parent="IuaTcRtPijXqOsnX0eB4-1" vertex="1">
          <mxGeometry x="70.00000000000006" y="1690" width="120" height="80" as="geometry" />
        </mxCell>
        <mxCell id="IuaTcRtPijXqOsnX0eB4-28" value="Over C, normal = diagonalizable with respect to an orthogonal basis" style="rounded=1;whiteSpace=wrap;html=1;fillColor=#E6E6E6;" parent="IuaTcRtPijXqOsnX0eB4-1" vertex="1">
          <mxGeometry x="394.95" y="1340" width="120" height="100" as="geometry" />
        </mxCell>
        <mxCell id="IuaTcRtPijXqOsnX0eB4-39" style="edgeStyle=orthogonalEdgeStyle;rounded=0;orthogonalLoop=1;jettySize=auto;html=1;exitX=0.5;exitY=0;exitDx=0;exitDy=0;entryX=0.5;entryY=1;entryDx=0;entryDy=0;shadow=0;strokeColor=#000000;fillColor=#007FFF;elbow=vertical;" parent="IuaTcRtPijXqOsnX0eB4-1" source="IuaTcRtPijXqOsnX0eB4-40" target="IuaTcRtPijXqOsnX0eB4-27" edge="1">
          <mxGeometry relative="1" as="geometry" />
        </mxCell>
        <mxCell id="vuEfzPaLM79mjF0In50A-59" style="edgeStyle=orthogonalEdgeStyle;rounded=0;orthogonalLoop=1;jettySize=auto;html=1;exitX=1;exitY=0.5;exitDx=0;exitDy=0;entryX=0;entryY=0.5;entryDx=0;entryDy=0;dashed=1;startArrow=none;startFill=0;endArrow=classic;endFill=1;strokeWidth=1;" parent="IuaTcRtPijXqOsnX0eB4-1" source="IuaTcRtPijXqOsnX0eB4-40" target="aK0aah2MI1z-rDvGibRR-34" edge="1">
          <mxGeometry relative="1" as="geometry">
            <Array as="points">
              <mxPoint x="680" y="1875" />
              <mxPoint x="680" y="1735" />
            </Array>
          </mxGeometry>
        </mxCell>
        <mxCell id="IuaTcRtPijXqOsnX0eB4-40" value="positive operator" style="ellipse;whiteSpace=wrap;html=1;fillColor=#d5e8d4;strokeColor=#82b366;gradientDirection=west;" parent="IuaTcRtPijXqOsnX0eB4-1" vertex="1">
          <mxGeometry x="70.00000000000006" y="1835" width="120" height="80" as="geometry" />
        </mxCell>
        <mxCell id="aK0aah2MI1z-rDvGibRR-77" style="edgeStyle=orthogonalEdgeStyle;rounded=0;orthogonalLoop=1;jettySize=auto;html=1;exitX=0.5;exitY=0;exitDx=0;exitDy=0;entryX=0.5;entryY=1;entryDx=0;entryDy=0;" parent="IuaTcRtPijXqOsnX0eB4-1" source="IuaTcRtPijXqOsnX0eB4-42" target="IuaTcRtPijXqOsnX0eB4-26" edge="1">
          <mxGeometry relative="1" as="geometry" />
        </mxCell>
        <mxCell id="aK0aah2MI1z-rDvGibRR-93" style="edgeStyle=orthogonalEdgeStyle;rounded=0;orthogonalLoop=1;jettySize=auto;html=1;exitX=1;exitY=0.5;exitDx=0;exitDy=0;entryX=0;entryY=0.5;entryDx=0;entryDy=0;dashed=1;endArrow=none;endFill=0;" parent="IuaTcRtPijXqOsnX0eB4-1" source="IuaTcRtPijXqOsnX0eB4-42" target="IuaTcRtPijXqOsnX0eB4-43" edge="1">
          <mxGeometry relative="1" as="geometry" />
        </mxCell>
        <mxCell id="IuaTcRtPijXqOsnX0eB4-42" value="isometry&lt;br&gt;(orthogonal operator)&lt;br&gt;(unitary operator)" style="ellipse;whiteSpace=wrap;html=1;fillColor=#d5e8d4;gradientDirection=west;strokeColor=#82b366;" parent="IuaTcRtPijXqOsnX0eB4-1" vertex="1">
          <mxGeometry x="230.00000000000006" y="1515" width="120" height="80" as="geometry" />
        </mxCell>
        <mxCell id="vuEfzPaLM79mjF0In50A-58" style="edgeStyle=orthogonalEdgeStyle;rounded=0;orthogonalLoop=1;jettySize=auto;html=1;entryX=0;entryY=0.5;entryDx=0;entryDy=0;dashed=1;startArrow=none;startFill=0;endArrow=classic;endFill=1;strokeWidth=1;" parent="IuaTcRtPijXqOsnX0eB4-1" source="IuaTcRtPijXqOsnX0eB4-43" target="aK0aah2MI1z-rDvGibRR-34" edge="1">
          <mxGeometry relative="1" as="geometry" />
        </mxCell>
        <mxCell id="IuaTcRtPijXqOsnX0eB4-43" value="Over C, diagonalizable with respect to an orthogonal basis (eigenvectors), and eigenvalues have absolute value 1." style="rounded=1;whiteSpace=wrap;html=1;fillColor=#E6E6E6;" parent="IuaTcRtPijXqOsnX0eB4-1" vertex="1">
          <mxGeometry x="394.95" y="1505" width="120" height="100" as="geometry" />
        </mxCell>
        <mxCell id="IuaTcRtPijXqOsnX0eB4-95" style="edgeStyle=orthogonalEdgeStyle;rounded=0;orthogonalLoop=1;jettySize=auto;html=1;exitX=1;exitY=0.5;exitDx=0;exitDy=0;" parent="IuaTcRtPijXqOsnX0eB4-1" source="IuaTcRtPijXqOsnX0eB4-58" target="IuaTcRtPijXqOsnX0eB4-60" edge="1">
          <mxGeometry relative="1" as="geometry" />
        </mxCell>
        <mxCell id="IuaTcRtPijXqOsnX0eB4-58" value="Over C, there is a basis consisting of generalized eigenvectors." style="rounded=1;whiteSpace=wrap;html=1;" parent="IuaTcRtPijXqOsnX0eB4-1" vertex="1">
          <mxGeometry x="564.95" y="1090" width="120" height="60" as="geometry" />
        </mxCell>
        <mxCell id="IuaTcRtPijXqOsnX0eB4-60" value="V = G(lambda_1, T) (X) ...&amp;nbsp;(X) G(lambda_m, T) ((X) is tensor product, i.e. otimes)" style="rounded=0;whiteSpace=wrap;html=1;" parent="IuaTcRtPijXqOsnX0eB4-1" vertex="1">
          <mxGeometry x="734.95" y="1090" width="255.05" height="60" as="geometry" />
        </mxCell>
        <mxCell id="IuaTcRtPijXqOsnX0eB4-96" style="edgeStyle=orthogonalEdgeStyle;rounded=0;orthogonalLoop=1;jettySize=auto;html=1;exitX=0.5;exitY=0;exitDx=0;exitDy=0;entryX=0.5;entryY=1;entryDx=0;entryDy=0;" parent="IuaTcRtPijXqOsnX0eB4-1" source="IuaTcRtPijXqOsnX0eB4-64" target="IuaTcRtPijXqOsnX0eB4-93" edge="1">
          <mxGeometry relative="1" as="geometry" />
        </mxCell>
        <mxCell id="IuaTcRtPijXqOsnX0eB4-99" style="edgeStyle=orthogonalEdgeStyle;rounded=0;orthogonalLoop=1;jettySize=auto;html=1;exitX=1;exitY=0.5;exitDx=0;exitDy=0;entryX=0;entryY=0.5;entryDx=0;entryDy=0;" parent="IuaTcRtPijXqOsnX0eB4-1" source="IuaTcRtPijXqOsnX0eB4-64" target="IuaTcRtPijXqOsnX0eB4-97" edge="1">
          <mxGeometry relative="1" as="geometry" />
        </mxCell>
        <mxCell id="IuaTcRtPijXqOsnX0eB4-64" value="Over C, there is a basis that is a Jordan basis of T." style="rounded=1;whiteSpace=wrap;html=1;" parent="IuaTcRtPijXqOsnX0eB4-1" vertex="1">
          <mxGeometry x="394.95" y="1185" width="120" height="60" as="geometry" />
        </mxCell>
        <mxCell id="IuaTcRtPijXqOsnX0eB4-89" style="edgeStyle=orthogonalEdgeStyle;rounded=0;orthogonalLoop=1;jettySize=auto;html=1;exitX=0.5;exitY=0;exitDx=0;exitDy=0;entryX=0.5;entryY=0;entryDx=0;entryDy=0;" parent="IuaTcRtPijXqOsnX0eB4-1" source="IuaTcRtPijXqOsnX0eB4-72" target="IuaTcRtPijXqOsnX0eB4-6" edge="1">
          <mxGeometry relative="1" as="geometry" />
        </mxCell>
        <mxCell id="IuaTcRtPijXqOsnX0eB4-90" value="On a vector space" style="edgeLabel;html=1;align=center;verticalAlign=middle;resizable=0;points=[];" parent="IuaTcRtPijXqOsnX0eB4-89" vertex="1" connectable="0">
          <mxGeometry x="0.181" y="1" relative="1" as="geometry">
            <mxPoint x="14" as="offset" />
          </mxGeometry>
        </mxCell>
        <mxCell id="IuaTcRtPijXqOsnX0eB4-72" value="linear map" style="ellipse;whiteSpace=wrap;html=1;" parent="IuaTcRtPijXqOsnX0eB4-1" vertex="1">
          <mxGeometry x="230" y="650" width="120" height="80" as="geometry" />
        </mxCell>
        <mxCell id="IuaTcRtPijXqOsnX0eB4-94" style="edgeStyle=orthogonalEdgeStyle;rounded=0;orthogonalLoop=1;jettySize=auto;html=1;exitX=1;exitY=0.5;exitDx=0;exitDy=0;entryX=0;entryY=0.5;entryDx=0;entryDy=0;" parent="IuaTcRtPijXqOsnX0eB4-1" source="IuaTcRtPijXqOsnX0eB4-93" target="IuaTcRtPijXqOsnX0eB4-58" edge="1">
          <mxGeometry relative="1" as="geometry" />
        </mxCell>
        <mxCell id="aK0aah2MI1z-rDvGibRR-76" style="edgeStyle=orthogonalEdgeStyle;rounded=0;orthogonalLoop=1;jettySize=auto;html=1;exitX=0;exitY=0.5;exitDx=0;exitDy=0;entryX=0;entryY=0.5;entryDx=0;entryDy=0;" parent="IuaTcRtPijXqOsnX0eB4-1" source="IuaTcRtPijXqOsnX0eB4-93" target="IuaTcRtPijXqOsnX0eB4-16" edge="1">
          <mxGeometry relative="1" as="geometry" />
        </mxCell>
        <mxCell id="IuaTcRtPijXqOsnX0eB4-93" value="Over C, there is a basis that has a block diagonal matrix." style="rounded=1;whiteSpace=wrap;html=1;" parent="IuaTcRtPijXqOsnX0eB4-1" vertex="1">
          <mxGeometry x="394.95" y="1090" width="120" height="60" as="geometry" />
        </mxCell>
        <mxCell id="IuaTcRtPijXqOsnX0eB4-97" value="Suppose N is nilpotent. Then there exists vectors v1 ..., vn and nonnegative integers m1, ... , mn such that:&lt;br&gt;1) N^m1(v1), ... N(v1), v1, ... , N^mn(vn), ... , N(vn), vn is a basis of V;&lt;br&gt;2) N^m1+1(v1) = ... = N^mn+1(vn) = 0" style="rounded=0;whiteSpace=wrap;html=1;" parent="IuaTcRtPijXqOsnX0eB4-1" vertex="1">
          <mxGeometry x="564.95" y="1185" width="385" height="60" as="geometry" />
        </mxCell>
        <mxCell id="vuEfzPaLM79mjF0In50A-9" style="edgeStyle=orthogonalEdgeStyle;rounded=0;orthogonalLoop=1;jettySize=auto;html=1;entryX=0;entryY=0.5;entryDx=0;entryDy=0;startArrow=classic;startFill=1;endArrow=none;endFill=0;" parent="IuaTcRtPijXqOsnX0eB4-1" source="IuaTcRtPijXqOsnX0eB4-100" target="IuaTcRtPijXqOsnX0eB4-10" edge="1">
          <mxGeometry relative="1" as="geometry" />
        </mxCell>
        <mxCell id="IuaTcRtPijXqOsnX0eB4-100" value="n-by-n matrix (operator)" style="ellipse;whiteSpace=wrap;html=1;fillColor=#dae8fc;strokeColor=#6c8ebf;" parent="IuaTcRtPijXqOsnX0eB4-1" vertex="1">
          <mxGeometry x="80" y="300" width="120" height="80" as="geometry" />
        </mxCell>
        <mxCell id="aK0aah2MI1z-rDvGibRR-22" style="edgeStyle=orthogonalEdgeStyle;rounded=0;orthogonalLoop=1;jettySize=auto;html=1;exitX=0.5;exitY=0;exitDx=0;exitDy=0;shadow=0;strokeColor=#000000;fillColor=#97D077;entryX=0;entryY=0.5;entryDx=0;entryDy=0;" parent="IuaTcRtPijXqOsnX0eB4-1" source="aK0aah2MI1z-rDvGibRR-26" target="aK0aah2MI1z-rDvGibRR-25" edge="1">
          <mxGeometry relative="1" as="geometry">
            <mxPoint x="1462.4" y="2340" as="targetPoint" />
          </mxGeometry>
        </mxCell>
        <mxCell id="aK0aah2MI1z-rDvGibRR-89" style="edgeStyle=orthogonalEdgeStyle;rounded=0;orthogonalLoop=1;jettySize=auto;html=1;exitX=0.5;exitY=0;exitDx=0;exitDy=0;entryX=0.5;entryY=1;entryDx=0;entryDy=0;" parent="IuaTcRtPijXqOsnX0eB4-1" source="aK0aah2MI1z-rDvGibRR-25" target="aK0aah2MI1z-rDvGibRR-87" edge="1">
          <mxGeometry relative="1" as="geometry">
            <mxPoint x="1547.45" y="1272.5" as="targetPoint" />
          </mxGeometry>
        </mxCell>
        <mxCell id="aK0aah2MI1z-rDvGibRR-94" style="edgeStyle=orthogonalEdgeStyle;rounded=0;orthogonalLoop=1;jettySize=auto;html=1;exitX=1;exitY=0.5;exitDx=0;exitDy=0;entryX=0;entryY=0.5;entryDx=0;entryDy=0;dashed=1;endArrow=none;endFill=0;" parent="IuaTcRtPijXqOsnX0eB4-1" source="aK0aah2MI1z-rDvGibRR-25" target="aK0aah2MI1z-rDvGibRR-49" edge="1">
          <mxGeometry relative="1" as="geometry" />
        </mxCell>
        <mxCell id="aK0aah2MI1z-rDvGibRR-25" value="normal operator" style="ellipse;whiteSpace=wrap;html=1;gradientDirection=west;" parent="IuaTcRtPijXqOsnX0eB4-1" vertex="1">
          <mxGeometry x="1490" y="1390" width="120" height="80" as="geometry" />
        </mxCell>
        <mxCell id="aK0aah2MI1z-rDvGibRR-96" style="edgeStyle=orthogonalEdgeStyle;rounded=0;orthogonalLoop=1;jettySize=auto;html=1;exitX=1;exitY=0.5;exitDx=0;exitDy=0;entryX=0;entryY=0.5;entryDx=0;entryDy=0;dashed=1;endArrow=none;endFill=0;" parent="IuaTcRtPijXqOsnX0eB4-1" source="aK0aah2MI1z-rDvGibRR-26" target="aK0aah2MI1z-rDvGibRR-28" edge="1">
          <mxGeometry relative="1" as="geometry" />
        </mxCell>
        <mxCell id="aK0aah2MI1z-rDvGibRR-26" value="self-adjoint operator" style="ellipse;whiteSpace=wrap;html=1;fillColor=#d5e8d4;gradientDirection=west;strokeColor=#82b366;" parent="IuaTcRtPijXqOsnX0eB4-1" vertex="1">
          <mxGeometry x="1347.45" y="1720" width="120" height="80" as="geometry" />
        </mxCell>
        <mxCell id="aK0aah2MI1z-rDvGibRR-28" value="Over R, self-adjoint = diagonalizable with respect to an orthogonal basis" style="rounded=1;whiteSpace=wrap;html=1;fillColor=#E6E6E6;" parent="IuaTcRtPijXqOsnX0eB4-1" vertex="1">
          <mxGeometry x="1647.45" y="1710" width="120" height="100" as="geometry" />
        </mxCell>
        <mxCell id="aK0aah2MI1z-rDvGibRR-29" style="edgeStyle=orthogonalEdgeStyle;rounded=0;orthogonalLoop=1;jettySize=auto;html=1;exitX=0.5;exitY=0;exitDx=0;exitDy=0;entryX=0.5;entryY=1;entryDx=0;entryDy=0;shadow=0;strokeColor=#000000;fillColor=#007FFF;elbow=vertical;" parent="IuaTcRtPijXqOsnX0eB4-1" source="aK0aah2MI1z-rDvGibRR-30" target="aK0aah2MI1z-rDvGibRR-26" edge="1">
          <mxGeometry relative="1" as="geometry" />
        </mxCell>
        <mxCell id="vuEfzPaLM79mjF0In50A-60" style="edgeStyle=orthogonalEdgeStyle;rounded=0;orthogonalLoop=1;jettySize=auto;html=1;exitX=0;exitY=0.5;exitDx=0;exitDy=0;entryX=1;entryY=0.5;entryDx=0;entryDy=0;dashed=1;startArrow=none;startFill=0;endArrow=classic;endFill=1;strokeWidth=1;" parent="IuaTcRtPijXqOsnX0eB4-1" source="aK0aah2MI1z-rDvGibRR-30" target="aK0aah2MI1z-rDvGibRR-34" edge="1">
          <mxGeometry relative="1" as="geometry" />
        </mxCell>
        <mxCell id="aK0aah2MI1z-rDvGibRR-30" value="positive operator" style="ellipse;whiteSpace=wrap;html=1;fillColor=#d5e8d4;strokeColor=#82b366;gradientDirection=west;" parent="IuaTcRtPijXqOsnX0eB4-1" vertex="1">
          <mxGeometry x="1347.45" y="1865" width="120" height="80" as="geometry" />
        </mxCell>
        <mxCell id="aK0aah2MI1z-rDvGibRR-90" style="edgeStyle=orthogonalEdgeStyle;rounded=0;orthogonalLoop=1;jettySize=auto;html=1;exitX=0.5;exitY=0;exitDx=0;exitDy=0;entryX=0.5;entryY=1;entryDx=0;entryDy=0;" parent="IuaTcRtPijXqOsnX0eB4-1" source="aK0aah2MI1z-rDvGibRR-31" target="aK0aah2MI1z-rDvGibRR-25" edge="1">
          <mxGeometry relative="1" as="geometry" />
        </mxCell>
        <mxCell id="aK0aah2MI1z-rDvGibRR-95" style="edgeStyle=orthogonalEdgeStyle;rounded=0;orthogonalLoop=1;jettySize=auto;html=1;exitX=1;exitY=0.5;exitDx=0;exitDy=0;entryX=0;entryY=0.5;entryDx=0;entryDy=0;dashed=1;endArrow=none;endFill=0;" parent="IuaTcRtPijXqOsnX0eB4-1" source="aK0aah2MI1z-rDvGibRR-31" target="aK0aah2MI1z-rDvGibRR-52" edge="1">
          <mxGeometry relative="1" as="geometry" />
        </mxCell>
        <mxCell id="vuEfzPaLM79mjF0In50A-61" style="edgeStyle=orthogonalEdgeStyle;rounded=0;orthogonalLoop=1;jettySize=auto;html=1;exitX=0;exitY=0.5;exitDx=0;exitDy=0;entryX=1;entryY=0.5;entryDx=0;entryDy=0;dashed=1;startArrow=none;startFill=0;endArrow=classic;endFill=1;strokeWidth=1;" parent="IuaTcRtPijXqOsnX0eB4-1" source="aK0aah2MI1z-rDvGibRR-31" target="aK0aah2MI1z-rDvGibRR-34" edge="1">
          <mxGeometry relative="1" as="geometry">
            <Array as="points">
              <mxPoint x="1170" y="1590" />
              <mxPoint x="1170" y="1735" />
            </Array>
          </mxGeometry>
        </mxCell>
        <mxCell id="aK0aah2MI1z-rDvGibRR-31" value="isometry&lt;br&gt;(orthogonal operator)&lt;br&gt;(unitary operator)" style="ellipse;whiteSpace=wrap;html=1;gradientDirection=west;" parent="IuaTcRtPijXqOsnX0eB4-1" vertex="1">
          <mxGeometry x="1490" y="1550" width="120" height="80" as="geometry" />
        </mxCell>
        <mxCell id="aK0aah2MI1z-rDvGibRR-33" value="" style="group" parent="IuaTcRtPijXqOsnX0eB4-1" vertex="1" connectable="0">
          <mxGeometry x="841" y="1690" width="158" height="90" as="geometry" />
        </mxCell>
        <mxCell id="aK0aah2MI1z-rDvGibRR-34" value="" style="rounded=1;whiteSpace=wrap;html=1;fillColor=#99CCFF;" parent="aK0aah2MI1z-rDvGibRR-33" vertex="1">
          <mxGeometry width="150" height="90" as="geometry" />
        </mxCell>
        <mxCell id="aK0aah2MI1z-rDvGibRR-35" value="" style="shape=image;verticalLabelPosition=bottom;labelBackgroundColor=default;verticalAlign=top;aspect=fixed;imageAspect=0;image=data:image/png,iVBORw0KGgoAAAANSUhEUgAAAI4AAAAjCAYAAABCfzI4AAAAAXNSR0IArs4c6QAAAARnQU1BAACxjwv8YQUAAAAJcEhZcwAAEnQAABJ0Ad5mH3gAAAcwSURBVHhe7Zp5SBVfFMePtlhQWhaRkRZWZEUULeYfQVlk2U7aRqst0AJBlCFCBaVEJfZHiBXaHiEVEaSCSTvte7bSXtpuaW7t/b7n3fuanumbd52X71f3A8PMnBnn3bn3e88954xeQUFB30mjcRFvsddoXEILR6OEXqospkWLFtSxY0dxZi3fv1szVCdPnhRH6mjhWEiTJk0oJSWFsrKyhMUz2bVrlzhSRwvHQiZOnEj16tWj7du3C8vfi45xLKJBgwYUHh5uyWz+P6CFYxGRkZF04cIF+vr1q7D83WjhWMSgQYNox44d4qzm1KlTh4Pshg0bCotnYTrGGTJkCM2ZM4df6OPHj8JK5OPjY7fJ2Va3bl2qX78+PXnyhJYsWULFxcVsr0369OnDMUjr1q2Fhejq1at09OhRtm/atImuXLkirrjGmDFjuB92797N5+iPtWvXUkhIyC/9Ajvuw7nsQy8vL7YhY9q5cydlZGSwHaJZtGgRbd26lU6dOsU2I9OnT6eoqCg+dnwW9hUVFfYsTI4R3i8+Pp5tNcW0xwkNDaXXr19TbGwsRUdH87Z69WpudHl5OSUnJ9vt06ZNo0ePHlFJSYlHiGbmzJm0ePFiunz5Mo0fP57bOH/+fGrevDkL29vbmx48eCDudp2IiAg6ePCgOCPq0aMHBQQE0P79++19gu3atWt8/fr163YbBh+CwUC/e/eOBgwYQOvXr6dWrVpx38LjoG8nTJjAfwsgAvzGnTt3aNasWfZn4TkQZWFhIQtE2vGOb9++5edbhSnhtGnThlq2bEl79+6l27dvCytRp06dWM0fPnxg7yIpKiqiFy9e0MuXL4Wl9hg8eDDHH/As27Zts89+tA3v8+nTJ7p//76ywGfPnk25ubncB5Ju3brR06dPafPmzfbfQ30HYoAXcBTp3bt36f3791RQUECnT5+mW7dusSCaNWvGon/27BkdOXJE3G0TJgSF7M3Yx+3bt+esDgK5d++esBI/D2KycjxMCad79+48I/BSRtq2bcvqxws/fvxYWG2gpuEJwunbty/vz507x3sjEDtmIgZOlZ49e9Lhw4fFmc0bdO7cmX9PigZg8qFP0I/wFEYgKAj41atX7L3hkSAkiKC0tJQn65s3b8TdNmE+f/7c7sEAfjcwMJCPIRrjb2N5xrMwma3ClHCgZLyMcVb6+vpWOYNgR8ONqq8N0GHYEG+1a9dOWH/i5+fHy+mNGzeExTVGjBjB3gazWQIv/OXLFzp//ryw2AgODuaU3dE7A7QDgwrhwDvOmzeP4y/YTpw4QVOmTOFN8l9cWmkiYIyaNm1Knz9//u0khmBrshw7olwA7N27N6+dCIRTU1MpJydHXPEcMAvXrVvHnQoho0MRIMJzOhMLBhpBc2JiorBUZuPGjRQXF2cqdli2bBmFhYXRzZs3Od5yBoLjhQsXctB+6dIlYa2aUaNG0YwZM6isrIzbnJeXJ664B2XhIMicPHkyu/rly5dXUrkZILx+/fpxFmCWb9++0bFjxzhrMQMynqlTp7LXMYJ2b9my5ZdlRoIMEn+DmYp3c/QeAN6mUaNG9kyqOuCd16xZw0sJAua0tDRxpWrghdAOZFSIl5yxYMECvh9eHoIzLlXuQFk4rs6g2gTB5LBhwzj2aNy4MWdRAEuDo+gnTZrEGRE+BOId4ZmQSTqyYcMGWrFiBcd3znC3dzZ6VgTRZidVTTCdjhsxxjfGLMtTgatfuXIlLz0QRnZ2Ns9IeJSuXbuKu2zgk0FSUhKdOXOGJ0WXLl24HmME3gZVYjOiATK+QbbpGBhbgTG+qUmg7wpKwkFH+Pv7cybgGOh5CsOHD6elS5eKs59g8JCW5+fns3hwXhXSM4wcOZL3ElSJkd6bpUOHDuwVkBmpLOnOwPPhSRHfoLTwJ1ASjiyFI8uqicKxBKBwhn9DMLtlZmay23cGlqeqYifMfgwkgtrq2g/h4J7+/fvbU11UoJFhms0Y4Z1ltdpdWSYmMmI4ZHeo2fwJlIQjZxAqyagQq4K1GJ5h6NChpjfEKgg0qwPFNgw0liK00xHUdlBcO378uNNa0759+3iPNBkMHDiQzp49y8dmkN4ZVWAr02EjstSAsXB3UCxxWTjGGeSpyxQ8IgYLAp87d+4vHwohvrFjx3IdxMy/QMjlavTo0Sw2CMBYeHOG9M6oF7ljmZLvCsH8yfEwlVUhK8C3HaSf8kMaMhN0IhqMaif+8w0BpScQExPDAe2BAwdo3LhxdqEDuPM9e/bQoUOHhMU5KMjBMyL1RsB88eJFceX3oLbTq1cvPpYffNFP6C+AWlJCQgIfq4C2IMhHNRjjgaUXyA+beMdVq1bRw4cP2e4OlNPxfwmk5+np6VxUMxNf/QsoxTj/GvguhC/r+LygsaE9jkYJ7XE0SmjhaJTQwtEooYWjUUILR6OEFo5GCS0cjRJaOBoltHA0ChD9AIi4l7Cs94oGAAAAAElFTkSuQmCC;" parent="aK0aah2MI1z-rDvGibRR-33" vertex="1">
          <mxGeometry x="4" y="40" width="142" height="35" as="geometry" />
        </mxCell>
        <mxCell id="aK0aah2MI1z-rDvGibRR-36" value="&lt;span style=&quot;color: rgb(0, 0, 0); font-family: helvetica; font-size: 12px; font-style: normal; font-weight: 400; letter-spacing: normal; text-align: center; text-indent: 0px; text-transform: none; word-spacing: 0px; background-color: rgb(248, 249, 250); display: inline; float: none;&quot;&gt;Polar Decomposition&lt;/span&gt;" style="text;whiteSpace=wrap;html=1;" parent="aK0aah2MI1z-rDvGibRR-33" vertex="1">
          <mxGeometry x="18" y="10" width="140" height="30" as="geometry" />
        </mxCell>
        <mxCell id="aK0aah2MI1z-rDvGibRR-37" value="" style="rounded=1;whiteSpace=wrap;html=1;fillColor=#99CCFF;" parent="IuaTcRtPijXqOsnX0eB4-1" vertex="1">
          <mxGeometry x="730" y="1780" width="380" height="150" as="geometry" />
        </mxCell>
        <mxCell id="aK0aah2MI1z-rDvGibRR-38" value="&lt;span style=&quot;color: rgb(0 , 0 , 0) ; font-family: &amp;#34;helvetica&amp;#34; ; font-size: 12px ; font-style: normal ; font-weight: 400 ; letter-spacing: normal ; text-align: center ; text-indent: 0px ; text-transform: none ; word-spacing: 0px ; background-color: rgb(248 , 249 , 250) ; display: inline ; float: none&quot;&gt;SVD (Singular Value)&lt;/span&gt;" style="text;whiteSpace=wrap;html=1;" parent="IuaTcRtPijXqOsnX0eB4-1" vertex="1">
          <mxGeometry x="850" y="1790" width="140" height="30" as="geometry" />
        </mxCell>
        <mxCell id="aK0aah2MI1z-rDvGibRR-39" value="" style="shape=image;verticalLabelPosition=bottom;labelBackgroundColor=default;verticalAlign=top;aspect=fixed;imageAspect=0;image=data:image/png,iVBORw0KGgoAAAANSUhEUgAAAWEAAABcCAYAAAC/bAQQAAAAAXNSR0IArs4c6QAAAARnQU1BAACxjwv8YQUAAAAJcEhZcwAAEnQAABJ0Ad5mH3gAACQDSURBVHhe7d0J3GfV/MDxG1nTQsgWsrXIiNJokmjSRmRptEpSKlSaaSNrpakoLZqpGDVtKmm8kpFQ1kwLUY0lRIqR7FJC/v/36XemO3fuvb/7257f85vnfF6v5zXz3Ocu55x7zvd8l3PPd7mnP/3p/8sSiUQiMRQe0vo3kUgkEkMgCeFEIpEYIkkIJxKJxBBJQjiRSCSGSBLCiUQiMUSSEE4kEokhkoTwAFlttdWyI488Mlt77bVbR8YvT3ziE7MPfehDI1HWxGDZeeeds3e/+92t38Y/06ZNy971rne1fhs9khAeIC960YuyFVZYIbvjjjtaR8Yvd955Z/bQhz40mzx5cutIYiKiD0yaNCn0h1Hhd7/7Xfa85z0vKD2jSBLCA2TKlCnZL37xi+xvf/tb68j45qabbgoD0EBMTEz02ZVWWim7/vrrW0fGPz/84Q/Dvy996UvDv6NGoy/mttpqq2zvvfcOg/Nf//pX62iWPeIRj1h87L///W84tvzyy2cPf/jDs9tuuy07+OCDR0YA9ZvnPOc52fTp07Pzzjsv+9a3vtU6Or7ptswrr7xytt9++2UvfOELs4c85CFhAM+cOXNxn0iMDsx6rqkPfOADrSOjQbfl3myzzbLddtste8xjHpP985//zGbNmpV997vfbf11bGikCW+44YbZH/7wh+yggw7K3vSmN4WfY445Jgjfe+65Jzv++OMXH1ehX/3qV9k//vGPCSuAsf7664e2GesX2gs///nPw3smTDvhrW99a/biF784+/73v5897GEPy5773OdmT3va01p/7Q/PeMYzspNOOilbb731WkdGl9e97nXZscce2/pt/EADZtaPkhYcoQ0/4QlPCIpEU8Q/dt999+yvf/1r9sc//jFbddVVs3XWWaf117GjrRDW+Z/0pCdln/vc57Kf/OQnraMPVIAm/Pe//z1ovREVWrRoUfb73/++dWRiQij96Ec/Gjlt0AD0bmkVTeCHe8ELXhAm3J/+9KfhZ/78+dmvf/3r1hn9Y7nllgua9rLAeHT5MOeV63vf+17ryOhA2aEUcqc0RfxjlVVWCX321ltvzRYsWJBdfvnlrb+OHW17NM3j3nvvza6++urWkQd45jOfGV7Yb3/726UGnIpNZCGszZjoN9xwQ+vI6BAHoEmkCbRmGsRf/vKX7OKLL85mzJiRXXDBBa2/JkYJ7/w3v/nNSI5dyo7xtu666zae4JzrOvLr6KOPzj784Q+H+o81bYUw9f7GG29cwrXAbHnKU56S/e9//8t++ctfto4+gOMqxrSdqBDCLIJRFMIGoI7Y1OzndhADuP3221tHBsMjH/nI4OpYFlAXWv14gkWz+uqrB5fSqGK8kU0ss3bot5QHLkPu02HS1VaWL3nJS0LQTRCOI/srX/lK6y9L48UeeOCB2f8/J7vvvvuyuXPnBnOVcD/00EPDwDriiCOGKrTNnDvssEMIQD7qUY8Kx2655ZYQXCJMO8G9jjvuuGDaFDXCQbWFZ/Izbr311kEDZ7JzE5199tnZ17/+9dZZzdliiy2y17/+9aH+VW4Ff1NuLinPYy2ZlLmmrDfudzyAlib4xy88yoICb3/724MF0cta3DXWWCPbd999w79gip9//vnZF7/4xfB7p+g/U6dOzQ4//PCl3p11w695zWvC2Lj55ptDPMg5gvX6HBP+1FNPbZ3dHGXfZZddgh+WLNF/KHzecafjLmLscS986lOfah1Zkle96lXBD6zfmgzvv//+0Hb/+c9/sgsvvDD7/Oc/3zpz7OjKwfasZz0rVEBDqXAVhMM73/nOcM4nPvGJoDER4CCIuC38PP/5zw/HqiDwL7vssuxLX/pS4x+dUSCxCTqZTkgoCi7yfwsuOZaHD0kHtIyrCj4pnbUY3OhXWxQhdD/60Y9mb37zm7NLLrkkLFxXB4GKbsoPLgmTRCxfGSaNt73tbWENNG3iqKOOCs81ycRBTLsyqLVvon9o1/e+971BcOy6666hXwmoet9NfflFBJJ/9rOfLSWAt9xyy9Cn3//+92cLFy7M1lxzzcXBLy5JwrObD3wIdcFJwvCAAw7Itt9+++AOIJg32WST1lmdQ/mhCdOIy7jiiiuynXbaKQhcAvjaa68N/ZYSNgwBjK6EsBdBqNx11121AZgokAgHM78G/9Of/hT+RkMjKM1C/Mp1eFmvfvWrs2222abxj5dsVmxCXMlA+4WPLJiLAowg4M4555ywDObZz3526HhVqKcBUdRm+9UWebwD2uFaa60V7mvycewVr3hFELQ//vGPw3mdlB8GorZoJ6xNHiYBWnd+cb+J5LTTTgvtb2VNtC6GhTJawWNy1S+q2GOPPUI7vu997wvtWAaB85nPfCY766yzGvvN+43J0UoAY0+/5dtkZelPovydQqi6X1xvm0e/JajgGZ4XBfUJJ5wQPpSI/bgp7kkDNk70ES4wk4dxy5WZXwDQKVwSFBxjrA59lwU3aDdaEzoWwnl/cLvGsjrg5JNPXtxRDNZvf/vbrb9mQeAQdHWCfNAYbASuTvjxj388lNdsSqOMbhZuBZ3mG9/4Rvi9DlZCFH55BtEWOrPOpjPpwNb3Mknf+MY3BqF+xhlnhPM6KX/EJMJn5l1XQRMiYA38fGdmsr7jHe8IGj+NuhOqrB6ffxuo/i3+rZ3VY+Ix6B796EfXCk6TjsmxbomdCfrxj398+Knzm2u3008/famy+nnDG94QylT2N8FNJnMdsc9STM4+++xg4QiIHnLIIV2txjGJ//vf/w59tIj7m5goKiw17zYqGISnd++DpE7gwiBH9C+uB1qpsccdx6rrxTXp2rvvvju0bx3er745kkKYkHnc4x4XKpBfmlYGd4VGsfSFCWXW5POJGBg0qGF+IqnTEraEIoHi5dGImHvdwGQjZIsMoi0IC2UWHH3LW94SzCyTB18j06qbARlh0gnQ1WnmhKKB089oepXVw62hbfxb/Fs7q4eGd80114S68MFXwVSlnZmEqybDr33ta+Eda/NvfvObraNL41l77bXXUmX1490QXGV/M4EqRx1XXXVVmOgJYoLsZS97WRBede6jOvRDgr3M8tFn9V331p/ywWbLV/W/MqWjCsIvCkAC3ncF+iy3ijpYKtYLxp6tAuqC4p5vEhDHqOvfY0XHQpgrQsMzSfiQmmCmZSLovFEwaAQO+euuuy78Xgcth7ZTpjlU/dCmaFV16HgGsDIx2ffff/8wAPjaCGOdrFPUxyRVJojRa1vkoQEbiN2YoHWYJGi57VZ3aB9+tXaT8bDRzoS7gFg0rcvQxwgFweYqTDg0ThNdLxpbt/CZ8v1+8pOfDL52LgF+eS6XaIJzmZxyyinZueeeG4SbIKrzuaRooUVMOCbcqs9+jXl9wjLEvMAlmFl2nQRKoxZvjNUJwE7rENlggw2CQpVXcIo8+clPzlZcccUwueT7rrKZ5E0OfODiGyeeeGJ4ZtP4Ujd0LIRpXwpLY2i6tIMZo9FdE3nlK18ZTKAmX5TRcgjLMs2h6oc21e6rJIKX2exfAoUfdM6cOWGg8XN1Y6p4+TqBzlBG07YgmAW7dIiqTmdQuFcZzGYdx306xbWEa93g0geY5PzYxWWKicHA8jjssMNCEEnAjBChNIgpEIaxv1rlcOWVV4Z+6LNcKwUE7/785z9XassmXBMvYVuEZknxcr9oIehX7qXPRmUC+qo+q++W9T1l4C4oQ5+KKy66qYPrKTP2QMmXqQhNOFpw+UCkZ2pHEzX3C/lGMWN5iHN0o5Q1oSMhrFFVAJ1oPwQare2xj31s+J02uOmmm2Zf+MIXlorGjiVWeDBJvvzlLy/uXJapEZQ6QN2LrMI1OoHOoFMUadoWgiU0EOamzlGG/R10JFp7jFh7JvNO56FpdNO+gmkmpDrXiOfpDwYJ10pi8LCg9B2xmPhlF6E5ZcqU0H/jJE6QeHe0PXEAGjsBrr/7WxkmXBOvCbiIPuQ6gtjz9DExBpMA6yEPAanP6v9lmrV7cfeoy0YbbdQ6+oCGb3kmDdj46aYO/P32gHD/OgQYBaeLLif1okRxDVIsjEkYq5Skquf2SlshrFHPPPPMEFkWFY5CmPbmmFmvyoyJOIdPbttttw3XcBN4eU204EEiCMK8EihRLj8E3uzZs7NLL720dVbn6ATMQ4OjSNO24DM00RHqOmwZBLCABsFO63c/ppPOaLkPU65TCFfm2g9+8IPWkXJoBTp8MSiXGBzamT+ZkOOG8L6Zy9wR3neccD/96U8HK4VQiUEzE7r3VeVCJPBMvBtvvHHryIMQgMY+7dF6YP2Ky417oKioCO4RVgQ6oV2G6+fNmxd82cagwNwHP/jBcC0XANdIN3UQoLRiq27ZLAjZsqCceIF7C9LTgtWNokHJUaY6paQXuvpYY6LCp0hTFkBo5wf7yEc+El4av1YvWDPJtWJdbq80Kb81k57JJ1anRVsjbPIymKoWxpsMBDhZGlXnNMW90scazeGKoo16j4SN35nU2o/1ZSVNEe9dcNfE3qu/225mAqJRm+yGTupAWNKkWYcmpyookc7jlyb4i9qwD5X0bcoM5cjvAvWexS3zne98Z6lreqVjn3CiGT7WsCNVmV+sE8z+dqQbK5ijTLIyAcwvTxPzwQdNmCui02Bit9Cuolk86vCJ1k1wvUJ7ZHJzExFeNFLmPhNbTMdSvTJYY9qXP7QX9A1abC8rDzqtg0mNi6Es8GoMWidO6+Zf5uLg0ikTprRkrof4zYAxrE3EcGjEfNL9JgnhBjDRPvaxjwVXBZ8UjUwUlY+qCl+d6UjtXDV1cA0Qivn1xN3QtPxWdDAzqwQrbdQ6WmapdbBcFmUrKNzX/QVZPM+6V4OgzNRtCreRcneyHGq8Yi23D0IGBXcSocW3CkKEICNEaJIXXXRROF6E+c0l4D33gsla0LgXi6XTOhhnXAZlgtU4Ilx920CwCyZbQVWGHSNNHtGlwS2hvwuGWp44iMkzuSMGCBeCjt30y70izCb+Pj7qscC+wMw/Efiirw+i1tYj65QGB7+k4Exi2cEHKFYM8fdGAdgJvtbk0vKhzlgt4RMs5P4Qx+H6KkITNhZZlawQroa6/W7GmiSEBwh/kjWd/MOCaOMZWrvt/Ay8uXPnto4mJiLcTSwOAflRQJxD3ITSMqjg2SBJ7ogBwiXhM08m+XhH0IHp1cmnzYllE2a3VD+jgpUYAnKjKICRNOFEIpEYIkkTTiQSiSGShHAikUgMkeSOSCQGjCV7IvODwLKrftDrMshE9yQhnEgMEPuQWO5VtS51vNDNJ+6J/pCEcCIxQHbcccewrjot+0tUkXzCicSAsDTRRldJy0zUkYRwIjEgfGHoE/Cyrw8TiUgSwonEgLBnhq1LE4k6evIJ+15bzrmyLeHGM6Na7kETt560iYtPrcvo5/aUyzK2+bTZkc16Ij6vtamRT8RtIhNxXjwWtWY7gtlH2p7S9pyOG8dYaWFjm7J+aw8FGS1sfiNZQVw5Ee/l3vG5tnLkLnGefR58cZYYDkkTToxbTJb2hu11V69hYN+QYtYJGUtsiWhfXJvc+LFPA8FolzA7zcXjct35jNw2pvmdu+zmZT/iMuwk5vNzG6JLGOo+UnfZBApSIcX7+7tNbGxuPojtGRPNaSSEDQKDoerlj1dGtdyJ0WbPPffMvvrVr4b9liP22LVNov5oL9uIdD40YefmU4bZnW7RokWLN35imRxwwAFhTwd5Be1mR2jntyOVIdv2ovZ8jri/7UntkVvUngl5WVlGdc+FZYWkCSfGLQQPrW3UMmnYFF3yzTy2iGT6X3311a0jDyC5JleEPWyLQtIa4yiEZQ/nQtt8883D/rj2ZnYsClBCnhuieH/779oAnTadF/6QJolQT0J4uCQhnEj0EbkDacE0zDwEZzFjiX1ubY7Pd1vMWO04H27ck5cA9X/nEtoEdj7XmgwQNlIv5ioknK1T5nIo7u8rgWXM35YYHm0DcyeffHKYTfN4cfJjxQDXWWedFdJRx5Qj8e957Ksrd5MOAbNvk8BYDATl05nYIjIfOIrl4OPiAwNzToqVPN2UWyeWRDFv9hXPU7ddd901RMJpKrG9aBnFfG6d3I9ZybfoXHXmY4xBMelc4nNiW4rGCwhFXJ8PnnHL5P+O/DmxrZsG5giKfOaQ4nspe3fFupadE8vkPU2aNGmJNnQs/8wm/ah4Tb6c8fnS6BTffRF9xscXgl9VnHbaaWED8SZ+Vkl0Bd0EzmbNmlW70TjXg/NiIkpof3WvSiNEWNt43wQge3jT5AKu0wctsZOwVoZn7hL9u6jhjzeUnd9cEFQAE1IVzZw5s6MEBGPZBm01YR1TqhoCxeDYZpttluisBARBZqD4m074/4I9dPyIwW+3fjvfO2efffYJxwkjQqkK1x155JFBKLgu3p+5Z3LIIwurXf2lwNF4fGa9ltt9JBXU+PH57snss+F1vuwmF3WU3NB56iioojzxvE7uB2liLrnkknBeXrgRpPE5yk2jsSG77LWe6zhBQyvzTLg3we158dnFczpBri7Ee2ljgi7ffspPWMdzim2cF/r5+1ThOkI51kFdY9CpCv0kf03sP/lyNsGg1he5AQjPMrTlVVdd1TjQRahboUA4tMsQLAuxvkQY0JAJX77nujxuhG9M116VobgIgWNMUGb0vWnTpgWXkP5W1U+M4zlz5izOxF6FSeP0008Pn3B38iM3HAWjCTvvvHMopy8UlZsPXk66srJPmTIlpEmiHOYZZBuU0bM7wgs2O0RNRXZVAQYdzMD3QzjQgKLGRWtROR2kqnHjdUXtyv0Jc4M53yCEIB9ZO8060q7coNU6lhfeznddWdmVNV9Hm6I4jz8QndxPfZigZdlq820Zyy0qrk1j/WnN6kjwwnHPjfVFPCdqVp0g1X3+vSiP+hN4hCv8PZYTsazxefJ9QeeOOD9/TR7X0VhjHdRJrraqd65/6Ccmgvx7loQ1ltNxAyz/TooY2PLvmUBhUJYhu0Mnm+Lb1IfGJU17VR2K+PijLJllGTISc3lQRPSZdigLQe86fYkAdIxyo72q8vtZ8SHXoHdThwljr732WjzhNv2xksPKjiaYYK00iYk65Wi0HE+QswgfvTHGTRQZdBuU0bMQNusXkz0qEM2U458A8n9+sjyS8hEAZscy4nX5ARoxcPICBn53z6a0K7cBSkMte77rXF98fvFc9wPh0en9UKXllD2naf0JJoJI56LZcQNUvYM6yuqhvCaPKFxhQqPlR62GC0W2W8djebleouCuQz1d31SL1Z7atTiAy8pZh8+OJUo1ySxcuDAkmjRI89CCCcg6zTRP3h9cDJjVwec7f/781m/1aGP11G5NEqTSDLUZbZvwk+bdOmdC0IR9xhlntM5cklNOOSVMUMP+MpCwJHCNN2n7WUELFiwIk2aZq4cckU4/P6kNow0GHpjTIAY6Uz0OxLwAqMJ1OlBTmP60s35hgHby/HZ0ej9CNQrxfkDIMc2YXswmHYyJTksaFAYBX6egU9Rq8hqZQTB9+vTw7vQH/aJuOSHNOro9nFvmwsmjD3E7KUO+7xX94p0QB/NrX/va8G+EFcMV0RQWl6Vj1umyDgZBjBmY7JoIB2Y7P6r3xZ230047BQHGStDuwxay7VA+74e7Tz3Uf4899ggur6YMow0GLoQJEgOdLy4OxPxP3qTNE7W7YRE19X7R7/t1yu67777YR13m4ugXUSMnTLkCvPeqdwxmuCzP+gJNk4Cs03S5KpxrAmG10HiqtGh9SOAu+snzP9Ei6BSDnHbNPI2a9OTJk4NJ20l2Ya4Ig91qiab+2k5w/7g+uGm5aH80ySbKDK1zxowZYYIT4KZBtqNbnzDht+WWW7buUo7yiEEQkny5+++/f7CArKkmjPOTNZ8+rVW5acKujQy6DcoYuBCOJmfR1G5H3XUGHa2yzCTuF14CoVX2fK4SPtxOnt/v+/UD7VhnjdRRVg/H6iwSz+OSqYKwpinTYNtBi+ZLR5VbgWsg75PvFwJFEDnH1KlTg9nbCTQug9hE4aOJfuP+3D4UoOgfbYclboRWGXyrvvTjRgE/Od+rT54JrnXWWSccr8P76MYnbGK+/PLLW3cph+BlbfuXwFVnFp911pYL3n777eE8n3azYghOsQECOh9MG3QblNFICNcJkHYYLKLfTMi8qamhLPWpMiddJ6BSjLjTYPjfNGA7TaaXctPQOOZpc/mVGAQJHyYTsiqAVEa/79cpBnteIHmuiH+36Lz59+kdOSYYqa6eh3zb08bzQt+7tEQrEoV0vLaI/uKcSLx3nLCL0IRorUWfc/65jnPT5N9JO6JLYrvttgvxA58d6+NNMYjjwB+UK4K7w34RVl40fYb9Iwgt79HKCpgomOM0S0I0rnNWZz5S45dCVBb4GkviPhhkRgxy6t8+eLE8L7oRCOFrrrkm+MiNRe0Tz8cw2mD51r+1KKTBZUZiHtBW6qLJRWg4Bqzr8/44Zka+AYoQSgYkP6bnRlzXRGD1Wm5C3gDnU8o/v7hioyn9vl8nuD9BQ1vwQ0OyjIffqxsEh6xeie+T2cv1ECdG/9JoY9vDewMNLWLJV9O2ILz4jiPqkF9DXMT75+pQ77LrusXEbvAxf2lqTXzBTGBLIrlQmLs+VYb9hl/+8pcHjUoGDvXvBm1jpQjhgXj/pz71qUEjBG2yKrAEwod7R/849thjQyp571U7WoJ16623ts7MsgsuuCD8yxfunKba9qBgnfj6UH+z2gU04NmzZy+xrtdk6Yfg9B1Bse8Mow1SZo1Eogto7DbKuemmm5bQ5icaJjMTy3ve855xH7jLs8kmm2T77rtv9tnPfratRd2OXttg4D7hRGJZxHpQm+UUl15OJGiTgm2su1ESwIiJV5usn66jH22QhHAi0SXM/7L1pxMFPlVuj0Gs7hg0fOZcnU3WT9fRjzZIQjiRSHSFFRjoVZscawRFuZP6ocH3ow2SEE4kEo3x8cK8efPCvxtssEFYg8wvPt7x0Y41yqeeemq26aabhtUU3QZB+90GSQgnEonGWJ5lHa2PJyzX8jn3KGD5mlUtlmkSwlaJdJvSqd9tkFZHJBKJxBBJmnAikUgMkSSEE4lEYogkIZxIJBJDJAnhRCKRGCJJCCcSicQQSUI4kUgkhkgSwolEIjFEkhBOJBKJIdLTxxo28rYRhvTbdfsCjzdGtdyDxgbnMQV91Z6+8RybZw9yE/p+YhN3e1LbeLuXvZtt7r333nuH1EYyKcQ9Zm0MPp6RRsmG+vZ/ttE7fD0mM4l9jiUbPeaYY8LxxNiTNOHEuMVkKetFPitGp0QBfOmll4YN2HvZPH/77bcPG3jHLBp20IqbqI9XZIc4/vjjQ4Zou77Z8NzPZZddFjaZlxdtEOmVEs1pJIRjCpi6TLjjkVEtd6J/SIEk60FV9o2m0II33HDDsGfAzTffHDZtsY3lWOcF7ARlliFCSqkTTjhhiawQF110UUi1f/fdd4f6JIZH0oQT4xZaK62tVwHaD9Zee+2w/aF06nKUHXLIIWFXrvG8mTktd4011giablnGZWnd+7GnbqI3khBOJBogfxnfquSxMXPveMdet8os19/KK6/cOvogUuIvXLhw5LJiLGu0DcxJklj0e8WEmTHAJec+/1LMpFuWUDMfHMGdd97ZKDAWA0H5LL3F4EosB/NQymsIlkjkl6ebcktfIvhiP9JI8Tx1k9FXoGPzzTdf3F5liSg7uZ/EmFtssUU4V50ll4xBMWZ2fE5sS/7KYiLVfPAsJlvNkz8ntnXTwJy0LrJhR4rvpezdFetadk4sk/c0adKkJdrQsfwzq/pR2X29D/fdYYcdwu9N+t/06dOzjTbaKFt++eVDUEuGXUJLFmfBrDINc7yQH3PGA4FLi/ee6oKJtOdddtklpHBXb4G7G2+8MTvppJPGfRByFGmrCRswhx9+eOjABofgRn4QERAEmYHibzLuClgYLBGDn28qBkf22WefcJwwIpSqcJ0suYSC6+L9119//TA55JFoT9R6v/32C51PFuFey+0+Oh4TND7fPZmlZ5555hJl19HVkY/QeeooAq088bxO7gfZfKXJd15euBGk8TnKbY/Uo48+OkS/PddxA23bbbcNz4R7E9yeF59dPKcTNttss/BvvJc2Jhzz7af8hHU8p9jGeaGfv08VriOUYx3U9Y477mj9dUkIba4MddQHXOP3Tk1vmXddR4DxLXtPft9zzz2XEsAxceR6663XOlLNuuuum51//vkh03QnP64RZGuCLNDRD0wTNplI237OOeeE9ijTjr0zWYal7DnggANCMNI4JZglxyzSSZ0T5fTsjtAxaYBRU5G59LbbbguapoHvh3CgAUWNi/ZBuBAetLcy4nVF7cr9CXODOS88CEER33aaTaRduUGrdSwvvJ3vurKyK2u+jtLtOy920E7upz4CJ2WZYPNtGcu9wgorhDaN9ac1qyPBC8c9N9YX8Rzmaqcwy/PvRXnUn5AkXOHvsZyIZY3PW3311cO/+eCW8/PX5HGdBJuxDuok4t/0ncO50uD7aXqdCduzacF110ixTmPMB8CqkIlhxx13XDz5NP1xTdNAGq31sMMOC0KSX/i+++4LxwXsJk+eHO6VZ8qUKUED5ic+7rjjQvp3dfdc2r/+WKSTOifK6VkIM8tuuOGG1m8P4CXSTFddddUggPy/mJVWficCgElbRryuLPpsEOYFDPzunk1pV26ChIZa9nzXub74/OK57gcDuNP7wa79ZZQ9p2n9TVyEIa2KlcFcr3oHdZTVQ3lNHlG4woRGe4yaHBfKiiuuGI7H8nK9RMFdh3q6Pq9tjwXah9ZIqFW9ExB2Rx111Lgy2e+5555s7ty5QWPdbrvtQtsRrgSxYGOerbfeOltppZVC/2exXXjhhcES8E5ZjGWul/FY51Fj4IE5AshAZ6rHgZgXAFW4zstvCtOfdtYvCJJOnt+OTu9HqEYh3g8IOcv1+AjnzJkTtBsmKVN9UHAZzZo1K0ThoyZHi4+YTPlcvTv9Qb+oW05Is45uD+eWuXAGgcSQ/MEEDR/0eIcg5ULgnity3XXXBRcRzdbytIg6+qEts8x22223bNq0aWGCJICTpjs4Bi6ECRIDnT8wDsT8T96kzRO1u2ERNfV+0e/7dYovpqKPuszF0S+iRk6Ychl571XvGNE9oC9wZ/B312m6XBXONYGwWmhqTbToXohCmCulDOWXQPLcc88N2mYT+HW79QnzJ9ex5pprhraXC60M/l7k07TTjJdbbrmwDrpO2490U+dEOQMXwtHkLJra7ai7zqCjVZaZxP2CVk1olT2fq4QPt5Pn9/t+/UA71lkjdZTVw7E6i8TzuGSqIKxpyqygdkRfOvLuj0GgzHFyKSLZI3cF36uAK594E/h1u/UJt8vsy81AG+bPLcKtIkPwokWLsvnz57eOPuCey2vGeQhon2tzV6DbOifKaSSE6wRIOwwW0W8mZN7UZEbyJVWZk65jNhUj7nyaIvrXX399W42ul3LT0AS6aBT5lRgECRONVlQVQCqj3/frFJZFPkjouVtttVX4fzfwzebfp3fkmGCkukZXSr7taeN5oe9dHnzwwa3fHhTSVW4Y/cU5kXjvMuFYRfRRN3VlEGarrbZaCMqVmeSWcOmnJgICbjysIV5rrbXC+mDLNfMCUj0OOuig0A98aMI3HKE1L1iwIGj8VlFErIo44ogjgmCPwn881nmUaSSEDSqDyyBjEhWXh7Uj+vKYmtGs4ivUqd27CkKJOWtJWrwuLnWrM3EjvZabkOdbIxji8+OSufwKh6b0+36doL0I+uibtzRMwKZbnzAtyuqVWA/vyLuKE4m6ek/Rf+uHpp/3CWPjjTde/PfYFlXvlkCMvmM/BEx+DfEgMGnWBeWsyPF8fQy33HJL+HdYcJ1w08yePTsI1UMPPTTEAvyceOKJQSmZMWNGdu2117aueBCuhXnz5oX3evHFF4fAnLXU3smBBx64eLIbb3UedVLK+0SiButmafyETt3Ez9dOS2/yAciywkSs8yAYuE84kRg1bO943nnnBZOdOQ5fmlXBZ2q3srvuumvCCKOJWOdBkYRwIlGAr3mVVVbJ7r///rD/AnP7iiuuaP11aQgjftayjxmWVSZinQdFEsKJRAGuB+uBrdKwntaHC3Wb3BDUVutULWFbFpmIdR4UySecSHTB1KlTw1doV155ZQi00pwt2apam7ssMBHrPBYkTTiR6AKC59577w17MFiyNXPmzGVeGE3EOo8FSRNOJBKJIZI04UQikRgiSQgnEonEEElCOJFIJIZGlv0fRl2vmOEbz0oAAAAASUVORK5CYII=;" parent="IuaTcRtPijXqOsnX0eB4-1" vertex="1">
          <mxGeometry x="743.5" y="1820" width="353" height="92" as="geometry" />
        </mxCell>
        <mxCell id="aK0aah2MI1z-rDvGibRR-47" style="edgeStyle=orthogonalEdgeStyle;rounded=0;orthogonalLoop=1;jettySize=auto;html=1;exitX=1;exitY=0.5;exitDx=0;exitDy=0;" parent="IuaTcRtPijXqOsnX0eB4-1" source="aK0aah2MI1z-rDvGibRR-49" target="aK0aah2MI1z-rDvGibRR-51" edge="1">
          <mxGeometry relative="1" as="geometry" />
        </mxCell>
        <mxCell id="aK0aah2MI1z-rDvGibRR-48" style="edgeStyle=orthogonalEdgeStyle;rounded=0;orthogonalLoop=1;jettySize=auto;html=1;exitX=0.5;exitY=0;exitDx=0;exitDy=0;entryX=0;entryY=0.5;entryDx=0;entryDy=0;" parent="IuaTcRtPijXqOsnX0eB4-1" source="aK0aah2MI1z-rDvGibRR-49" target="aK0aah2MI1z-rDvGibRR-50" edge="1">
          <mxGeometry relative="1" as="geometry" />
        </mxCell>
        <mxCell id="aK0aah2MI1z-rDvGibRR-49" value="Over R, normal = block diagonal matrix such that each block is 1-by-1 or 2-by-2 of the form&lt;br&gt;(a&amp;nbsp; &amp;nbsp; -b)&lt;br&gt;(b&amp;nbsp; &amp;nbsp; &amp;nbsp;a)" style="rounded=1;whiteSpace=wrap;html=1;fillColor=#E6E6E6;" parent="IuaTcRtPijXqOsnX0eB4-1" vertex="1">
          <mxGeometry x="1647.45" y="1380" width="120" height="100" as="geometry" />
        </mxCell>
        <mxCell id="aK0aah2MI1z-rDvGibRR-50" value="&lt;span&gt;Complexification: every operator on a finite-dimensional, nonzero vector space has an invariant subspace of dimension 1 or 2.&lt;/span&gt;" style="rounded=0;whiteSpace=wrap;html=1;" parent="IuaTcRtPijXqOsnX0eB4-1" vertex="1">
          <mxGeometry x="1817.45" y="1320" width="242.55" height="60" as="geometry" />
        </mxCell>
        <mxCell id="aK0aah2MI1z-rDvGibRR-51" value="&lt;span&gt;Inner product space: if U is an invariant subspace under T,&lt;br&gt;1) orthogonal complement of U is invariant under T;&amp;nbsp;&lt;br&gt;2) U is invariant under T*.&lt;br&gt;&lt;/span&gt;" style="rounded=0;whiteSpace=wrap;html=1;fillColor=#E6E6E6;" parent="IuaTcRtPijXqOsnX0eB4-1" vertex="1">
          <mxGeometry x="1817.45" y="1386.25" width="242.55" height="87.5" as="geometry" />
        </mxCell>
        <mxCell id="aK0aah2MI1z-rDvGibRR-52" value="Over R, a block diagonal matrix such that each block is 1-by-1 or 2-by-2 of the form&lt;br&gt;(cos&amp;nbsp; &amp;nbsp;-sin)&lt;br&gt;(sin&amp;nbsp; &amp;nbsp; cos)" style="rounded=1;whiteSpace=wrap;html=1;fillColor=#E6E6E6;" parent="IuaTcRtPijXqOsnX0eB4-1" vertex="1">
          <mxGeometry x="1647.4499999999998" y="1540" width="120" height="100" as="geometry" />
        </mxCell>
        <mxCell id="aK0aah2MI1z-rDvGibRR-69" value="diagonalizable" style="ellipse;whiteSpace=wrap;html=1;fillColor=#d5e8d4;strokeColor=#82b366;" parent="IuaTcRtPijXqOsnX0eB4-1" vertex="1">
          <mxGeometry x="274.95" y="30" width="120" height="80" as="geometry" />
        </mxCell>
        <mxCell id="aK0aah2MI1z-rDvGibRR-79" style="edgeStyle=orthogonalEdgeStyle;rounded=0;orthogonalLoop=1;jettySize=auto;html=1;exitX=0;exitY=0.5;exitDx=0;exitDy=0;entryX=1;entryY=0.5;entryDx=0;entryDy=0;startArrow=none;" parent="IuaTcRtPijXqOsnX0eB4-1" source="aK0aah2MI1z-rDvGibRR-86" target="aK0aah2MI1z-rDvGibRR-82" edge="1">
          <mxGeometry relative="1" as="geometry">
            <mxPoint x="1935" y="929.9" as="targetPoint" />
            <mxPoint x="1990" y="844.9" as="sourcePoint" />
            <Array as="points">
              <mxPoint x="1450" y="709.9" />
              <mxPoint x="1450" y="709.9" />
            </Array>
          </mxGeometry>
        </mxCell>
        <mxCell id="aK0aah2MI1z-rDvGibRR-80" value="is a" style="edgeLabel;html=1;align=center;verticalAlign=middle;resizable=0;points=[];" parent="aK0aah2MI1z-rDvGibRR-79" vertex="1" connectable="0">
          <mxGeometry x="0.2718" y="5" relative="1" as="geometry">
            <mxPoint x="14" y="-5" as="offset" />
          </mxGeometry>
        </mxCell>
        <mxCell id="aK0aah2MI1z-rDvGibRR-82" value="Real vector space" style="ellipse;whiteSpace=wrap;html=1;strokeColor=#000000;" parent="IuaTcRtPijXqOsnX0eB4-1" vertex="1">
          <mxGeometry x="1270" y="669.9" width="120" height="80" as="geometry" />
        </mxCell>
        <mxCell id="aK0aah2MI1z-rDvGibRR-84" style="edgeStyle=orthogonalEdgeStyle;rounded=0;orthogonalLoop=1;jettySize=auto;html=1;exitX=0.5;exitY=0;exitDx=0;exitDy=0;entryX=0.5;entryY=0;entryDx=0;entryDy=0;" parent="IuaTcRtPijXqOsnX0eB4-1" source="aK0aah2MI1z-rDvGibRR-86" target="aK0aah2MI1z-rDvGibRR-82" edge="1">
          <mxGeometry relative="1" as="geometry" />
        </mxCell>
        <mxCell id="aK0aah2MI1z-rDvGibRR-85" value="On a vector space" style="edgeLabel;html=1;align=center;verticalAlign=middle;resizable=0;points=[];" parent="aK0aah2MI1z-rDvGibRR-84" vertex="1" connectable="0">
          <mxGeometry x="0.181" y="1" relative="1" as="geometry">
            <mxPoint x="14" as="offset" />
          </mxGeometry>
        </mxCell>
        <mxCell id="aK0aah2MI1z-rDvGibRR-86" value="linear map" style="ellipse;whiteSpace=wrap;html=1;" parent="IuaTcRtPijXqOsnX0eB4-1" vertex="1">
          <mxGeometry x="1490" y="669.9" width="120" height="80" as="geometry" />
        </mxCell>
        <mxCell id="aK0aah2MI1z-rDvGibRR-88" style="edgeStyle=orthogonalEdgeStyle;rounded=0;orthogonalLoop=1;jettySize=auto;html=1;exitX=0.5;exitY=0;exitDx=0;exitDy=0;entryX=0.5;entryY=1;entryDx=0;entryDy=0;" parent="IuaTcRtPijXqOsnX0eB4-1" source="aK0aah2MI1z-rDvGibRR-87" target="aK0aah2MI1z-rDvGibRR-86" edge="1">
          <mxGeometry relative="1" as="geometry" />
        </mxCell>
        <mxCell id="weRdoKOzOpDn8pe9hfM9-9" style="edgeStyle=orthogonalEdgeStyle;rounded=0;orthogonalLoop=1;jettySize=auto;html=1;strokeColor=default;endArrow=none;endFill=0;dashed=1;" parent="IuaTcRtPijXqOsnX0eB4-1" source="aK0aah2MI1z-rDvGibRR-87" target="weRdoKOzOpDn8pe9hfM9-7" edge="1">
          <mxGeometry relative="1" as="geometry" />
        </mxCell>
        <mxCell id="aK0aah2MI1z-rDvGibRR-87" value="operator" style="ellipse;whiteSpace=wrap;html=1;sketch=0;strokeWidth=1;" parent="IuaTcRtPijXqOsnX0eB4-1" vertex="1">
          <mxGeometry x="1490" y="1205" width="120" height="80" as="geometry" />
        </mxCell>
        <mxCell id="weRdoKOzOpDn8pe9hfM9-12" style="edgeStyle=orthogonalEdgeStyle;rounded=0;orthogonalLoop=1;jettySize=auto;html=1;exitX=1;exitY=0.5;exitDx=0;exitDy=0;entryX=0;entryY=0.5;entryDx=0;entryDy=0;endArrow=classic;endFill=1;strokeColor=default;" parent="IuaTcRtPijXqOsnX0eB4-1" source="weRdoKOzOpDn8pe9hfM9-7" target="weRdoKOzOpDn8pe9hfM9-8" edge="1">
          <mxGeometry relative="1" as="geometry" />
        </mxCell>
        <mxCell id="weRdoKOzOpDn8pe9hfM9-7" value="Over R, there is a basis that is a Real Jordan basis of T." style="rounded=1;whiteSpace=wrap;html=1;" parent="IuaTcRtPijXqOsnX0eB4-1" vertex="1">
          <mxGeometry x="1647.45" y="1215" width="120" height="60" as="geometry" />
        </mxCell>
        <mxCell id="weRdoKOzOpDn8pe9hfM9-8" value="if Tc(u+iv) = (a+bi)(u+iv), then span(u,v) is a subspace of V." style="rounded=0;whiteSpace=wrap;html=1;" parent="IuaTcRtPijXqOsnX0eB4-1" vertex="1">
          <mxGeometry x="1817.45" y="1223.5" width="210" height="43" as="geometry" />
        </mxCell>
        <mxCell id="vuEfzPaLM79mjF0In50A-7" value="" style="shape=image;verticalLabelPosition=bottom;labelBackgroundColor=default;verticalAlign=top;aspect=fixed;imageAspect=0;image=data:image/png,iVBORw0KGgoAAAANSUhEUgAAAaEAAAFlCAYAAABC0VdgAAAAAXNSR0IArs4c6QAAAARnQU1BAACxjwv8YQUAAAAJcEhZcwAAEnQAABJ0Ad5mH3gAAC2SSURBVHhe7d0HmJTV2cbxh4A06aAsiIKggEgTFlBAaSoGUYOIJYJiiBpEEj9BgiGJUpKICqhRFI0iKs2IBoJgiQgKShNFqUqvgvTeEr/ch/fd7LKIM7Mz8075/65rrt09s7C4wtx7znnOc/J9/18GAEAAfuK9BQAg7gghAEBgCCEAQGAIIQBAYAghAEBgCCEAQGAIIQBAYAghAEBgCCEAQGAIIQBAYAghAEBgCCEAQGAIIQBAYAghAEBgYhJC//73v+3w4cP2n//8xxsBACSLY8eOudfweNz0E/UQOnr0qI0ePdoefPBB+/bbb71RAECyeO+996xbt262cuVKbyR2oh5CH330kY0cOdKaNWtm5cuX90YBAMlCr98FCxa04cOH244dO7zR2IhqCK1fv9769etnDRs2tLZt21r+/Pm9ZwAAyaJEiRJ2xx132JdffmlTp051y3OxErXrvY8cOWKdO3e2L774wqZNm2aVKlXynslJz61evdr7CInmtNNOszZt2thZZ53ljQBIR9oTevzxx+2NN95wj2rVqnnPRFdUQki/xYsvvmj333+/jRgxwm655RbvmdwmTJjgZknFihXzRpBIZs2aZRkZGTH7CwcgeWhP6LbbbnNbKwqin/wk+rVsUfkdly9fbn/729+sSZMmdvPNN3ujAIBkph9Gu3TpYu+//7699dZb3mh05TmE9u/fb2PHjrUNGzbY7373O8uXL5/3DAAg2d14441Wp04dGzBggK1Zs8YbjZ48h9CyZctcQrZu3doyMzO9UQBAKihTpoz16tUra8VLx3CiKU8hdOjQIZs0aZJt3rzZOnXqZKeffrr3DAAgVbRv395q165tb7/9tis+i6Y8hdCuXbvslVdesUsuucTq1asXk00rUQcGui8AQDAKFSrkZkNLly51B1n1mhwteUqNcePG2datW+2yyy6LWUnv3r177YknnnBht2nTpri0kQiHwnHnzp3eRwCQmi6//HI799xzXQh988033mjeRRxC+/bts+eee879oS699NKYHUzVEl+jRo3smWeesUceecQOHDjgPRO87du3u/0wlaVHe50UABJJ8eLFrUOHDjZ//nz79NNPo3aANeIQevfdd23FihV24YUXusqJWNESX4MGDVwbCc28Nm7c6D0TDM3EZs6caY8++qirCtQMbcaMGVGdngJAotGSXIsWLdzEQD98qzI6GiIKIb0QP/vss1a4cGFr1aqVFS1a1HsmNvQf3bhxYxdIkydP9kaDoRJ0Be8NN9xg119/vVWoUMF7BgBSl177dG5I+/8ffvihK0iLhohC6KuvvnIVEgqfK6+80huNHf3Ha0mucuXKNmrUqMD3hUqXLm1Vq1a1ihUrujY3AJAOzj77bLcypVnQm2++6Y3mTdghpACYMmWK+0Ocf/75bk8oHpTA9evXtyVLltiCBQu8UQBAvGhJTqXa5cqVszFjxrieoXkVdgjt2bPH7Ymoud1VV10Vtw4JWopr166dm31pNgQAiL8aNWq4XnLRmhCEHUKqE1frBs2IFELx5JeCv/POO/bdd995owCAeNEKmLYilAETJ070RiMXdghpP0gVatqQ1wZVPGkv5tprr7UtW7bY9OnTvdHc9M3RHRiqXgMARE+pUqWsVq1abj88GncNhRVCBw8edFMwdUpQVZxu3osn/cdu27bN7UdpX+rEAgVdJ66DrXfffbf16NGDe4sAIMq0BaNqZVVHq3G1+ofmRVghpBnI119/7d6/+OKL3dt40RWzOqzasmVLd2Zo8eLFrqFedpop6e4LXUlbs2ZNbxQAEE1169Z1RQoqTNDtq3kRVgipRY/frkGVavGi/Z/nn3/enRfq2LGjde3a1dauXWtz587NMRvSN0UdXwsUKOCNAACiTVXRej1WgVrcQkgv9lruWr9+vZUsWTJupdlqD6SWPWqRc9NNN1mRIkXctRGaCs6bN8/1lgMAxI+qlM877zzXrkwrUrpRIVIhh5C+mJbi9MV0ZkdhEGsKPl2kpIOxd955Z1Z3grJly7plOYXQunXr3BgAIH60GuZPTvLSTi3kENLan8qzRSV6sS5K0H9c37597dVXX7WBAwda9erVs84kKYV1ZkjTQC0PZl+SAwDEnr8lo1UqbY9EKqyZkBqWSpUqVWK676Lqt4ceeiirQeiJDVJ1cFUHpvRQI9V4d9bW11PfJM3C9BOADvDqe6OxaDX1A4BEps4Jsnv37jz1kQsrhPySZy2LxTKE9OKur6UZ0BVXXOGN5qQ9Kd3mqhJB7RvF06pVq9yNsmpbofuEMjIybPz48a6zrF89CACpTL08tTqlfXlVTkcq5BDSC73W/vRF1bIhVvcHiQJGM6Gf//zn3khuKo7QPtHDDz9sxYoV80bjQ998XXfbuXNne/rpp+3JJ590Z5N0kFb7ZQCQ6nRotUSJEq5OQCGkSrlIhBxCmm5pNqSCBH3xWF3lLap8U+XFj3WoPuOMMywzM9OVCsaTLndS+6BKlSrleuh/CgCkOk1I1FVbe/J+E4FIhJwkKs0WHQiN94s+ACDxnHPOOe7tzp07I96bDzmENm3a5N5qFhTrS+wipZma39VBFRtqtKqH3ufmUwCIrriGkPaDRLMgdSZIRNq3UheF999/32688UZXPaeO22q6Gul6JQDg5M4880z3Vv1EYx5CfvWD9oQS9TZRLRVec801rnlpr1693ONXv/qVO9iaqLM3AEhWWhkTHVOJtGtCRCEU7+7ZAIDEoyplUVFCzKvjVP0giTwTAgDEjz8T0lJcpFd9hxxCOhUrzIQAAOLPhHTXXNxCSGd4uCoBAOCHkC4c1Wwokj6eIYeQNp5EARTLbgkAgOSglTGf9oRiFkL6jf2plgLI72adLtQbiXuLACCn7PUBOqcZsxDK/psrhGLZsicRffbZZ+5K8V/84hfumvFEo/VYPQAgnuIaQj4FULqFkM4ZPfvsszZu3Djr37+/W/8MmpZHdYB4wYIFrtHr5MmTvWcAID5ODKFIhB1C6bgcJ5dcconrwDB79mx3lUPQpk2bZq+//roLRgVRpJUpABCp7JOSmM6ERFVxKs3W23QsTNA3+vbbb3f3HKk1UNAaNGjgZkD6M/mtMwAgnvS6qFZuygYFUMxCSL+xUk5NQNO5EahaAmkWOG/evMALFdQ4sFy5clQqAgiULvb0cyGSVbKQQ8gPIH3BSNIuFej+ohYtWrgQ0u2vAJDOsmdDpLkQ8nIcjncQv+qqq2zRokXuuoh0DWMAiBZCKAxa+qpbt667VVWFAacqi1ZAqb05pdMA8MMIoTBVqFDBatWq5e4p8lsZZadpqTqOv/vuuzZ06NCEqKQDgERFCIVBAfPll1+6GY66in/66afeM/+j56dMmWIbN260hQsXZrU7AgDkRgiFQZ0TdC7nvvvuc9Vpr732mvfM/2i57tZbb7XMzExXzg4A+GGEUAjUIWHWrFnuptbevXtb27Zt7YILLrCpU6dmXXvu076RaubTrasEAESCV8ofoU4E2t958MEHbcCAAVanTh0XMldeeaXrKK6ZEQAgMoTQKeiArgLoiSeesO7du1urVq28Z8yuuOIKK126tI0fP54KOACIECH0A3Qod8aMGfboo4+6TgkdOnTwnjmuUqVKrrGpzgupd1tQOKsEIJkRQj9A4aLZT6NGjVx/thOLDNSeQuP79u2ziRMneqPxozLwFStW2PTp023z5s1uf2rJkiW2YcMGd8MhACQDQugH7Ny50+373H///VlX2J5Iy3O//OUvbfv27bkKFGJN55RGjhzpQkdhWLlyZRs9erR7qMkqACSDfN+HsJ6jQ5nq1KxPVYWY7tTR5nwkJkyY4KrLihUr5o2kpq+++soGDRrkyrl1DUSyUBVgRkaGVatWzRsBgJPTD9/Vq1e3Q4cO2WOPPWb33HNPjjuGQhHSTEhLT/69EXqk431CAIDc8poLIYWQzsko6Q4fPuxKlrVpj1PTrDEvnWUBINHp9U25oEekN06zJxRlKmhQRd3gwYPtgw8+sCFDhthf/vIXmzNnjvcZAAAfIRRlKt2++eabXfCod9ywYcNcG5+aNWt6nwEA8BFCUVa0aFHXV+7Exw9V2AFAOiOEAACBIYQAAIEhhAAAgSGEAACBIYQAAIEhhJKADoHNnj3bXSuxY8cObxQAkh8hlATUEkO9+saMGWN9+vSxvXv3es8AQHIjhJKAQqh+/fpWr149e+ONN9w9RwCQCkIKITWmy/5A/CmImjRpYhUrVrRRo0bRkw5AQshrNoQUQmrNreWgAgUKuLd6QUT8aSak9j+6S0iX2gFAkBQ8fjbkz5/fGw1PSGmiztnqknr06FH3li7awdAdTLpSXN9/LcsBQJD8LtrKBt0aEAmmNEnm6quvtuLFi7siBf1wAACJINItAkIoyZx77rnWrFkzd2XEggULvFEASE6EUJLRflyXLl1s//79NnXq1FP+9KFp8po1a7yPACDxEEJJSHe6K4xmzZpl27Zt80aP08HW9evX25dffmmvvvqq/exnP/OeAYDEQwglmWXLltnLL79s1113na1atco+++wz75njtDm4detWW7lypaug27dvn/cMACQeQiiJLF++3IYPH25t2rSx3r17286dO23u3Lk5ChQKFSpkDRs2tA4dOliNGjW8UQBITIRQkli3bp09/vjjlpmZaa1bt3YFChdddJHNmzfPNm/e7H0WACQXQigJfPfddzZw4EArV66cm+Ho8PDpp59u7dq1cxVyq1ev9j4TAJILIZTgNMvp27ev29vp0aOHOyMkOqWsNj46sawO25wZApCMCKEEpuICBdCKFSvsD3/4g1WqVMl75rgqVaq45bkpU6a4km0ASDaEUIJSqfVTTz3lltueeOIJq1WrlvfM/2RkZFjz5s1dxdycOXO8UQBIHoRQglIzwE6dOtn48ePdNQ4no72hrl272ogRI6xs2bLeKAAkj5BCqHDhwu5wpPYf9MIXabdUhE7fa81yNAM6VYt0v1ihUaNG3ggAxIdem/xbFU71OnUqIYWQ3zlbLWLy0i0VAJA6lAl5vVUhpBCKtDsqgqFKuV27dtnatWvdDxBq46PCBa7gABArdNGGo5mqWvm8/vrrrry7adOm9uabb9rkyZNz9ZkDgKARQilGNxzWrVvXOnbsaA8++KBr89O5c2dr27atlSlTxvssAEgMhFCK0eaguimoWi77o1SpUi6gACCREEIAgMAQQgCAwBBCAIDAEEIAgMDk+z6E4u4dO3ZktYXRZWqDBg1yl6dFYuLEiW6TXF2gkXjULLVx48ZciAfgR+kYSNWqVe3QoUM2ZMgQ69mzp+uqE464h5Cunta105EebEJs6YeDc845x4oWLeqNAMDJJWUIAQBSQzRCiD0hAEBgQgqh7Ps36qDtd00FAKQ3v3t2TLtoZ++a7XfTBgAgr3kQdgjpCxJCAIDsIs0F1tUAAIEhhAAAgSGEAACBIYQAAIHhsCoiohtcdXU4Tk7HGmhNhVRHxwQEZsmSJfbtt99a4cKFvRH4dIxB/xCbNGnijQCpiRBCYGbMmGFFihRxfeaQ05EjR2zatGnWtWtXbwRITYQQAjNr1izLyMiwatWqeSPw6R/k2LFj7Y477vBGgNRE7zgAQFIjhAAAgSGEAACBCSmE1Dnbpw7akXZLRXoLYfsRQJKKaRft7Fc36AsRQgjXgQMH7L777rN7773Xli1b5o0mlmPHjnnvAYiXkEJIBxN96qitcxBAOHRd+EMPPWTz58+33/3ud7ZhwwbvmWBpdqbHp59+ai1atPBGAYQr0pUO9oQQN8WKFbOOHTu68u7FixcHujynr71mzRobNWqU/eEPf7Du3bvb1q1bvWcBxAshhLhRG5uLL77YvZ05c2bgbX/056hZs6b95je/sUsvvdQbBRBPhBDiqkqVKpaZmWlTpkyx/fv3e6Pxp33NihUrulA844wz2OcEAkIIIa4qVKhgjRs3tm+++cYWLVrkjQJIV4QQ4qpAgQIuhMqXL29jxozxRgGkK0IIcdewYUM7//zzbcKECbZnzx5vNCcVDmi57rvvvrNdu3ZRkQmkKEIIcVeqVCk3G9q3b59NnjzZG/0fHQNYunSpffzxx64b9bhx42z06NHu6ggAqYUQQtxt2bLFnT1TJ45XX3011yxn9erVbr9IRQw6u1O/fn1755137NFHH7Vt27Z5nwUgFRBCiKudO3e6szm1atWyZs2a2eeff+5mPdmpcq5NmzaufFrXRaiC7YEHHrB3333Xpk+f7n0WgFRACCFudC7ob3/7m9sHuu6669ylb3pfs5zsxo8f7z4vO12eV7x4cVu+fLk3AiAVEEKIC+3/PP30027mc88997juCddee61r56N9n71793qfaVa3bt1c53ZUqKCHDpgCSB0hhVD2FwQO9SFcWoIbNmyYvf32265vnA6Jit/GZ9WqVS6cfM8++6z16dPH++g49ZrTtdn16tXzRgAkkkizIaQQ0tkOnzpqZ++qDZyKroZ/8sknbdKkSa6woHbt2t4zx916662u6m3evHmuKu5kNAN64YUXrFWrVm5/KFb0dQCEJ68Tk5DSJHuLe1Uy8Y8VodB+zzPPPGNvvPGGDR482J0POpEKFHRmaPbs2T9Ygj127Fh3VkjFCSVKlPBGo0N/l1Vx9/XXX7slQ3Vy+KEwBJCbnweR5kJIIZT9N9f7kX4xpJdNmza5cOnbt69ddtllJ/2JqWTJknbHHXe4hqYnVsmJrlhQVZwKFdTyJ5rmzJlj7dq1sy5durjg0SytZ8+e1r59exs5cqRb/gMQW/n+Gyg/mihaUilbtqx7v3fv3jZo0CArVKiQ+xjpSdcxqHy6WrVq3sjJaeas8PmxKbte8HVuyL/FV79Os5J//vOf1q1bNytdurQb0yP78nAiOnTokJu9KVyBVLZ582arWrWq+zs/ZMgQ90Pcaaed5j0bGjZ3EFOhXgevqjc/gPRz0caNG23BggV2ww03uAASLZvpDiAAqYMQQsLZvXu3zZgxw82yVEG3fft210NO14KvXbvW+ywAqYAQQsL5/e9/n3Xb6VVXXWVt27Z1b/v375/jqnkAyY8QQsK5/vrrXVXdwIEDbcCAAe6h9x966CHX+BRA6iCEkHBat27tqtZOfKjCrkyZMt5nAUgFhBAAIDCEEAAgMIQQACAwhBAAIDCEEAAgMCGF0IldtPPaNRUIghqkLly40F0tASA6/DyINBdCCiEaliIVqL/V3//+d3dXkbovAMg7Px8izYmQQih7a3uuckCyqly5suu+8NZbb9nDDz/M32MgAbAnhLSh5YJmzZpZjRo17MMPP7Tly5d7zwAICiGEtKI9Td0fpAvspk6d6o0CCAohhLTTsWNHdx/W9OnT3e2vAIJDCCHtnHHGGa4rty7N+/LLL71RAEEghJCWunbtauvXr7e5c+e6YhsAwSCEkJYuuugiq1Klis2bN8+2bt3qjeamCjqVdgOIDUIIaalIkSLWtGlTmz9/vq1evdob/R8daB0xYoT98Y9/tAcffNA6depkL730EntIQJQRQkg7mt3MmTPHduzY4cLmiy++sGPHjnnPmquce/vtt+3KK690l+kNHTrU+vbtay+//LI999xz3mcBiAZCCGlFATRp0iR78803rVu3bla/fn1Xqr1//37vM8yWLl3qQql8+fLuY50vatCggTvo+te//tV27drlxgHkHSGEtKEAmjBhgr344ovWo0cPa9mypbsufNasWbZ582bvs8w2bdpkzz//fI7DrAqi6tWru+U4PQ8gOgghpAUFkJbYNJMZMGCA1apVywoXLmyNGjWyokWL2sSJE73PNLdXpOW3888/3xs5TjMg/T7+DAlA3oUUQn7nbD3ooo1koxLsjz76yO3tdO/e3erUqeM9Y5aZmWlVq1a11157LWtfSOeIrr32WitWrJj7WI4cOWIzZ860Dh06WNmyZb1RAH42RJoLIYVQ/vz5rWDBgu5Kh9NOO40QQlJRAPXv39/atGlj7dq1c3+ffZUqVXKzoa+//tqVa5+MQky95g4cOOBmSACOUxYoE5QNmqBEIqRfdfToUTt8+HDWWw73IVmoyKBXr15uP0eFCCVKlPCeOU7/iNq3b2/Fixd3JdnZO8b71qxZY5988ondeeeduZbogHSm5WmtEigbTvZvJxTsCSGlaQavpbV+/fpZRkaGN5pTkyZN3D6RZkXZq+RE5dr/+Mc/rHnz5taiRYscFzwCyDtCCClN+z1aQjv77LO9kdx0cFWznN///vduRpSdZkcqz27VqpVreqpVgEh/4gOQGyGElKblNoXHj9G6tqrl/P1OLTGMHz/eateu7Uq5/RmQzhRt3LjRvQ8g7wgh4AQHDx5054k2bNjgZkbaD9JDBQ4ffPCBW7YDEB2EEHCClStXujNFqoh75JFHsh5//vOfbcuWLRFXAQHIjX9NwAnOOuss++1vf+uKFR5++OGsh0JIbwFEDyEEnKB06dLuQKsKEk58UKINRBchBAAIDCEEAAgMIQQACAwhBAAITL7v1fznR+gGSr9zcO/evW3QoEEhHQBE6tIdPDrceapOBOlK/RXfe+8916sOSGW6h0tdSQ4dOmRDhgyxnj17uoPf4QgphNQ9WH231K7kgQcecO1N6KGV3latWmVfffWVa1yI3FRdV6NGDe8jIDXp3Jy6iigjBg8ebHfffXdsQoiZEADgRNGYCbEnBAAIDCEEAAgMIQQACAwhBAAIDCEEAAgMIQQACAwhBAAIDCEEAAgMIQQACAwhBAAIDCEEAAgMIQQACExIIaSW/SVKlLDixYtbsWLFLH/+/N4zAIB09ZOf/CQrGwoWLOiNhiekEFKH1D179tjevXtt37597koHAEB6+89//pOVDUeOHPFGw8NyHAAgMNwnBCS45cuX2+7du72P4kOrHbqUr0yZMt4IkBv3CQFpQDfY6h+21t3j9dCLy/bt270/ARA7zISABDdhwgRr27atKwqKl1mzZrkr/atVq+aNALkxEwLSnH6GPHz4sB08eNBtEgPJhhACkpgCaMSIEXb77bfb3//+dzt69Kj3DJAcCCEgiekMnwKofPny1rdvX1u5cqX3DJAcCCEgyZUsWdKaNWvm1uUnTpzojQLJgRACUkDjxo2tSpUq9vLLL7t9IiBZEEJAClCFUoMGDWzFihU2Z84cbxRIfIQQkCLatWtnp59+uo0aNYrZEJIGIQSkiObNm9vZZ59t7777rm3dutUbBRJbSCGk7qg6nKpDSHqrzqkAEosKFK677jrbtm2bTZs2zRvNTU2IlyxZYkuXLrUDBw54o0D48uXL5/JB2RDp7QohpcmxY8fc+QP/LVN9IDHddNNNLljeeeedXN3u9fHMmTNtzJgxtmXLFhdC999/v02fPp1/04iI/t742RDp36GQQkgnsfXQF/HfAkgs+/fvt8GDB9t5551nixcvtmXLlnnPHKdGqJolde3a1Vq1amU/+9nPXDugAQMGuM8HIqE88LMhEqyrASng22+/tT/96U/Wvn1769evn61bt87mzZuX9QOj3q5atcqGDx/uKuhEy+oVK1a07777zjZs2ODGgHgjhIAkt2nTJnvmmWdcw1HNbjTLKVq0qM2dO9ddOCZau69du7bdeeedduaZZ7ox0exJ+7zqnA0EgRACkpjuGRo2bJjrlnDjjTe6Nj6lSpWyNm3auJnQ2rVrvc80d5i1U6dOVq5cOfex+s7pc5o2beruDgKCQAgBSUqbwQ888IDrF9ejRw/XP040C9JezzfffOP2hU5cq9+1a5ctXLjQXn31VStQoID16dMn66oWIN4IISAJ6T7/X/7yl/bee+/ZX/7yFzfL0ZKbaK9HMxvdBfSvf/3LXfOQnfaPdGGdwkohpN8LCAohBCQZhcYf//hHmzFjhuuOcLKltMqVK9sll1ziQkihk13NmjWtdevWdsstt1itWrWsV69etmDBAqpeEQhCCEgyCiEtnz322GPWokULbzQn7QvdfPPN9tOf/tRVv4l+nfaBfJo5KcC0XKfbW7M/B8QLIQQkGV3zfd9991nHjh29kZPT9Q4KKjU21QHWoUOHuplT9i4J+r0UaOqgwLIcgkAIAUlIbVL8PaAfoue176O2KgoYFSMogLL/Oo1rz0hl25G2XQHyghAC0oDCSDewXnrppa6M26dDqirjvuaaa9znAPFGCAFpQLOh+vXru2U3FTSsXr3aFi1aZOPHj7cbbrjBWrZs+aMzKyAWQgohTdP9v6Aq/+QvK5B81FFBh1W1lKeL71QRp4anPXv2pGMC8izSXAgphLL/5gQQkLy0FKeCBVXO3XbbbZaZmelCCYiUnwmRZkO+70M4HLBjx46sE9W9e/e2QYMGuX5TAGLvrbfecodRs+/lxJqKGOrVq2cXXHCBNwLktnnzZne1vNpGqfry3nvvDfuHGkIISHAqHFAH7Ehb5UdCnRTq1KljZcqU8UaA3LKH0JAhQ9zSLiEEAIiLaIQQ1XEAgMAQQgCAwBBCAIDAEEIAgMAQQgCAwBBCAIDAEEIAgMAQQgCAwBBCAIDAhBRCNDAFAMRCSCGkPlI+XeWgBwAAee2iHVKaHDt2zHvPXBPFeDZSBAAkrhDaj55SSCGU/Yvk9QsCAFJPpNnAuhoAIDCEEAAgMIQQACAwhBAAIDCEEAAgMIQQgKg4ePCg9e/f37p37+6ufQZCQQgBiAqdJ1y1apULoH379nmjwKkRQgCiolixYjZ48GAbNmyYVatWzRvNSQfdV6xYYXv27PFGkO4IIQBRobYtGRkZdu655/5ga6/Fixfbvffea6NHj/ZGkO4IIQBxU7BgQdu5cyf9J5GFvwkA4qZ69eo2ffp069atmzeSm9q/ZO9XidQWUgiddtpp3ntm+fPn56cYABHRkl2RIkVydObP7t///rfdddddVqlSJdu+fbs3ikSW1+t9QkqT7F2z9VMKTUwBxIJeW1TU0LRp0zy/uCG+YnqVg3468SmQCCEAsaAZ0q9//Wt76aWXrEyZMt4oEpmfB5HmAutqABJK0aJFrVSpUt5HSHWEEAAgMIQQACAwhBAAIDCEEAAgMIQQACAwhBAAIDCEEAAgMIQQACAwhBAAIDCEEAAgMCGFkDpn+9SkjsaCAIDsYtrANHsI6X1CCAAQDSGF0JEjR7z3zF02lf1qBwAA6KINAEg6+f6bXj8aXzt27LCyZcu693v37m2DBg2yQoUKuY8BIBHo3rP9+/fnuP8Mp6ZbskuWLOl9FL7Nmzdb1apV7dChQzZkyBDr2bNnjpu4Q0EIAUgJS5cutdmzZ1vhwoXZtw7RunXrrE+fPt5H4SOEAMCzaNEiNwuqXbt2jmIq/LDhw4fbPffc430UvmiEEHtCAIDAEEIAgMAQQgCAwBBCAIDAEEIA0pZKulV4dfjwYW8E8UYIAUhb77//vt1777321FNP2fbt273RxHTw4EH77LPPvI9SByEEIG21b9/eWrVqZcOGDbMPPvgg4Q66Hj161NavX28zZ860J554wrp37+49kzpCCqHsB784BAYgVRQoUMAyMzPtzDPPtKlTp7rZRiLZtGmT/eMf/3Bvv/nmG/v222+9ZxJPTLtoFyxYMOsL6H8aB8EApIpzzz3XmjRpYlOmTLE9e/Z4o4mhYsWKdtttt9m1117r/pyJOAnI658ppBDSpp3fWEHTQ3ozAUgVpUqVcrMh3RagPaJEou4D6u2WyK2I/GwIofnOSbEnBCDtNW7c2M00XnnlFa6qiTNCCEDaq1Gjhus5pwao2ntB/BBCANKelruuuOIKd7XBuHHjvFHEAyEEAP91+eWXW9GiRW38+PGuKzTigxACkPZUmv3iiy9alSpV3PUEH330kfcMYo0QApDWdu/ebSNHjrTSpUvb4MGDXTXwO++8k6sKWOMq4fbHVcCgj/WgmCFyhBCAtKUZ0KhRo2zjxo3WoUMHa968uStSmDdvnm3YsMH7rOMBpK4FkyZNsjlz5tjWrVtt2rRp9sUXX7hDrnpfx1cQPkIIQFrS7EU941QR16VLF6tQoYI7jN+5c2dbvXq1zZ8/3/tMsxUrVrgg2rlzp/s1Y8eOdV0Wqlev7ooann766YQ76JosCCEAaUcBNHDgQDcL6tOnj5v9+IdBNSM6cOCAzZ07N6tA4eOPP7bLLrvMzXY+//xzV0lXt25dy8jIsBIlSriy7kRr+ZMsCCEAaUWdEbT3o9nLc889Z/Xr18/RjaBcuXLWokULtySn5qGitj4q3163bp1dffXVroDBpzFV1RUqVMgbiQ0Fp7oSpNr+EyEEIG2oqEBLaa+99poNHTrUzW5OpEBp166dLV261L766iv3on/RRRfZli1bbOXKldawYUO3BCcKNM2CLrzwwqyxaNJMbMGCBfbJJ5+4P8u+ffvcHpSudFi7dq0dO3bM+8zkRQgBSBsKlOLFi9v//d//WadOnbzRnLQvpOW2O++8081+/Go4dbDWvo9mQRoXFTQoHBRmRYoUsW3btrnxaFEIaW9Ks7JGjRrZb3/7W1uyZIlbKtS+VSKFUKS97UIKIXXNVidtNdPT/6BEbaQHAKei1zB1pL7jjjtOOXOpXLmy9evXz37605+61zyFl5bdTj/9dCtfvrz3WeaCQMFUp04dt18U7Qaoaq5611132W9+8xu3d6UQeuCBB9y9Qi1btozJ7CscygJ9f/R91VJhJE1MQwoh/Q/QN1ipq7eptiYJIH3oRfPHrqPRi6v2ePTQ+1p2W7hwoZsF+SGkGZKCSVV1Z599tivf1rJdOlHo6HujbND3KZIJSkghpP9pfsrpixFCANKJXmh1bkhNTrWcJwoydd5WKKnDgl4ba9as6Z5LF8oETUz0VjkRiZBCSEtxPqW/viAApAstw6mk++c//7k3cpwOt2pprFatWnbTTTd5o+lDwevngUIoZjMhrff5v7lmQcyEAKQTzXq0T6Q9muw0rgOrmiFFOhNIZgohX/acCEdIIaRKEP8brJkQIQQAyB5CMV2OE/8gFiEEABDtlfl0vsovXQ9HyL9CrSmE6jgAgOjwrGgZTuekYrYcJ2pzLuqPlD39AADpyW/aqvNK2QvYwhFyCJUtW9a9VWM/QggA4M+EtBQX8xAqU6aMe0sIAQBk165d7m2xYsUibuAacgips6ywHAcA0afL8l5//XXXoy5Z6HI/0QHeSFsIhRxCakshmgmpOAEAED3qtvDhhx+6fnXqnJ0M/BCKy0zonHPOcW+1BqgbBgEA0VOyZEm7/fbbbe/evTZ69OikuCTPDyFt16irRCTCDiFdb7t//373PgAgetSLrnHjxjZlyhTbvXu3N5q4/KXDM844w82GIhHWcpxOxKokTw/6xwFAdGnvXSG0efNmd2dQotPFeqIQ8hu7hivkENJh1TPPPNO1adAUzL/oCQAQHepFpxA666yz3O2viUy1AbrKQntByoaYl2jrC2iqKEppQggAoq9BgwZ23nnn2cSJE23Hjh3eaOJRAKlSWstwmglF0i1BQg4hdUj1Q2jTpk05GtcBAKJDpc6XX3652/4YO3asN5p4VqxY4d5qGU4zoUiFFUL+hU1r1qyhTBsAYuSqq65y10aMGzfODh065I0mlqVLl7q3qurT7bKRCms57oILLnDrf8uWLSOEACBGtAevkme90H/xxRfeaGLx/1wqz/bPkUYi5BDSep/STo+NGzdm1YcDAKJn+/btNnToUOvSpYs7lzl16lTvmcSh6ujPP//cFVIogPy2bpEIOYRETUyrVKniihISNZ0BIFnpbNBjjz1mVatWtT59+rgX948//tgFU3YKAV2p4x+V8T/2H7G2ZcsWd0ZIK2R169aN6B4hX9gh5BcnzJ8/370FAOSdmoGOGDHCvaDfcMMNbuvjtttuc2dx5s2b532WuT2iN9980/r16+c+X1VqkyZNspEjR9qf//xne/zxx13XhVjSMqEq41REkZmZ6Y1GJqwQ0kaZSgf1zfn000+9UQBAXqgBwFNPPWWLFi2ybt26ZV2dozBSOCmE/MbRmoVoGeyyyy6zV155xd544w1XNKZfd8stt9jkyZPdvn0sffbZZ659mzJBM6G8CCuE9B9+4YUXunK8hQsXuvNCAIDIKWT69+9v//rXv6xXr15WrVo17xlz7+tFXiHkt8jRa2+TJk1cGKm/XIsWLaxGjRruOe0hxbq/p47naDtGX+Piiy/OuvA0UmEv5CmEKlas6KaE06ZN80YBAOHSHpACSMtpTz75ZK5ZhSrk2rVr50Jo9erVbqx58+auvY8+rlOnjlWvXt2Ni5bmtGdfuXJlbyT6dE5Ux3S099ShQwdvNHJhh5CSWVM/zYrefvttbxQAEC4tp40ZM8ZefPFFu+iii3J1HdDGf9OmTd3b9957z/3wr2IFFSosX77cGjVqlHWPj4oTlixZ4vbtVeIdK1rq06xM2zIKyLwKO4T0TdJ9F7rOdebMmUnR6RUAElGbNm1ce55LLrnEG8mtYcOG9tJLL7m3fkgpBLQcp7ObaiQg2h5R2XSrVq3c63Mstks0y9JyoGZDnTp1ivj6huzCDiHRf2T58uXdZtonn3zijQIAwlGrVi23r+IHyclopqOwuv76693sQzMeBYxWo/Q67NNSnIJJYaWwGD9+vPdM9Gzbts0FnZoV3Hrrrd5o3kQUQipMUFsJ3bKqJTn6yAFAfOj1VktxGRkZOUJIRQr6WA/dR6TquWhbv369K0rQXpQarUZDRCEkd911l0tknRdauXKlNwoAiCUVBKhz9RVXXJFVyi1amtP+kUq0FUT16tXznokOhZ+W4tS4VAUJ6hkXDRGHkJLwuuuucwE0e/ZsbxQAEEtaktOZIB1k1ZKcTzOjnj172n333WfNmjXL8Vw06Ebtt956y32d1q1buz9HNEQcQqK2EpoCzpo1y9W6AwBiTwUKJ1bSyQ+NR4NKwmfMmGFXXnll1rmkaMhTCKlUW5VyCqGvv/7aGwUApBJtvQwfPtyVfrdt29adU4qWPIWQyvPUJkKzIJ32jeUpXQBAMBYvXmwTJkxwpeQtW7b0RqMjTyGkNcdLL73UTc906OrETq8AgOQ3ZMgQVxBx9913u6u8oylPIST6A2k2pMqJF154wRsFAKSCuXPn2j//+U+75ppr3LXj0ZbnEBIdXtXe0NNPP22rVq3yRgEAyUxXQqinnbZe/vSnP8Wk6CHf99pxigL1E+rcubNrpvf888+7OnYAiBedX9FhSvVWy8sla+lErde6d+/ufZSTlt90b9HDDz9sffv2da/vsRC1EBI12NMh1oEDB7o/cKxKBQHgRDouogvg1MkFoVFj1Nq1a3sf5aRO2ffff79VqFDBHnnkEStevLj3THRFNYTUr+i5556z119/3S3N6UArACC56AK9Z555xk0sBg8e7F7LYzWpiOqcVdVyXbp0sXPOOcddNavLlQAAyUV7+6NHj7YePXrENIAkqjMhn07WqpWPKimiXc4HAIgtNSDQdQ0dO3aM+f5aTEIIAIBQUEICAAgMIQQACAwhBAAIDCEEAAgMIQQACAwhBAAIDCEEAAgMIQQACAwhBAAIDCEEAAgMIQQACIjZ/wM44SXus1fUiQAAAABJRU5ErkJggg==;" parent="IuaTcRtPijXqOsnX0eB4-1" vertex="1">
          <mxGeometry x="50" y="389.99999999999994" width="180" height="154.1" as="geometry" />
        </mxCell>
        <mxCell id="vuEfzPaLM79mjF0In50A-8" value="" style="shape=image;verticalLabelPosition=bottom;labelBackgroundColor=default;verticalAlign=top;aspect=fixed;imageAspect=0;image=data:image/png,iVBORw0KGgoAAAANSUhEUgAAAIkAAAAhCAYAAADta4hKAAAAAXNSR0IArs4c6QAAAARnQU1BAACxjwv8YQUAAAAJcEhZcwAAEnQAABJ0Ad5mH3gAAAQ/SURBVHhe7ZpLKHZdFMf/7ndyLbcIuSUGysBAGZi4lDARysxIiCgTtxJGpCQjA2ViYmJiIAND5VYit1xyl3su4X3Xcl55349vP+c8Z5/n+972r07Pc9Y5e/es5b/XXmcdTjExMW9QKP4FZ+1TofgWJRKFECUShRAlEoUQJRKFECUShRAlEoUQJRKFENOaaQEBAfg5F5ycnDSLmLu7O2xsbMDLywvx8fFwcXHRroh5enrC+vo6Xl5eNMt/B9n+WB0v00RSU1ODvLw8vL6+8g96e3uDs7Mz3N3dWTgPDw9sIzw8PNjB+fl5dHd3o7i4GOXl5Xw/jaU5aAyNpfseHx8/nHNzc+NjZ2cHzc3NH/bS0lJkZWWhs7OTxedIZPtjxvx6cNU+7cLPzw8pKSlYW1vDwMAATk5O2F5YWIjKykrc3Nygt7eXswaRlJSEpqYmXFxc8HlGRgaPGRwcZLUTmZmZaGhoYOeHhoYwNzfHdspY7e3tuL6+ZofLyso4OL/OIyMjUVBQgImJCezt7fEYq5Htjz3zG8GUmiQ9PR2urq4YHx//EAhBKZFUfHl5ie3tbc0KFtP5+TlOT0+RkJCA0NBQTE5OfjhMJCYmcsYhge3u7mpW4OrqCsfHx3wQNEd2djby8/Ph6+uLlpYWDhQFxRHI9sfe+Y1gikjS0tKwtbWFlZUVzQJOe1FRUfx9c3PzNxWHh4ezeI6OjngsZZSZmRnt6jtU31A6PTw8/EdG8Pf352ASs7OzvMookGFhYVheXsbY2BgHxxHI9sfe+Y1gikiCgoKwsLCgnb1DW0pISAien595P/wMbU/39/fsEKVTEtdnEdFKITvVMCS+zwQGBvKcBwcHfN7Y2IiqqiosLi7yvZ6enujp6eFgOgLZ/tg7vxGk/avAd/WILXy3v36Fj48Pf+bm5nKabm1t5aDZs3LMRrY/euY3gjSR1NXVIScnh8VB+6oeqHIvKSnB2dkZV/eUcUSkpqZyDTQ1NWVTgUZ7e319PRd2eqC039/fr0v0sv0xMr8epIiE6pG+vj7ExsZienoaw8PD2hXboNVDq2NpaQkdHR2a1VzoN1KxR08SevjV29GDbH9kzy+l40r1CNUpX9UjIii1UmH71f5qJrQ6V1dXee/Xc+gViGx/rIiXFJFQz4T2VqpH9AaVVjcJjBpCMkViFbL9sSJeUrYbq+sRI0RHR6O6upp7EXq4vb3F6OiozY062f5YES/TRUKPt11dXfxHMFKPtLW1cXNOZj1CGK1J9L4Dke2PFfEyfbtJTk5GcHAw1yP7+/ua1Tbi4uIQERHB321dqUYxWpPQGFsFItsfq+JlSiYpKipCRUUFd1G/gh4bqVdC7fg/oZdYtbW18Pb21iy/Qy8GR0ZGuBP5f0C2P46Il7Q+ieLvQcrTjeLvQolEIUSJRCFEiUQhRIlEIUSJRCFEiUQhRIlEIQD4AY6lfavikBTtAAAAAElFTkSuQmCC;" parent="IuaTcRtPijXqOsnX0eB4-1" vertex="1">
          <mxGeometry x="655.78" y="351.11" width="98.43" height="23.71" as="geometry" />
        </mxCell>
        <mxCell id="vuEfzPaLM79mjF0In50A-12" value="" style="shape=image;verticalLabelPosition=bottom;labelBackgroundColor=default;verticalAlign=top;aspect=fixed;imageAspect=0;image=data:image/png,iVBORw0KGgoAAAANSUhEUgAAAP4AAACvCAYAAADdRGMDAAAAAXNSR0IArs4c6QAAAARnQU1BAACxjwv8YQUAAAAJcEhZcwAAEnQAABJ0Ad5mH3gAACa4SURBVHhe7d0HeFNVGwfwf5LuPYDSwd5lLxFkyBJF/ABBZAqoLNmIgooILkBBUIaCKMqUJUsBBxtENmW0gC2U7r1X1n2/m+SU2dKbNm2T5vyep+T0JW2z3nvOufcMGYnAcZxVkbNbjuOsCE98jrNCPPE5zgrxxOc4K8QTn+OsEE98jrNCPPE5zgrxxOc4K8QTn+OsEE98jrNCPPE5zgrxxOc4K8QTn+OsEE98jrNCpZr4sRe2wSuwGzLZ9xzHFU0I34Magf1xO13NIqZXaomvjDuP3t3fwszFa+DKYhzHFU1e8yXMbJWAboM+QLqWBU2sdBbiEFIxtmsrXPOfihObp0HBwhzHSSMoY9C1eStUGbgc2z99hUVNpxRqfMIvH47Hz7cDsHbVxCckvYCju9ejaaP6eG7i18hUCyzOcZzc3g8bv/0Qf3wxAasOh7Go6Zi8xo859SOa9pyMMauPYeGINixauFNLh6HjjF/w1qrDWDmhC4tWVGrsWPIOdoV74/n2dWFPShze/TsCh8/CpL5t+JlWC5Zy428MfGMlhox7Bc42NkgO+xf/xPlg2Rcz4ONsy+5lLBUWDu6Cz//xwPlr+1DfzYbFTUCX+CajjKH+Tf3Iv9N4SlUJLPhkQtYVquNuR3YNRlOSWtrPWCY1zevXlnq+/TPlqLUsJr5k6RE07tm29MaC3SzCWRaBIk+tpaoOzSg4PpvFdDR0fO0sathiCN1KzmMx4+VEnaTGnrbUdcJKuv+pKTmTJv7ODwaRHF60+lg4i0ihpbc61BVbHW609XICi1U8N3+ZRjayxnQnXcki9yUH7SB3+6q0+nQ0i3CWQpkWSg3cHGnc9lAWeVAuje5Yj9q9uYxULGI8gbZ+PIxg4s+HyRI/L/o41fGwo0Yvf0w5Rlbc1zdMEw8YoFc+2sUiFYugzaE2bjZk1+lLyivotdHE06D6LtT0pbni28xZDoHO//wWyezd6UYhmX1kgZi0tnXprzuZLGI8dcpVetrHkfzajKR0E1X7JupWClg0bSbC0lzwwXtvwFHGwhIF9h+DQG977NmyBXHKirfatyb5FC5natC8z1OwL+i1UXiiVrMauHriN9zM5audWwxtJtZ+9DNsHbxRt5BufL22zQF1KLbsvsgixrPxbIz3pw9BzPntmLs5iEVLxiSJnx26D6t+uwDfHhPQt7UfixrBuSF6tq4P1a0DOHA5jgUrjpijO6AR87m+jyeLPEoBV3cPIO0OjlxPZTHO3KnT47EpPBs28qqFXr1y8aysT7Ir504bAsUiw/OvT0ZjNxU2fPw+EtUlrxxMkPiEJdPnID5XIdb2o+FiZG1vIMe4N/uI/2Zi1/YjLFZRCLhx5py+VLuqmNwFkqOqh7d4m4qTwdGGEGf2cjJj9aNSbRQ+hkABXLx89APYQiJCoDSEisW2cjPMmtgbKf8dwux1xW895Ctx4msSj2PVoRDYBryMgR1qsajxGvzvdbTxtsW+rZsRpapIzV0BkdekJ3NiVAorceZOmZXESkXLTsxEdok+1nL8b/QkuIiHj91fzEF2CYe9lDjx10+dIdb2Woz9aAp8HErw6+zroEfnFkDUUew6E8OCT0KIvh0HrdkfIwiJ/8WzctFUd3lT31Kos9NYSYKEkiY+4F7vGUx/oTZSwk5i0d9RLFo8JUt8bRzm7L8udkH88XrvZixYPKTJhkwriL2ZbOz8YTeLFoAEKHOzcGb7AgQ2mooUE/R3uKIJ6lxEx8QhVyVt8LhWlY3I6HioJB6Z1bkZiIxJ1J8L4QrjhMHj3hBvs7B24qdilVJ8JUr88J3zEZ+uhGvvKQj0c2ZR45GgwuLRfREwcSE6+9jj2F+7EFFAQucmHYWrmwdqPTcBF88eQobKMob5yuRGvMyyYp0kKWWEj/q2RYC/L1oNW4y8oj5xghKjAn1QPaAqOr69AxoWLoyQE4O+9auiur8f+n55ikXNn8yY90ouEyu1kmvQ+RXUE39XbPhOHE4u6pUtXAkSnzBh7HqxBwu8N7E/HAzBYhCwaFAH3Ok8D+Of644BL3TUjfvFlpOP94sdKz2LzMwMxJzYgI71KrGouZOjZruarFw0h0ZVWMmcCLh+29AFCQ8PR1FXXElQ43xYtr58/frtImtxbV4WQqJyxZIGQVfDDUELYO9RlZUkCPCAW8na13oKz5qYPrq5+FIlYfy8AyxqvOI/lNxzOJ6te7MCMPCp6oaY0QgLB7bD/irjsfQNMeHFY2L/US+Lt3nYvWqL/h6WT456bRvpSzejCztxJyA2NVm8tUPz+sW4HFrqFNh64QJ2bd+N0L+Wwr2IT43MxgVB6Xex+Zc9iN77NhyKqOpsverhcnQwtuz8A6HrhrKo+XN0NSS+Wlv4Oams5DhkiLfVAvzhYgiVkC1eGDFGX4reMl9f8RZHMROfcPG7+cjRHcrbvIkAL3sWNwbhx4m98Fn0U9j51SjYi80XnYD2ffCcnwPOntiDOxXi7L4Mgd10lyqBoOhE8VkXRIP0FN0ZYj/0aO5rCJkZW+eq6DewL/w9pLXt7NyqY8ir/4OHo5SJJTK4+zXC4Jefg4ONOXZ1Cubo7gdddaXWRqCwMx/pSbH697xlLdNNwvJv2gNe4m1uyg3sCC/eRcLiPRatEjPm/KEvjpnSz+iRerqkXzfpeYz9KRNn9nyJyg4PfDjsquGV/t0hxJ/Fiv2hLGjZ7Bv2g42NHLfPhxbc36UMRN+IgWeLVujoZ8eCnLmTOXpj0tQO0KhyEVtIHRUedFP81wHdBugOEaZh6xmAad3E1gblYOq83wupTJ6sWImvyrqO4zmGY9xr3evobyUjLXbNfhFvrrqIPef3ILCKE/uPfDL0HjpAvFXj0PebDSELJ7f1wQ/DmkG9fxPSch+vG/IiruDQrVwMeHMGHFmMswQ26DV5nvgG5mLj2YK6cQJ2HQ2CZ+vBGP5MNRYzAZkjXhyh6xITkrctgbY4M+vZmH0jCPTf1rd0f0n86kDJuRoWl0BQ02+LRut/9tN9wYVPM1RGU786bqTwak4hWQXf68rqQeLvGUgJSsuY1qLNuk2Brg40a3vQIxNxNLR22ktUq90YSsgz5cRLrkxolbT13d7kUHMY5WkffmfTb+yhAKcA+uFoGIuYTmrYH4YclNvTvxlqFpXO+MQX8uiTVm76P2r/7DKSOO1eL+X6dvHnFPT8h7tJ88SfE2jvl7oDhB0NXXqCxR5maYmvkxr2Dw3q3IneW7WLohKSKT7yFi2fOYpeGPIu3Ux4cC43Z0m06kz6cc5oat1rCp0LvkupaUl09uBP1K19D/rhYJBJ59Hn02RGka++8pXTwE23WFQ6o1fg0WbHwcfFF7pz0MM3BmPDMMMZayk0eYlY9/1xjJw8AEX1ZIW8VBw98g80zpXxXOenWPS+q2teRbNxAhKU21DZznJOCOmucd+8chFnTp5FjnNVtGvfAU0bVIMFndPiCpEeG4az58/j8vV4NH66PTq0awEPx+KuvlMEysXcVlXxyeUMoOnnUAW9B1sjPkNGJ35G+EG413pBX94bkYWXqhV/4E5JWGzic5xJCDi1dAA6ztCNcq2PtLxguNtLX9bWyJN7hIiTe1jZCU9VKs5lvOITG1VITExEYkIMLl/TXTuNxq3bkfpYRo7KcCeOswpyNOjYi5VvITjDuM+/kYmvwel9f7JyB7jblu3C2YI6A5MmTcLPW39FRoPBWLFiGC4f2ou5783E9lJYiZTjzJlz7basBPx+MZGVpDGuqa9MQQ8HbxzSlQMXQn1tFu+bclw50eYkwNnZRz/Pv/KUXxH3dX/JNblRNX5eZrwh6UUNhnaGgic9x5Ubhb0L+rBzh4lbjiDPiPG7RiV+dkr+SDoFBnSsb5LZRhzHFZPCDr16+BvKiSeRnSd9vy2jEj/1Rv6SPzZo08CdlTmOKx8KNOvehJUvIS5H+rh9IxKf8F8wS3xbBZpXMeGuHhzHFYMMtZu2utfyDknSzZaVxojEVyHk9GV9SWHjimpGtRU4jisNrrUa30v8SyG6YXXSSE9fbQ6unzWs82Ujry029jmOK28Kv0b3Fm06fTPSUJBAcuJTbhZOxBlOGyoUDfiJPY4zA3LbyveWADt9ORRqfalokhNfnZeF/EWR5OJRhuO48ieXe4hdfUPiq86HQ+raNZITPy8r6d7RRN6sBitxBVFnJeDbz95Hw6ZP4e0fjrMox5meTGaHgPy2ftgN5ErMfMkj9+Kv7kTVZgP15RrvH0b4Z131ZdMTcOWvjfhqy2W0bVULGo0cKZEhUDTphzmjexhzNrJ8CXlYOrQ13t4ZjU3XozCkvmlWXOPMU/rt05jw9mp06NkWSt3J9ewI3NXWwdxZr6OSUymeERPU6G7viMMa3TX8pohIv4hqUvbR1yW+FOHHVuoOEOKXjJ5eGcSipqalA19Po2bPvEERD2wnrclLoYXDOlP3cd9a1G6ycRc26F8z795rLepxc8YQKPbCL1TdsQGdjcxgMR01/b5kAjXvNI7C0x7fGt1kBDW95aZguVmZghNy2X88meTEv75tHvvltjR+bxSLmlbS5W3k6+hL68/Hs8h9un3IveW2NGOv6VczKS2a7DhqYguS29akFDVfXaciUmWEUytPJxq+PphFHpRNw9vXpmcnrxYPA6VFS0sa2LDcBJ2JkrYdt+SWc1pK/jZQMni6lMaCkAJWfrYYCT7t0LPF42vL27kF4J22Tlg2dDLyzH/fLD2FkzfmjW8ntsYisf6KEdstcRaCELL/G1zMtsHsVxuy2IOcMPL5tji6ehlOReWwmOlVrn9/ff/EPGnTcyUnfnZuFivJ4ev56AKZJpAXin2HLsOvRQNUKWi2r8wOHfq3hZB9EP+mlGTf0bJkg56TZ4m3Wnzw3ia+PVRFo83Cj3PXwtbREw0LWQymYYeWgCoEm3ZfYhFTk8G10v3FcNKyTJr4hLT0/M0cbVDZw/TLCWUEn8TVFBWquhv2Ey+It2818aEQtp6UsqmmeXCp0Q0NxZcr+8/PEZ8j9SorZwnUGfH46VYGbOV+he6P7+rpox/zcuVMSfbHfzKf2ve36VappU3Rk5j4ArLuJb4Mzo6SGwqSRd+6rp9XXMW9sK2xZKjsr7uMSNh9+pa+Q2MJ5HauWDb1abEUh40XEgxBrkLIzYxDunhroyh8Ky0Xbx+4ibfBEcEorTWi7J3uV8Tx8dK6FJJrfGVOflO/dCTdlb6VdFxoXKE7l5gfObrP/ky/YMnsd34qesNJzmIos6SPjc9MzkTp9fKNJ7nqJoF9Ym1sxD6+6ZfcSo2IYyUJLkeJbRDLYePZEXXsbYCzXyM6zVLOT3BFURmR+IhJR2apfGhl8K3dgJXFtnl+nhZBYuKrkBCu29tNJJPBhu1zx0lDpEINJ91rloi1R+4YggXIS43Eig/HwtXGFS+OnI4/LkXoTmmYB/GBaLVa6Y9HvKNGd3/2bVGIBP39uZKJS9Zt0Vk003fWuYeQJgvj2gTi8wsH4CK2979YsBk5BWTDzT9WYMqGYIyduwppyjRs+2oSFnaqCa92b6P8r14SFgxsCzs7e7QZtUx/LuaJBBUmNK+iv3+39/cW2S2j3HgMauANO3sXDFpxjkW50mQ2iV+loRFbbT9Vo9CzqOZEUKVhQseWaLzyNFrXfBYd3F0gnP8W/z16AiYnDD/tVOHbyb1gZ2sDhUIBZ+862HvzKNLOLUXvlRfK+WSmgH+vx4jNSC2uXw1BbhFNVtKqcOhqktg91OLMv9ehLuLBa3LScOa/NPHn8nDq1A0WNX8OxuyPX83TJPvjm4rkpv6dUNbU1ygRUQp9Fd+6tfS3Cens7zyGkBQToS+1bl3H7JsqpEzFpK7tkPbyakzpoFsXTYFPP+gh3iZh3Z8h+vvki792HMs2fYI3Fv7FIgYuPq3QVXzef74j1rLlWu0rsOnoYaz59ntc2LcIHkW8+DJbF5y7exHfrFiLGzunF70/vnc9nL52AsvXbELQj5a3P75GG6u/LUhWSgIyxVt/f18T7Y//uPRrF1gJCImVNlBMYv7YoVZdb0NRYY/qpZB1AU2fhp94G5MWX+iJu8Ro3cRgGYZ2Me+FPkms6eeP6IW//EZj/Tvd7j3WNq+/g0r2cqz+5peHTvR41mqDji3qo3WTh3dUlcnk+ktByMso976+S9WGGDP+TTT292CRJ3Ov3hKTJ76B6p5S9tOXw79xR0waMxSVHC2hLWfg6OGHduKtWhtVaHcmIzlW/3luUat1qbVS3Ru3YiWgoa+098eIFGYf31LKOIV/O7RqURXxEbEo+MKhBteOBIt/3xWDmkl7cuWBVCmYP7I3vr1eB6c2vIsHB3TJ3J9CR99KyLuwBufCdVeADewqN8Vfp85g8ksPD/tUZcdgv/iC1xcTyJ5vYGB2dPvjTxzbBhp1NuILOTBHXL0l/muPZ/uZbn/8x+RPyxVJ/ZSYT4tZ5oYZI/tCc+U8gqLzWPA+IS8dqw7Hw7/vl/DVXRozR9oMLBrbD0uOCdj311pUcXj05VVgzvSe4m0Gtv4RZAgVSoO/v5oGwbUV/lz0otl3bayTLV6cPheUl4NtlwtqYgvYe+Qy3Jq8jBGda7KYmWCTdYqQTfN6+umOaQRbL7pUSlONhJxoGtq2JvV5Z8Mj01gFurl/Idk6BNK1tNKb51QimgxaNuV/JHetRj+evMuCjxPSzlE1ZxtyaDKWktWFTdYV6PaxteTm2ZZO3JU224orJ9o8Wju+Czk1GkfKR/bHz7z9B9Vy9aXl+0NYpHTE7HrLkJvi1+R151n0ycwq8XUyo4NobJ+eNO6Tn+luXDKlpcTToV+WUbs2vej3q49P1zUXp1bOEF8fV5q65hiLFEZLU7o3FO/rRhv+LWh6s0Chx9ZTh46D6EpCDotx5kyrSqMvx/ejZ4fOo2u3YykjM42undpNL3boQku2nSYNu19pqRCJryeoKDToFK1Z/CnNnP0Z/Xb0IuWa+XT25NDTtHz1AUnzrlVJN2nLhvW09/QNFrkv+uLv9PqIDyhRmV97CBQRFEKPVCacGUoKv0bbflpBUyfNpo27D1NiVikuwPGAipP4Virq4p80+/0V9NDHRVDT8EYf0b3jAMc9ojiJz88ZmYmYy/swZtr3aBToge2bNmET+9qw/jsceqE9bPlJfc6EeOKbgdyoU+jZdQAOHN+OkcOHY/gDX6+NmoqXOjcqrauonJXiiW8GHAOewfVUla7bVcCXFqv7GjGcmeMk4InPcVaIJz7HWSGe+BxnhXjic5wV4onPcVZIYuILyEhli0cIWmQbShzHmQFt8v31KpNzTbquvhxu+ZtoyBW4v3w/x3HlTeF9fyUgb0dpu1zxpj7HWSGe+BxnhXjic5wV4onPcVaIJz7HWSGe+BxnhXjic5wV4onPcVaIJz7HWSGe+BxnhXjic5wV4onPcVaIJz7HWSGe+BxnhSQmvg3qtOyAbt26oXu3zvAqg8NFYvAfaNu8KTq8OBbJ5bo3vOnd3LMIzZs0xouTliOnsD3BOYt0deNsNG3cGP1nb4SyjD62bj51xbzsps/PejXcWbQIJEnZ76Sz88MhbHcQb9oQks2iFcPYlrXZc2tMF+LLZpslrmz0qezO3tvWFFpGG7xWqJ10Og99E92aNkTnwaPQq7Yji1YMMz9/G838amPgrGlo4G3LolxFsGDVLPE9rYnhH78Lf1cz3c5dhx0AisD3zuMelhT8Nw3s8zyNnLmMMs18Q9OKju+dx5WZ7UsXY8dvB/Hz4sU4FpHHopyl4InPFUv3V15GAz9fNHu+N1r62rMoZyl44nPFUq/nGNyIjkHQgdXws+dbeloanvgcZ4V44nOcFeKJz3FWyIwTn6BRq6HRVsShbQS1WgWtoLsCU9GJz1VlLc9VxzKer9kmftTp9XBwcIBXrU6I0VSsD83ZFWPE5+aI6t3fRkYFH7J7YsFAODg6ovZLHyPbCoYnH/u4r/751um3ADlm/LE128Q/vf+AeNQUkBkZgj9vVqzd+r774QgE8bnFHN2PWwnS9jqzVF+uOqZ/rhH7dyIyTc2iFdeCFcf1z/fuvm2ITtOwqPkx28R/aco8jO7eEcM+WIDBjVxYtGJYuvU7dK/fGnPWrUQLH2l7nVmqnw+uQ8fqLfDZ1tWo51nxhydvPvwz2ge0wMIda1Dbw3yH7Mp0w/dY+QlyMP+5epj3Vwxg64VLOcloYcbDkDnOmsTungi//qv05cnrzuObUa315SfhZ/U5zgpJTHwNEuIyDUWtGsl8DjnHmY3cyDBWAqLSc1jpySQmvg08PNnUWLkN3Hg7gePMhkOlB/bHd5Y2b0JyCtvZs069TAY+g5zjzIfM0ZmVAEcbBSs9Ga+7OTOgxektC/FS3wH45sAtFuNKk8TEV8DR1YGVOc60KDsWE4e+h9/2/or3h3zAolxxeLs5sdKTSU58t8quhqKgRVpZDMEiDWLvhiE6MYMFKhBBifCwUCRn8gUsdGSO3hg3/jl4OVVGx3FDWNRCCbm4HRqKtJyyG6ykzL1/Qs/eXlpH3PimvlZAZl7pJ37I78vhV7Mu6gZ2Rki2lkUrhn1zhqBW3Xqo13ECElTWMob9CeSOGPftH0jOTsDBRS+zoGXaPK4n6tSrh/rdZiGtTIaaE1JiI1lZfCklZrTku7l5VWHlsvHflSD9bV5qNIKilfpyRfH3iRD9beqNS4hJN99hnZzx9hw2nKNIDDqN1HKosKpUuX+i70kkJr4Mdvb5fXwNostgfPlL0xfhkzEjMHf1BrxaX1q/xVJ8tXcHxvQaiHUHN6NFZX6NpCLZfOYghnbqj+0ntqCWe9kMb02Nv98dVkhcDEnikF3gxHfj0XnCarHkgG8uJWFyC2lHFo7jShNh9+uN0H/dTf13v4Um48U6Xvryk0ju4zs7spN70CI4Mo2VOY4rX4Tb/9wfuVfVycQDeJzcPViJkJlbsaeScpxl8oGzqQfwOPvkDwvU4Hp8OitzHFeuSMC1sPzeuhcc7Uyc+E5efqwE3L0RxUocx5UrIpxjRcDf9Inv6Hr/cp7mEk98jjMHJKgRnn9+3qs27O2kpbTkxLd38oA3Kwthd1iJ47jyRJSLPLDEb1kPDtIqfOmJr3B0RVu2SpSQe8NQ4DiuXAlCmq61r1enZW1IXchNcuLDzhltmrjpixptKPhaHBxX/oSsO7odr/Xlrk1rQ+pmZtITX+aARl0C9UWNNgKZ+ScSOY4rN+qIG/dq/Bb1KhsKEkhPfChQt3EzfYk0WoTxySUcV84IsSGX8nv4aBiQP8iuaEYkPuAfyFbv1GoQFFGxJs5wnOUh3LpwiZUroZ6b9DUzjEp8t+pNWEmL385FszLHWQMBNy+dw5WQ/5CWbSaVHqnxz1aW+DZPw91R+oQvoxLfya06DOP3BBw8cKkUT/AJyEpLwq3gq7gcFILYxFRUmK3XSIvUxFhcC7qEayGhSEzLutdU48yZHNVqVMbqmQMQ0LAjjoeV/3wVUiuxk9W/tp17wtFO6qk9IxNf4eyBgQGGC4U5vx6CphQyX6vKwM/zxqDbkPnIUriiiqcMmz8Zhw6D5yI5z7Lnrquz4/He0B544/MdsPPygSuSMHfw8xg9byOy1Pw6iblz8qqJT7/4FOqo8xg17P1yP2CrlcnIv7De+9VOki/l6emm5UqnpQPzu+qer/hVn7KUWhY3ESGPFgxuT51HrSCBhQwEurRhOjn69iNT/8kyo82kPv6uNGnDRRbIp6ZvXu9ObQYtJPXDT5ozSxk0paMvwb42/ZuuYbHykRF5gOUiaPONNBaVxsjEJ4o9tuTeH7uSoWRR0wjZ8ZH4exvQ8ahcFrlPyE2mRpBR4Oy/HzkoWAKBjnzQRXxuXSkp9/EjlyryOPnClmZsvc4inDk7vmKi/vPf/YuTLFI+7ux+914uRmSpWFQaoxM/Jyno3h9bcS6JRU1BRUOfrUt2bUdSJos8TE3rh9UhmaImZaosq9oXNBnkaqcgpyHrxGdRkHR6o11lqtbpTQs8qFmfzNtHyUH8/Ps2HlqO75eGtk5sznKxP+VojHskRvXxdRxca6AlKy/fH6Q/ApgCpV7E+RNhqFe3Hgpe20eBRk83A2nvYn9kLotZBnXEfuSotOjyTGMUvBiTE3zrBCDy7CmcT+d9fXPnUqM1pnb1R+ytIziSUE7nndSZ2Ljmir5YeeLrsJe65hZjdOLL7Fzw7uhG+vLNFTuRa6L1BBOvnkaoluDu6FrIsEMZXD11SwoRNhy+v+KI+SOEHdkD3ctU1aOw5crkcHZyAZSR+PtyPItxZkvuggGjhorJF4+PvjvJgmVLmRmPA2pdtWuDj8Z1NjqRjU58Xc373LhxhmLiLqTkmGY1nsgbN/SXBz1d3A2BAnhVraa//fv0zVK8lGhqAkJOG661BlQqbGSVHJXdPcXbLPwbzMdHWILAbgPEdpqA4J++Nlmr1xjJN49C19aQ23liSKD0EXv5ipH4gFvzl3Vb6IliceSOaVbjSQyT/oHPC4rS16CWQUDExQhWLlpWWCIrcebM2b8p3u3hj5TI4/gzruw2zzAQcPGPX/Ulu1qj4WFkM1+nWIlvY18VU+sYmq1fbz9rktpXlWVEvz0lu1yOssWVmyZt62IdbSYfCm0RZE4YMOF1QJOGWcuOsWAZUaXipxVHxIINXv5oTLGSuFiJD5kt3l06Tv/DF1ZuRDqfsFPh5SbcwJJlq3EjVtqWZtlRlzDvi+8RnSGlK0iICzmBT77eiFSVZXTiBGUqfvv1HziI1d5/az4u0xZoRtwN7ElWQ+7ohvkD6rCocYqX+CLfF6bCyV4BpO7GpeiSN/ft3VxYSYJKzpLnHZc/GZwL7ds/TuEubXnksqXF+L69MXP6eHQZ9DEyishN0mSjR4unMX/WWHR4bTWURdQL6rTbeK59d8ydNhLdJu9mUfMlKFOwZPpY2A5dgvnP10BOxkUcjC2rlacJwYe26/v3HrVfQ10jhuk+qNiJD0V1zGjlIxbysGZfyS/rValjWMxTrS388ohGZWgGO7eoDokrDJkBOaq3NJyUVKqf8Nw0hv9zr1O2W5VJI0ONKpX0B9tK1avAtqjPmkyB+lUNC7X51fYp8kMmt3VEDW93saBAtTrS55SXByEvBYsnvIYrNUfh7d7NMWT2dPG4mIOZn/9ZNt1PbQa2rtokFuwx4vOphlhxsOv5xZJxfjnZy2WE6qMoqYRjaeOPLyMxman1iC9Y5FECXf1xhO61pRfWXGYxSyBQyI9D9Y/7lbWXWOxRWpo/qr14Hyf69EgMi5kZbQ5dDbomfZi2JosuXLxOKq20gSWq7GS6eOWWWQ9gEtSZ9M1bvanDiIWUP2ZVlX6HvMT3VmHbxuhBNMWRcfuYfvCQfaUmlFiCP1f8Gl/k2vp1BPqITfSILTh5K4lFi6dKkw6oay/H7cQIfTPmcYSo/3QbEsrwWtfahpBFkKF21376Pc3+DY0upFZQITUhDrCrjp7NzbHGF8kd0aRZYzhLXMUVCme0ahkIW7m0pqitkxdaNq2nb1WYI133Ze17I/H5JW/s+uHdexNibF398HGfmtBqLmN/1MMncfMSrmLJnMkY+eY0HNRdiVJm4PTB3Vj88Uz0f3UcZn76A3KMOqVBOLdvo9jGliHwuXdQqSQvFjsAFNvZpYN1Rw/q/M5msd4qCSW93r0Boc7LFF/QLxJyaV4zF5LZ1KF0ixuym05VHRSEZxZRXkFHaXU0/S/Agap3HkvlO+2DK4igyaY1M/qRU5Vn6Gzc4/NIks+v1rfovEf+8sD7p6UF735HKWqBDs0fTJ7tBtDyZcspPJPdQ5NGY6rY0dQD0YbvJRCUsfRKDUeSOfjT3zElmydT4sQnIZIaVnIUn3gLupqYx4LFE/b7F2Sv8KGtQY/PAVClh5Mr5NRxwSkLHM8u0L9f9CWZrD6Fpz3+hqUE7SAHmTPN3XeLRTizIajolzmvkMIhgDacKThJNTnx5KSrjhFIKbkssZU36dut/+iLK1/rTnYe7eh8wgPvvTqFhnnJqOv311igaGGHVukPMA06zWGR4it54ov2v/ciia0Omrz6FIsUl5oWjuhCzfvMoRz1/VpdENT05yLxqOn/ciGTXCyBknpVr0T9Pz9A6gf6vbra5P1+banD4C9L2GLiTE9Luz8dTpDb0nubz7FYQTT0ywixtSrmwPcXE1gsXwYNaONDg97fzb43yIm9TJC50ebQx1sQBRJy6P3+geJjqUw/Bhk3BbcgJkl8Ut+mxlXEWt+vP0XllrQ+VtPvX0+iWq1epaMXQuj2zUv0kXjEbD/qSwtO+nxKWvxGF3pm+Fy6dDOMblw4QoPaNqaxX+3lSW+Oko5TdZmM+kjoxqri/yY7GznJ2nxA2Q8e2BNOUm040Q/n4lnE4NbvC8jBpynlsO+Lknp9L9mLB5b6HWeYpMVrmsQXHV7wqnjEk9GHO66wSMlo1CrKyc6izMwsylOqLbB5XxiB1ColZWdmUlZWDqnUvFdvvgTxM5hDGolXJpS5uZQrfgkP3P3Wrg8Jjl3oVvYDhw4hi+Y+6091R2/Wf5t3+wCFPfG8lZa+eKOTmF9+tC0kg8VKxmSJL6jjqVN9b7KvNYAiCzyDxXHWZ+krnah6/w8eOmmbefcfskUl2nZbrO8FFS19cfQTV1/KCPmNPG1k9PTgZSZrGZboct6DZDZV8MOXM0B3dmPx+tMsynHWLAt/3rqJXh27PzTgzMnLH52qe8DXnXDop0/RavVy2BR6aU6NxfM/RqpnG6xaMb4EI+4eJtNlPyuXHCnxUb8OWHTGDZdu/oVG7gUvO8Fx1kFAWPAteNeqCw/Hh3MhNz0OwdfD4VOvMQIqFz6kO/LYdwjsNgWjvzuKb8Z0YNGSM23ii/Liz+OZll1Q5dVVOLB0JItyHGc0IRnDn26J815DcO63hXAtvFlgNJM19fM5+LTB2qXv4fDqOdh0KYFFOY4z1l9fzcaOiKr4YfUHJk16HZPX+HqUh5VT+mPhOR9cPrEO3kXO6uA47kFZd/5Gi9ZD8eb3f2L2gBYsajqlk/gibVYERnfrgdwen2H756+wKMdxRRIyMaZrG8R3mosdnwxDMWfePpHJm/r5FC7VseLXbWjikIA8FuM4rmiUehteXabhpw+HlErS65Rajc9xnPkqtRqf4zjzxROf46wQT3yOs0I88TnOCvHE5zgrxBOf46wQT3yOs0I88TnOCvHE5zgrxBOf46wQT3yOs0I88TnOCvHE5zirA/wfyr0RQS/YsCcAAAAASUVORK5CYII=;" parent="IuaTcRtPijXqOsnX0eB4-1" vertex="1">
          <mxGeometry x="632.4299999999998" y="390" width="145.14" height="100" as="geometry" />
        </mxCell>
        <mxCell id="vuEfzPaLM79mjF0In50A-14" value="w.r.t an orthognal basis" style="text;html=1;strokeColor=none;fillColor=none;align=center;verticalAlign=middle;whiteSpace=wrap;rounded=0;" parent="IuaTcRtPijXqOsnX0eB4-1" vertex="1">
          <mxGeometry x="640" y="490" width="130" height="30" as="geometry" />
        </mxCell>
        <mxCell id="vuEfzPaLM79mjF0In50A-16" value="isometry operator" style="ellipse;whiteSpace=wrap;html=1;fillColor=#d5e8d4;strokeColor=#82b366;" parent="IuaTcRtPijXqOsnX0eB4-1" vertex="1">
          <mxGeometry x="890" y="300" width="120" height="80" as="geometry" />
        </mxCell>
        <mxCell id="vuEfzPaLM79mjF0In50A-15" value="" style="shape=image;verticalLabelPosition=bottom;labelBackgroundColor=default;verticalAlign=top;aspect=fixed;imageAspect=0;image=data:image/png,iVBORw0KGgoAAAANSUhEUgAAAHYAAAAiCAYAAACKuC3wAAAAAXNSR0IArs4c6QAAAARnQU1BAACxjwv8YQUAAAAJcEhZcwAAEnQAABJ0Ad5mH3gAAAXnSURBVGhD7ZtZSFVbGMc/h7Qyh8zZVMzSrPAhFUNFX4QIJVEftIcgEEKtSCIRHypIpAExzBKUsEgKJJFIMUTMoRdJikxDymhQm7Qc0hRJs/v/XPs6XLv3HPc6KfvuH2zO+dYezlrrW9+0tpr5+PjMkI7mMBefOhpDV6xG0RWrUXTFahRdsRpFV6xG0RWrUQxS7LFjxyggIEBIRJmZmRQdHS2kP4uzszMdP36cPxU5Ozt7Qf9WCszJoUOHhEQUERFBJ06cENLySUhI4ENh//79dPjwYSEtjUGKdXNzI19fXyERubi4kK2trZB+T2hoKJ05c4Zu3LhBZWVllJWVRZs3b6a4uDjKyMgQVxnH2rVrydPTk9zd3f+WoVx8rjSYEz8/PyERbdy4kZycnIS0fOzs7Gjr1q1Cmn2uo6OjkJbGIMWamZmRpaWlkP4bCwsLOnLkCFvW0NAQFRUVUWlpKXcmLy+PkpOTuX25mJubc59WIxi7KTD2uSaJsQcPHqTw8HCqqKigy5cv0+PHj6m1tZXOnz9Pg4ODrJienh5xtY4pkK7YLVu2sFLfvXtHtbW1onWWkZERevv2LSv35cuXolXHFEhX7I4dOzgmjI2N0fT0tGidY3Jykr58+UIDAwOiRccUSFfspk2baM2aNRzsg4ODRescsNTq6mohzWJvb09BQUHk5eUlWmaBPD9p0BIY165du2jdunWihfg7DAPzoRbz/Px88VUOcMETExPcOZQhSJqQRO3Zs4cTgAcPHtCTJ0/E1cTKR0KF9P3ixYt04MABboc7P3fuHJ0+fZp2797NbVoAc4ASCMfJkyd5jKgyAOTc3FxKT09nWQ3SLfbhw4f07Nkz+vnzJw8CFhwVFcWdhgLnr0aUB4mJidTY2EhVVVU0MzNDPj4+fO7r1680Pj5OVlZW5OHhwW1qgZVcuXKFysvLjTpwjyzPsW/fPnJ1daWcnBx6//49z49SuiH3QPiSUSJZYsJlgo7B8lDDhv9ldTt37iQHBwdWMiYnJSWFSkpK+FpcA8W1tLRQUlISf//06ROfe/HiBdXV1VFsbKy0DPrNmzd09epV/h1j+P79O7169UpI6ggLC6OnT59y7Q1LxbOhUHDz5k3atm0bff78mWU1mKTcAW1tbVRYWMgu9ujRozwxqD2RNSugDCooKOB2xJvR0dEFbhq1Liz348ePokUdWHRdXV3U3t5u1CFLqeDatWt09+5dDk1Y8Mg5ent7+RzGj6Ovr49lNUhTLNwqdpkiIyNFyxz9/f306NEjntipqSnROlv+QGlQKjYv8P358+fiLJG3t7fmMmglBwkMDOS56OjoEGdmk0XsoMFbqUWaYrHliK1HrLjfgRi6lFv19/cna2trtgylRMJC2b59+wJFqwUTd+rUKbpw4YJRB+5ZnLGrASEJbvjbt28L6nkkkj9+/GAvoRZpikVs2LBhAycDi0F8RacxkKamJtE6B1wSBgTLVoCrQgLW3NwsWtTz4cMHqqyspNu3bxt14B7cKwsbGxu2TBgBLBhgjpD9K55NLdLKHcTO9evX0969exdkvuhwamoqZ7v37t1b0s0gliLOwmoBVnNMTAxn2P/mAYxluTEW98iYbAWMCe4Y++/KyxQkj5iDhoYGltUixWLRObhhJD7IOJF5YsHAjRUXF/PrKyQMizcmFOrr6zn1j4+P54z67Nmz1NnZSffv3xdXaIvXr1/zosUCRh176dIlCgkJoevXr0tbyOayyh0oDZv8eB7qPsTG7u5ubk9LS6M7d+6IK/8JBoqCHQq9desWxzTUj1oG48NGBDZwcKCuxTzIQorFYpUhdsJd4cCbHKw+pPY1NTXsdgwByRNc3/9lHxlVATZzZLt6IC150lld6IrVKAYpFq/aZO3+yACvBIeHh4W0usCGiimYXwoagkH/lIVSBQ9WYiU2rbFBjxjxp0H5hL+bwrabEpcW92+lQJmHkk8xAryGQ+ar1KrLRfnDPSX3WPw7S6H/t51G0WOsRtEVq1F0xWoSol8XKew39AY+igAAAABJRU5ErkJggg==;" parent="IuaTcRtPijXqOsnX0eB4-1" vertex="1">
          <mxGeometry x="905.0100000000002" y="351.11" width="90" height="25.93" as="geometry" />
        </mxCell>
        <mxCell id="vuEfzPaLM79mjF0In50A-20" value="w.r.t an orthognal basis" style="text;html=1;strokeColor=none;fillColor=none;align=center;verticalAlign=middle;whiteSpace=wrap;rounded=0;" parent="IuaTcRtPijXqOsnX0eB4-1" vertex="1">
          <mxGeometry x="885" y="490" width="130" height="30" as="geometry" />
        </mxCell>
        <mxCell id="vuEfzPaLM79mjF0In50A-21" value="" style="shape=image;verticalLabelPosition=bottom;labelBackgroundColor=default;verticalAlign=top;aspect=fixed;imageAspect=0;image=data:image/png,iVBORw0KGgoAAAANSUhEUgAAAMUAAAB2CAYAAAB4ZlcrAAAAAXNSR0IArs4c6QAAAARnQU1BAACxjwv8YQUAAAAJcEhZcwAAEnQAABJ0Ad5mH3gAABpZSURBVHhe7d1HrxxF1wfwJj3knHOOBhubZCMLwQKxwQKJTwBfAbHm2fEp2LBggcTCIkoGTDDJGGzA5JyDyTm/r3+lex41ozsz3T3dc3vG9ZdKM/feud11qs7/pKrq2e3/dqLIyMj4H3ZfeM3IyFhAJkVGxgAyKTIyBpBJkZExgEyKjIwBZFJkZAwgkyIjYwCZFBkZA8ikyMgYQCZFRsYAMikyMgaQSZGRMYBMioyMAWRSZGQMIJMiI2MAmRQZGQPIpMjIGEAmRUbGADo5jvr3338Xf/31V/HZZ58VH3/8cXHssccWp5xySrHHHnssfCIjYzJ8//33xZdffpl0bffddy8OPvjg4vDDDy/23HPPhU80RyeeAiF+//334t133y0ef/zx4u23306dz8hoC999913x1ltvFa+++mrx5ptvFp9//nnx559/Lvx1MnTiKd55553itddeK3777bdEhrPPPrs4//zzW2FxFRDpn3/+Sff/448/in333bfYZ599Fv7aL+irMdLXb775Jr2yegcccECx9957T23MugLj+PPPP6dXc2EeDjnkkOI///lPsdtuuy18qj6Q4osvvki69sYbbxSnnnpqsXr16uKwww4r9tprr4mu3Ymn+PDDD4vHHnssTfKZZ55ZHHPMMcnFTQsIQdF++eWX1Idff/114S/9A1LwrBTngw8+SBPM6v3000+tWb6lBCJ8++23xaefflq8//77STbEJ/ck9pjhOOOMM5LBE4mISn744Yd0v0muC616Cuz9+uuvi23bthVbtmwpVqxYUaxduzZZhv33378yeym0Rrk1zNeGgRUy0CyHPIb1oGCsR7STTjpp4dP9APmQ1XghgviYlTPJQeKjjjqqOPLII1OszHPMEsT85gIhEJ6a8Q4h89FHH10sX748ySzXrGvZQ223b99ePPnkk8mwHHTQQckIuy59a4pWzbcBoJCsMyXWSZNqQusITWEwnqKz9uMsJlKwEmJLOcwdd9xR3HbbbcUDDzyQEv0ff/xx4ZP9AbLr10cffVQ88cQTxcMPP5x+NlaffPJJ8cILLxSvvPJKsq597P84IMXrr7/+PxnoBiDK/fffX2zcuDEZAsrcxC7TJ+2II45IJEC4Z555Jt2P3kyCPf67EwvvG4MSU1xJD9YixDnnnFOcfvrpiRR1QyfWhCJoBtP1RjGfghkg8feBBx6YSKI/+nD88cen8I3V7ROQXd6FyMbnxBNPLM4777ziuOOOSxMMQgIez+9U8GYBlNz8SYIpvjlctmxZsuDmAAF4DuTfb7/90px5HRUJjIJ5N168jzDKtXghv9OahO2teAoDgZ2s3nPPPZeUcuXKlcXJJ5/cqAzLS4ipeRwhkfejYEANhvtdcsklxUUXXVRceOGFaXD6CuNlEoVOhx56aLFq1apUtkbgc889N71/7733kudjXWcFkR+FLng94YQTEuHNj3bWWWelKEKewZPTl6ZALgZFGObeQnjXpTuMdRO0Qgqu0gQaDBMcOURYvK7BGrA47qdigyRN4tRpAimEmmJi1lRVJgxI9N1nIuFuMfXrFLw2o8YTkstrWTnNlXnyGcrL6Hk/KRhA1SeRwubNm1PU0jSMaoUU2GmCTSDGIka4xGkoZpkUlCtI0cR1TgusI0MSpEDmIIN+l0lBaZBiFoiBAGQLUgilyqQgo/kJUsgr2iAFD3vppZcmUvBQSOHeTcasFa2RSG3YsCHFddYjuLOwek1AIfx/KPok18roJygrsvAsbUDVTv4qLKMvohblXwa7bhg1ESnCelmXkFSJ4yRVVUkRAzPYgt3hAZBk8DMGMz6XMXsoz30b8yhCUImyfkFneCq5WJPcYiJSKIOqjnDzYjrVBaET1lYJmyRhqlWbNm1Kr9GefvrpFBc+//zzqTT57LPP/uvvSm9cpCRNctWWtcmYXYQBpX+nnXZaCtFUwOhI3UXQiUkhdEIKhNAk2VhbhRSYTLkRoNyQwQLgiy++WLz88svF1q1b//V3RPE3/z/rpKgyTvMIckdrA64jOkEKi7VIodzN8EZOVhUTkcIaghuL39TRuS+EiJBnHJTqrHgPtjVr1hQXX3xxKqvKUbwv/12VQenV/7tXnxPqYdBnHlViKMmO5HpXgXmLtYo2c8Yo0RpL5W5lb7mupLuq8WysTZgnXiuTwnaEqKJUgYW1yy67LJGAokcLQlxwwQWpZu99+e8IYR3EotYwUuhfG7FqVzBGytYSwyDFIEzsLJJFf6MNIualTIrFZG8K12QsXRMhVPi++uqrlGNU1YdGvYnFOvGaUEcYxWXJK9pgfXS+iVL7HxYhkjitj+EVIljxV5jg6lkzpUx9NbbiYOVtE2yihylZ30DZeUBkF8pE3yOhJiNjSr7IQ9tcz0Iy5VkJt7FU0kYK5eGqCXdjUmCePTpieze2AttkS8cw1CGEz2qE1rcgQvwcrU/kEGYOksKYUhbjSXl4XhsZhVizQAhgFCkmpaQP+m4egujCmKgIdUUK13V/YyaK2bFjRzLcVee/0d4nkyafkCSrDNkNe/XVV6ecgoCTTqCB0yiGxuJow2DAWQKVMPuJLCRSMlYL9EeyZcJYrj4AifULIewIMHF+FxsbFRHILHy0h2uU/H0Dw0jpjT+PYS4t0pmTWLBTkCFbeMI2Iowy6ILQiddybfeTa/DQ49DIrFPCsGwmFjtZtTrbw6uiyvUQJyphKlX6ZjAoGUthIigaC9UXmBze1T4gk2ahSf/10+5S2x94kiuuuCKFA7MCspCNAl555ZXpzAO5VA1feumlNBcgNOQFWfU2PUUACRxuowdRmhUtVEEjT6HMZRk9tolLjCXLQoI2wKpztREGsZLc4TCExTUAEXLIcezMVLOmfJJyrnqSffZtQ78pUcTB+qj/3uu/fpN9Flf1Y07IRgZFFV6BjObHxsCILLqAlWwRDQ8selAIoqdV5r/RISOLZ7Z12NqMgevWrStuvPHGFD+2AcIIh1h5jTWpYi0jjzAhZQ9DRI1itVnpaAv6zYqRmzFAbgZGf2eNDIMgD08eOV0YrwhtuwLv5GzFvffeW9x1113FDTfcUNx6662JlGXdWAyNNETYFAdEWLa2E0HWwzVdG8Orkk0fQvEHm9+32cc2Ef1mVcXXQQj9nnWQw3ySCRmGlZ/bhvuFbrqf6EPuRnfHJdy1exdxepCCC5RMtSmoQaQc3G6dkIdy6YfmfbTy7/oI/aI8JpKsES71tb91YNzLpPDe77oG8slb6JH78VZBinHBUa3eIYFKgosjhYuLFd18GoJmZFQFoyJUE6YxLvRWAUaI2qqnKJMiSoixUJJJkdEn0McgRXgKpJCrtkoKcZnQyYWVQCVRceOMjD4hwmYhmzCcnvISjHqrpEACF45WJsU8xL8Z84PI08qkYNCRovWcQqLCFbmwG7mp10yKjD6Boaabqk9yXok+I661SgoXRAphlAvHjVUUMjL6BF5CBQopeAqkYMxbJ4WLWRzTIJKZeSkfZswP6GYYbVs+vI8FYRHPqLyiFilcyAWRI27KS3jNyOgTIqcIb0Ffy6QY5S1qk4L7cQOLIm7m1Y2zp8joI8J409vYD+U9XR5GjNqJth2yCGDlFSFiBTaTIqOPCFII+S0jIEWr4VOsCnJBbqZlZPQZdFTeyyvQX0Wi2H09DLW0WvbucJEKFM8wbVJETqOFC9wVYYLLrc/Qv5g3c+Z1mn0OT+Ge9Bcp9GdUH2pptQth2TSFKoOHsufKqTRHYbnDXQ0mlHLF8c6lnI8q0EfbghyachqurWfHVkWQghFHyCrjVZsU0aYJg6hy4EATUhhYxHAg3YCzAPMKY02xuH7xsGSR/MbBz+NCgaWCfpkX82aenCx06s6rnyO271qXkCE8BT0ylnHPYfeeOP6ZRoLthJ9DTR6MRhkohhDO8cb169en45vjXOKsgkfwWFIPgPPFLnfffXdx++23F3feeWc6Zlme5D4hzpqbI4d9EAJRGDMHf8hiLqcVTiEovUFS7/VlGBqRIvIJdWCvXREjYlFu1+MynfRjMUMR/PzII4+k5/tEAjVvICvL6hA+o2Ac7rnnnuLBBx9M49I3T2Fe9Efu6RioY8tCXcoo4eXZPezCo5F4PPPZZf/ppmYc9YEx9b51UhAuyrFOi3W1zSNyCGGTwXSYyRMDPQXC+WsrlQRkAVgiLnneYKw9KsaZbbL78hM/G3NGqW9gxMybc/yeCezVAxh8KU2cO/dAAccNkEXjDacFBAljvhiQuhYpsIvrcWFk0OwpiUSmbVByMSirY+CQwgAbWIffEZOH4KqRx2TMG5AinnzhyRjkt5enqzGfFHSENRYmxfN+HUSLr1pzRtr80R2GDCm6TLwpeTk8M2YIMYwU+l+LFJTPgXCWG9tMTJfgHdwPIWJTVxkE4CkQNdzivMHk2b/DAJS9MtnLk90XhOFkoCJc8bsAeciACEgxjWpUmRhe9WdYyEbHa5GCoIQgbLCtS2vlPiyNQbOlxHaSMkJApPFZkzFvMMbkDq/Mc0BfSUHZGCdzghDmpKyA5GFMfSZC4y6NWRAixsqr/gwjhX7XIgXvgOV9cd0GmJIYfGSdx/BpXhHKWfYiXYCeRqsCxqcWKUIJp5ngBcMXg/5orJFkG8v7AH0OD4aocqMqjbfzyjO6xijZZx0xRojRtZx1DDhvXJsUvARSTMNTGDQKMsya+L1qh75Ewr/UMMHCAQquZKz0GM/cHdU8YO6pp55KnxcyDoYd84hpEj/01Wvo8GJg9GuRAqYpSNxr2D0pDVIQktuLeHspoZ/ISqnFy6ornqI4rildWnfwHqFcYzGZ5wWUMzx91yjrj/tGWwypTwvvK0E4oDwqJJiGFZO/qLpQdvcbdk9eQt17MBFfChhs/VUY8BxbX3TvS2Z8ne2o5strLr/88vS8U09FJPsohSlP7rAJ7jNijKx1dRmOh+EMIxNGa5gu+VstUriQcMZNgnnx2gWUItXoDSBClu8b8DMyIMVgyXYpQEHDc6nJe6q4Gr0Fx1HNopzFOQtbHvdI5sVIQd5o0DdC6I9+R4gyKEMoqb9ZfEWMLklhnNwzSDD48yDody1SEMAikjUDF8WqLuE+rK0BVtO2bmFAQyD39zOraoD74Cm6RIx5tJjcIEgfEAaBh7fYyrAhSvST0imKmLcuvrRlEGWCVoFKZi1ScHVcO6scjOsSBtXj292XpxBrC980A+v+Bh1ZkcL7eUMokslSmbJXiJKZ5BiT2A/W9XxUgX6Fh/cdFQybvsuv9FVj3Mjg6ZJdfT9FIMYKObwfB+NYixQYR2BCVLnBpHAfCm97gBBD8hpVGhvjCOBLIm19YHFYqHkDQljkslPYbmCJOGNBofzeLtT4skMkWWpQQGGsfU7XXHNNCgdtDHz00UeLLVu2pL7qJ0/iOyoif+oaVfU1PQJ24X0lEFiI4rUcm3XlvsXVFB0pfFOqwY5KjeZvSGEvDU/Rh5yibQiTFDZ4RhbWzyywfVAQZ0pYY39barDIlFw+pXCAFLE9SCWOLObNpkafifypKyDDYoQYRhJ9q/WlLerp9sH7fmI1+GuvvTZ9WQtXiShdeQ/nwk2+AU0x386B14RVGhetzSPE3pQqQg+hkt8BZYrKG49qQqdhdasgQj5hk90GvLq+RijDiPF2XYe8POmmTZuS3j700EPF9ddfX9xyyy3JS9EdfSmDkW9ECnvkHSBBiptuuil9RwUP0hUpAmJqxDCwmgGdR+8wiPDG8RrjHFMXRsLvu56DukCGyHl4MqQVOgnFpwE7dZFC+KZdd911xc0335wKRvRnkBS1cwoD7iImgyVwgXI1qGsgHosYO0a7dLt9Qox7GIPB1ldCgP4xXKyyuVtMEbsGfXVfeScPRW+GjRV9rtU77CYgofxzsD8sVteIHEMfIrfZFRAKH8TwGu/LpOgj9I13MGcU07z53bTAYNNRuoMQyGnMYkwHQZdr9Y5QQiUXdrNpeYiMjKZAiFj4hXHGA4FrkcI/xHYKXiI8RcS6GRl9A92kp/STtxDtjPKs6e8L7yuB23FhRFAJkfiqMLhpRkafwZALn2Iv3agQrhYpXMgFsY5LUlXwGkzMyOgT6CQDTj8ZdFFO66TgciK5g7ih14yMPkHYJI9guGPPnFw4qpajQqhG4ZNXF0QGWy/cMHuKjD5hkBR0NUr59Lc1T+FiSmuIAW4U4VNGRp8QCXbZUyBFlXWSWqQobwhEEDe2iJc9RUbfEKSIfWPeC5/o77iybC1S8BDcj5bquTsZx1vknCKjb6CTDLYKqb1zwnxRDr1tnRRckGbJnrfIOUVGH1HOKWyo9D48RavhU5DCrlg7HDHPDa1VZFJk9AlRjkUGoRPdtU2dMW89p0AEh1xs9+Ap4kTVNEhBSJ5Jcj9Pi4YxgeQSA3P7ft4VDU3kApNGHxE+aa4nbEIKRr1VUgRidVDHHfpBDJ3oGoggPvTQZQdWkHHWEYTg5snluyiMJ4IY310NFNi8mmsEaYq4jnE1xsImpGDQOyGF2MwxQgmLZxU5ADSJAONAOA8Ic1hlx44d6RhmfDNOkGPWrKr+UnqTTy5k8GosQy7k8Pd5JAf56Qzyqw6ZX0dufdeII6vmeZJIABmMpVdGnIdACJHOuER7j//uxML7yggWmzhPtHMcdPXq1emGXcDZZGeyKQl3KMQgrCOpDjwRWo4D4wTuC4yfcUTuzZs3pxNi4l5unlI42UhW8vhdV2O7VIjwhvIjAj3auHFjGgcEYc0nOZlHN3zJDWOjArVixYr0bC0GfRwaeQp7SBxMV5olFGUV67cdQrme6wrRtm7dmhSIkshlKAqP4WuvCE7BJrEs0wbrz5LpO29LEVhPY0pmsjnd6NA/SzpvIKv55SksrpljSqyR21wjTVN44gtjKorwRBgHjOTEVdCIFBGfcUmUlDJiIwHbDGMouhwC6QjJ/XlgmLZs2bJETl7DZ4Qc+jArMFa8AQUgx8qVK9NTSZwd9t5D1JDFEUqEmTfwBIwb2cnsm6k85MDDDBi8SSEU5X3ojYc8IAZPXAWNE23CSLbjwWiYjfFt5haUnEIo+7ouEnqyRzQhBeK4L2J4PytACmGD8I8FE4KyZoyN90IHE8tykm3ewJiS25yS1XzKU+lTVYu+GCK6YEiFobyNqMa1O/UULs7Nu5HnMWEgNy/HaDOEwnLJl/zB2shgfIkovBQFm7XwSZ95iW3btiVSMzQsZ4SHLGkQ3sSStU0vvNQIOSMJFuvzEDEGTYEQwk0GNQwpL8HYuHYVNCJFCMOycXmEobwsm1i5rckTGkUVIgatDEIjIdIYCIo2KyCTvEFOof8MS5QK49UEzxrZq4Lik5OBpUvm1vtJCAHGks7QBYTwfCnGW2TTKSmC5VydOJgFF+Zw82HVpglWASGRaB7AqMyTV6iKNmSmC5J2xtJziIWi8VyBMDbj0JgUmpBGEiO215FQTMRoQ0DXqBI2uN88WVTyRusbomIkz1M94+2qNNab0aS0i4XYbcjsf4MU9AYpJPG8BG9U1Qs1IkWAp1AlQQqVErVhA0VB25hQg0fhFxvEMsIFV02kMppDSEe5JbEeNGaNxTc1jWo+oxIU6wZdhLlBKCXYyG2Rokk1ayJScEkqB8ghJhbPtVmFCo80juGE1peqJbc+gExC0HIuMQugePJGxsp8M4BVms8ig/9bTDeqzvUwhAdjlGPhEylUtYxxnetONBsmlUJ64O+aNWtSOOVBulxlG6QgjHxlnLLzVMrDs7TqiwgqeJLBWSIzj2yexerLly9P37zk25pGNZ+x9mJ9ia4Mm6emhACEUIYVsWzfvj2FUUqxPEXdCGIiUhACMdyY4Ky1hy+3VZqlNKoHlIa1wf5wk2WYKAt7XmcFJopy+X4G8glLjBnZIo+iPH3zgOZbn/TdvHsma5WGDLEO0YU8chwhndCOwaEPxrZO1SnQit+muKyGm4sddU7SO6i8dWHgrXRSdkm8eDEUpwx/Z3Hrxo5LCX2lLORDkFiPIFsQhAJRPEo4SWjRJqIfFM98V20+r42SYRJ9kcz7/gtjeNVVVxWrVq1qvG+qFVJgI1el9EVorFUBsPg2SRjlQAilwHpACts5YhcpxUGcaLMUPumrmNfiJ2Uhk3iYpSObV/ma7Sxk6wMhAkGMpg0QwPzFWpTQR94RxjTygzhfPYwwsdMYKewQAF+8af2sqT402iU7CJPK8kVVAUNNKjfJhbEUTWAAXdegIZj3BkmVC+mQD3HEqqpgwq1ZqUCRjYfTrPGQxziJhcXEiGEl1u5OBicMw7wAIXhEhRkhN4U2DhTc34xFbJk3x3SpTKqA8UIIOyqMmxBNfitcow90sy5a8RQUERHUhG0hF8rooKSHkCFcXbgupeEtKL5wgmXRDIaffcORAZi1nCIMBoWPrybjVcNaMgA8Scg9b2D5yYsAQh4ksBVDtYgeee8zxmJUtBG5hFfjxLvSF4WXxsZ4540nC/xLEN7onC92ue+++4q1a9cW69at+9eO2ibgHTQE0wIsiOsihPezhFAK3pWlk1OEVWNBTWiUuxGk6QT3FWSP0IfOhDEIAjCI5DavFNz7xfTHWomdxMZT+C5HY0gYmab61iopXErbsGFDsX79+rTarSqF+UKBSSfWAJa3ckhACT/LMF6sJYUIxeBFKAHP10Wlpg8IXUGCUZ6AoaA3gwpunHgYhR1GmNd1iIinYYQnGbdWwqeAjmvcvm/GlCBislXMUYJXBUXhFaL5edZhvEw6WXg9RQuvksR58w5lhK6QkVcY1hYjBDCQ8hFG0nipgPKsk4RNgVZJAQQQI0sQsRYQglWYFAYpklPNz/OAMjGQwSvZmiSJs4QgBjmHtcUIAbyr0NN4WUgUicQCrv+bBK2GT4FwbWJlbObaJMMmepiQGRl1IA9R4WRwGRS5By/bhqHshBSBqBKpTIn/RzE/I6MO5F90K8LOSUOmMjolheqCpsPZS2S0CeET3WJo29atTkmRkTGLmO9MLiOjATIpMjIGkEmRkfEvFMX/A1sgpxAAt6zZAAAAAElFTkSuQmCC;" parent="IuaTcRtPijXqOsnX0eB4-1" vertex="1">
          <mxGeometry x="883.2200000000003" y="400" width="133.56" height="80" as="geometry" />
        </mxCell>
        <mxCell id="vuEfzPaLM79mjF0In50A-46" style="edgeStyle=orthogonalEdgeStyle;rounded=0;orthogonalLoop=1;jettySize=auto;html=1;exitX=0;exitY=0.5;exitDx=0;exitDy=0;entryX=1;entryY=0.5;entryDx=0;entryDy=0;startArrow=none;startFill=0;endArrow=classic;endFill=1;" parent="IuaTcRtPijXqOsnX0eB4-1" source="vuEfzPaLM79mjF0In50A-23" target="vuEfzPaLM79mjF0In50A-25" edge="1">
          <mxGeometry relative="1" as="geometry" />
        </mxCell>
        <mxCell id="vuEfzPaLM79mjF0In50A-23" value="normal operator" style="ellipse;whiteSpace=wrap;html=1;fillColor=default;strokeColor=default;" parent="IuaTcRtPijXqOsnX0eB4-1" vertex="1">
          <mxGeometry x="1541.92" y="300" width="120" height="80" as="geometry" />
        </mxCell>
        <mxCell id="vuEfzPaLM79mjF0In50A-25" value="n-by-n matrix (operator)" style="ellipse;whiteSpace=wrap;html=1;" parent="IuaTcRtPijXqOsnX0eB4-1" vertex="1">
          <mxGeometry x="1296.92" y="300" width="120" height="80" as="geometry" />
        </mxCell>
        <mxCell id="vuEfzPaLM79mjF0In50A-26" value="" style="shape=image;verticalLabelPosition=bottom;labelBackgroundColor=default;verticalAlign=top;aspect=fixed;imageAspect=0;image=data:image/png,iVBORw0KGgoAAAANSUhEUgAAAIkAAAAhCAYAAADta4hKAAAAAXNSR0IArs4c6QAAAARnQU1BAACxjwv8YQUAAAAJcEhZcwAAEnQAABJ0Ad5mH3gAAAQ/SURBVHhe7ZpLKHZdFMf/7ndyLbcIuSUGysBAGZi4lDARysxIiCgTtxJGpCQjA2ViYmJiIAND5VYit1xyl3su4X3Xcl55349vP+c8Z5/n+972r07Pc9Y5e/es5b/XXmcdTjExMW9QKP4FZ+1TofgWJRKFECUShRAlEoUQJRKFECUShRAlEoUQJRKFENOaaQEBAfg5F5ycnDSLmLu7O2xsbMDLywvx8fFwcXHRroh5enrC+vo6Xl5eNMt/B9n+WB0v00RSU1ODvLw8vL6+8g96e3uDs7Mz3N3dWTgPDw9sIzw8PNjB+fl5dHd3o7i4GOXl5Xw/jaU5aAyNpfseHx8/nHNzc+NjZ2cHzc3NH/bS0lJkZWWhs7OTxedIZPtjxvx6cNU+7cLPzw8pKSlYW1vDwMAATk5O2F5YWIjKykrc3Nygt7eXswaRlJSEpqYmXFxc8HlGRgaPGRwcZLUTmZmZaGhoYOeHhoYwNzfHdspY7e3tuL6+ZofLyso4OL/OIyMjUVBQgImJCezt7fEYq5Htjz3zG8GUmiQ9PR2urq4YHx//EAhBKZFUfHl5ie3tbc0KFtP5+TlOT0+RkJCA0NBQTE5OfjhMJCYmcsYhge3u7mpW4OrqCsfHx3wQNEd2djby8/Ph6+uLlpYWDhQFxRHI9sfe+Y1gikjS0tKwtbWFlZUVzQJOe1FRUfx9c3PzNxWHh4ezeI6OjngsZZSZmRnt6jtU31A6PTw8/EdG8Pf352ASs7OzvMookGFhYVheXsbY2BgHxxHI9sfe+Y1gikiCgoKwsLCgnb1DW0pISAien595P/wMbU/39/fsEKVTEtdnEdFKITvVMCS+zwQGBvKcBwcHfN7Y2IiqqiosLi7yvZ6enujp6eFgOgLZ/tg7vxGk/avAd/WILXy3v36Fj48Pf+bm5nKabm1t5aDZs3LMRrY/euY3gjSR1NXVIScnh8VB+6oeqHIvKSnB2dkZV/eUcUSkpqZyDTQ1NWVTgUZ7e319PRd2eqC039/fr0v0sv0xMr8epIiE6pG+vj7ExsZienoaw8PD2hXboNVDq2NpaQkdHR2a1VzoN1KxR08SevjV29GDbH9kzy+l40r1CNUpX9UjIii1UmH71f5qJrQ6V1dXee/Xc+gViGx/rIiXFJFQz4T2VqpH9AaVVjcJjBpCMkViFbL9sSJeUrYbq+sRI0RHR6O6upp7EXq4vb3F6OiozY062f5YES/TRUKPt11dXfxHMFKPtLW1cXNOZj1CGK1J9L4Dke2PFfEyfbtJTk5GcHAw1yP7+/ua1Tbi4uIQERHB321dqUYxWpPQGFsFItsfq+JlSiYpKipCRUUFd1G/gh4bqVdC7fg/oZdYtbW18Pb21iy/Qy8GR0ZGuBP5f0C2P46Il7Q+ieLvQcrTjeLvQolEIUSJRCFEiUQhRIlEIUSJRCFEiUQhRIlEIQD4AY6lfavikBTtAAAAAElFTkSuQmCC;" parent="IuaTcRtPijXqOsnX0eB4-1" vertex="1">
          <mxGeometry x="1552.7" y="350.73" width="98.43" height="23.71" as="geometry" />
        </mxCell>
        <mxCell id="vuEfzPaLM79mjF0In50A-43" style="edgeStyle=orthogonalEdgeStyle;rounded=0;orthogonalLoop=1;jettySize=auto;html=1;exitX=0.5;exitY=0;exitDx=0;exitDy=0;entryX=0.5;entryY=0;entryDx=0;entryDy=0;startArrow=none;startFill=0;endArrow=classic;endFill=1;" parent="IuaTcRtPijXqOsnX0eB4-1" source="vuEfzPaLM79mjF0In50A-28" target="vuEfzPaLM79mjF0In50A-23" edge="1">
          <mxGeometry relative="1" as="geometry">
            <Array as="points">
              <mxPoint x="2166.92" y="280" />
              <mxPoint x="1601.92" y="280" />
            </Array>
          </mxGeometry>
        </mxCell>
        <mxCell id="vuEfzPaLM79mjF0In50A-44" style="edgeStyle=orthogonalEdgeStyle;rounded=0;orthogonalLoop=1;jettySize=auto;html=1;exitX=0;exitY=0.5;exitDx=0;exitDy=0;entryX=1;entryY=0.5;entryDx=0;entryDy=0;startArrow=none;startFill=0;endArrow=classic;endFill=1;" parent="IuaTcRtPijXqOsnX0eB4-1" source="vuEfzPaLM79mjF0In50A-28" target="vuEfzPaLM79mjF0In50A-37" edge="1">
          <mxGeometry relative="1" as="geometry" />
        </mxCell>
        <mxCell id="vuEfzPaLM79mjF0In50A-28" value="isometry operator" style="ellipse;whiteSpace=wrap;html=1;fillColor=default;strokeColor=default;" parent="IuaTcRtPijXqOsnX0eB4-1" vertex="1">
          <mxGeometry x="2106.9300000000003" y="300" width="120" height="80" as="geometry" />
        </mxCell>
        <mxCell id="vuEfzPaLM79mjF0In50A-33" value="" style="shape=image;verticalLabelPosition=bottom;labelBackgroundColor=default;verticalAlign=top;aspect=fixed;imageAspect=0;image=data:image/png,iVBORw0KGgoAAAANSUhEUgAAAYAAAAEgCAYAAAC926RRAAAgAElEQVR4nO3deXRU9d348fedNRvZCdkgQAIkYZEosqOggGxSQDxotdpqLdXWYx/qT2yFtraiT7W2ovWxi3XtIlbUR21FRKhUFoUIQpCd7CELJDPZZp/7+yNPbjMkyJbkTmY+r3NyDnPvZebDaO7nfrfPV1FVVUUIIUTYMegdgBBCCH1IAhBCiDAlCUAIIUKE3W7H6XSe9/WSAIQQIkTs37+fF1544byvN/VEECdPnsTv9/fEWwsRICYmhri4OL3DECIouN1u3nzzTZYvX47RaDzn9T2SAC677DIefPDBnnhrIQJUVFTw61//Wu8whAgK/fr1Iycnh6amJuLj4895vdIT00BTUlKora3t7rcVopMVK1ZIAhDiDHPmzGHDhg3nvO6ixwBUVUVVVXw+H7KUQAghAul5X0xPT6ekpOSc111UF1BpaSmfffYZAOXl5XzjG9+gf//+F/NWQggRkhRF0TuEc7qoFkB5eTkHDhzgwIEDtLa2YjabuzsuIYQQF+n666/n5z//ObW1tTgcjrNed0EtAI/Hw5NPPsnJkydZunQpAIMGDZJZGEIIEURSUlJ48803KSgoYPr06YwePbrL6847Aaiqyssvv8xzzz3HX//6V6ZMmdJtwYre4/f7KS0tpampSTumKApWqxWDwaC99vl82nmPx0N0dLQ2qyAmJgaTqUcmkAkhukF799OZv+tnOu/f4srKSjZu3EhaWhq5ubmXHqHQhdvt5vnnn6ewsFA7ZrVayczM1G7qVquVxsZG7Xx9fT25ublMnz4dgIKCAhISEno3cCHEeRs0aBCrV6/m2WefZeTIkUyePLnL686ZAFRVpbW1lT/96U9s376dp556iqSkpG4PWPQORVGIjo4OuIEbDAaam5u114mJiQHjOrGxsfTr14/IyEjteiFE8EpKSuJrX/saGzZsCGjNn+mcCcDv91NdXc3evXsZMWIEgwcP7tZARe8yGo3MnDmTCRMmaMdqamr44Q9/SHV1NQBLlixh/Pjx2vnRo0czaNAgRo4cCfSN2Q1ChDOTyURCQgKDBg2ioaHh7Ned641sNhuvvPIK27dv5/nnnycvL69bAw11XWXf81mi3VNMJhNXXnllwLHdu3cHxDl69GhWrlzZ26EJIbqJ0WgkJiaGlJSUSxsDaGlpYd++faSnpzNgwAAZ/LsAqqpy99134/F4tGMDBgzgsccek6doIUSPMRgMWK1Wpk2bxquvvnrW6855N//b3/7Ghx9+yI9//GMKCgokAVygV199NaA869ixY3nsscd0jEgIES4mTJjAG2+8cdbzZ72bO51OSktL+e1vf0tBQQFLliwJuwVfDQ0NbN++nZaWFhobG7nzzjsv6MldURRaWlq01wcPHuRHP/pRT4R6wTouU6+pqQkYBJ4xY4YeIQkhullERAQmkwm/34+iKJ3uX2dNACdPnmTVqlW4XC4WLVrEsGHDejzYYFNZWcmvfvUrKioqOHbsGN/61rcuuP++44yZrv4DCCFET4mOjiY2NpZ//vOfDBs2jBEjRgScP2sC2LNnD1u2bCE5OZnFixeH5dS/IUOGsHLlSnbv3s2LL74YMt9Ba2trQLdURUUFXq8Xi8UCtM3zF0KEhoiICD755BMsFsv5JQBVVdm3bx9Op5OMjAxSU1PD8sk1Ojoau91OXV0dEyZMCJnvoKqqivLycu11WVkZOTk5REVFAWjz/YUQfV9cXBxffPEFdru907kuE4DNZuODDz6gtbWVZcuWaTeGcFRbW0tdXV1ILX5rbW0NmBvc0tKiLfYCfaepCiG619ChQ3nzzTepr6/vdK7LBLBv3z5KSkqIi4tj8eLFlxyA1+tlw4YNnDhxgqSkJK677jqSkpKC/olaVVU+/fRT9u/fz3/913+xatUqEhMTuf7668NyTEQI0fckJibS3NyM2+3udK5TAlBVFbvdjtvtJjY29ry2FfsqPp+PpqYm9u7dq60nyM/PJzIykujo6Et6756mqiqnT5/WvrwtW7YwYMAAcnNzycnJCfoEdjYnTpxg27Zt2usjR44wZswYBgwYAEipByFCybBhw6itrQ2YkdiuUwI4deoUe/fuxWw28/Wvf/2Spn663W4ef/xxtm/fzu233878+fM5ffo0s2fP5qmnnuKWW2656PfuDVVVVRw7dgyHw8GpU6d47bXXqKioYMaMGRw4cIDs7Gy9Q7wolZWV7N+/X3tdXV3NokWLyMnJ0TEqIURPiIyMxOVy4fV6O53rlABaWlpoaGjAbDaTnp5+SR/sdrtZv349DoeDWbNmkZiYSEtLC9HR0WRkZFzSe/eGpqYmnE4nERER3HDDDaSnpxMVFYWqqgHVMoUQIlglJSVht9ux2WzU19eTmJioneuUAEpKSti/fz8JCQlcddVVF/2hPp+PFStWsHfvXn7961+TmJiI0+nEZrPh9XoDphr6fD5Wr15NZWUlq1ev7vYnUY/Hw+uvv87p06fP6/o77riD6OhoSkpK8Pl8jBo1iuzsbPx+P6dPn8bn83Ho0CEKCgpwOp3ce++9PPTQQ32iUJ7H4+Gzzz5j06ZNAccLCgq47LLLdIpKCNHTPB4Pra2tXScAv9+Pz+fjiy++oLy8nFGjRl3SU7rP52PHjh0AWkuitbUVm82GoigBXUtGo5Hhw4eTmJiozUTpTu1dUfv27Tuv62+44QYiIyNxOBzExcUxYMAAzGYzbrdbm0rV3v9vtVqZOHGi1n8e7NxuNzU1NQHHEhIS6NevX9it9BYinHi93k7bQ2oJwOfz4XA42L59OzabjZEjRxIREXHRH9bU1ITb7eaaa67RnowPHTrEF198wWWXXUZrayulpaVkZ2dz4MABCgoKiI2N7ZEbaXR0NHv37j3v69tv7sXFxYwZM4aCggIURaGpqYnXX38dg8FAWloahw8fxuFwcN111/WZufOqqnaqUGowGDAYDH12UFsIcW4ul6tT13VAAnC5XOzZs4empiaGDh2qrQy9GBaLBYPBwNixY4mLi8PtdvP++++zdetW5syZw5/+9CciIiK44oorePLJJ7XSpU8++eTF/wu/wsXc3IxGI9nZ2QwZMgSArVu38sc//pFZs2aRkJDAE088wfHjx4mPj+ett97q7pCFEKLb+Hy+gMrEANp8P7/fj9frpampCZ/PR2Rk5CVNBzSbzcTHx2uJpbS0lIqKCpqbm4mIiKC0tJTMzEyKiopISUnB7/d3OU9VTwkJCVq/WWNjIwcPHiQ2NpYJEybQ0tLCgAEDiIuL69SsClaqquJ0Oqmqqgo43r9/f6Kjo6VWkRAhzu/3B7zWWgCtra1UVVVRW1uLyWQiNTX1klaERkRE8MQTT7B161b+53/+h5iYGObMmcPixYtZv349I0eOZPHixXzwwQcMHjyYoqKioKtBs2DBApqamjh69ChPP/00MTExbNiwgby8PMrKyli2bBnvv/8+WVlZeocqhBBfyeVyddocRnvE93g8tLS04Pf7MRqNWCyWS34aHD16NNnZ2djtduLj45k8eTLjxo1DVVVGjhyJoijMnTuX+vp6UlNTycrK6nKuql4SExO1wenm5mYmTpxIbm4uiqKQlZVFVVUVNTU1JCQk4HK59A73nFRVxeFwUFxcHHA8JSWFmJgYnaISQvSGrxwDsNlsHDx4EGi78XXHDSEuLo5ly5axbNmygOMvv/xyQHLZvHkzqamplJWVsXjx4qDZdlJRFGbPns2sWbO01x099dRTJCUlsX79ejIzM7U9c4OR2+2murqakydPdkqy/fr1w2q16hSZEKI3tHfzdxTQAmjfFMRsNvfozl8db6SqqmKz2diyZQv/+7//G1QtgHZn6xuvqanBYDDw4YcfEhcXp0Nk58/j8VBXV8epU6c6fcdRUVGXNOAvhAh+Pp8voAw8dGgB1NbWavP2u6sFcD4UReE73/kOH330ERkZGYwaNapXPvdSqarKb37zG0pLS5k+fTqZmZl6hxSgqakpoPpfXV0dx48f59SpU52ubW5upqSkREv6MqYhROjxer2duqq1BNDU1ERZWRnQ+0+Es2fPZvbs2b32ed1BURSmT5+udxhnZbPZOHr0qPa6pKSEsrKyLmuCNzY2cvToUUkAQoSwrtYABawEbs8ORqNRKkL2cUVFRbzwwgva67q6Om0f4KuvvrrT9a+++qqW9GfOnNk7QQoheoWiKKiq2mkaqHaXdzgc1NbWAm3V46RPWAghQkNERARGo7HT+F+nlcAgm5eHgrlz5zJ37tyAY+0tACFEeGl/+j/zHmBqP+l2u7U5oiaTSbqAQpAkdSFERwZomyLo8Xi0AQKj0Sj7wgohRIgzQNv0oI6DA1IZUgghQp/WAug4PUgSgBBChD5tDMBgMGA2m1FVVSvlLIQQInRpCaBjrWiv1yszRoQQIsT1XMGfDlRVpbi4mIaGBgwGA7m5uX1mBy0hhAhVvZIAAHbt2sWBAwcwm81kZGRIAhBCCJ31SgIoLi7m7bffZuPGjSQnJ7Ny5cre+FghhBBfoVdGeocOHcqDDz5IRkYGgwYNwmw298bHCiGEoG1xb1c13nqtC+jAgQNkZmYyfvx4mWIqhBC9SFGULqf399pcz3Xr1pGXl8fVV1/N6dOnO1WlC1Z+v5/W1lZqampkZpQQok/y+/34fL6zVwPt6Q8vKyvTmiBVVVXU19cH/XTT9l20Tp48SWlpKU6nk4aGhk41tYUQIpi13/y7LAbX06qqqti3bx8DBw4kIiKCnJwcli5dymOPPcbs2bODckNyVVV59NFHKS8vJyUlBYvFwpo1a9i7dy87duwgPT1d7xCFEOKS9EoCsNvt+P1+UlNTGTNmDEuWLOGee+7h6NGjQburlqqqbNq0idtvv50JEyaQkJDAwIEDgbba2kII0dcZ4D/1/9u7aLqzFpCqqnz22WdkZGTw4IMPsnTpUnw+H+np6bz66qs0Njbi9Xp56KGH+M53vkNVVVW3fO6l8Pv9rF69GrfbzaJFixg9erSWAKZOnUp8fLx2rcvl4p577qGlpUXHiIUQ4sIZoK34W3sJ6O7eDlJVVaqqqrBYLMTGxgJtpSYqKyuprKzE6/Xi9XrZsmULmzZt0spR6ElVVQoLC0lOTta6p5qammhoaCAzMzMgOTqdTj788EOampr0ClcIIS6KVguo/ae7+f1+PvnkE6ZMmUJSUhIAX375JT6fj4ULFxITE4Pf72fjxo2YzWasVmu3x3Ch/vGPf7Br1y5+8pOfaN09R48eJSoqKmDzerfbjclk4tChQ7J/ghCizzHAf6YItW8M052zc9qflocPH679ubq6Gr/fT1ZWFmazmbq6Ompra4OmG+Xo0aN4vV4GDx6sHSsvL8disTB8+HAtWTY3N1NXV6dtpSmEEH1JrwwCp6ena6t//X4/O3bsYPLkyfzsZz+jurqaH/zgB6SkpJCZmcmqVat0XyiWmpqK0WgkMzMTAIfDwQcffEBCQgKTJk3ihhtuYNmyZbz22mtUVlYyfvx4nn32WV1jFkKIC9XjCcBgMPC1r32N3/3ud5SWllJXV8eIESNYt24dBoOB1tZW7rnnHjZu3EhqaqruN3+AefPm8fHHH/PCCy/w9NNPY7FYiI6OBuCHP/whDQ0NTJ06ldzcXDZv3hzUaxmEEOJsenwhmKIoDB48mJiYGPbs2cPnn3/OyJEj6d+/PwDZ2dkoikJ6ejpDhw7t6XDOS3x8POPGjcNms1FYWEhxcTFjx47FYrFQWFjImDFjyMjIICYmBp/Px4ABA/QOWQghvlJXD9e90gU0ZswY/vKXv9Dc3IzVaiUqKiogqM2bNzNp0iTtBnvFFVf0RlhnpSgKd911FzfffDN+vx+r1YrVauWGG26goaFBS1pPP/00jY2NREZGsnHjxoABYiGECBbtxeDOnKzSa8XgzGYzCQkJnY6rqorNZsNut1NeXk5iYqLuCQDakkC/fv0CjiUlJWkzmQBOnDhBdHQ0u3fvpqWlRRKAECIotU/vP7MV0GsJ4GwURWHatGlUVVWRmJjITTfdpHdI523WrFkUFxczfPhw7r777i6vefzxx/F6vQDU1tbS2NjYmyEKIQQulwuPx9OpjpnuCQAgJyeHpKQkcnNz9Q7lgtx7770cPnyYlJSULvvXVFXlpz/9KU6nUzs2duzY3gxRCCEAulzrFRQJ4Morr9Q7hItiMBjIy8s763lFUSgsLAw4JjOGhBDBIigSQCjLz8/XOwQhhOiSCdAKwBmNRlRVxWg0BsV8fCGEED3HBG1ThNp//H4/JpNJEoAQQoQ4E7QVNXO73VpNG5fL1We2bBThTcZUhLh4vbYnsBBCiOAiCUAIIcKUJAAhhAhTkgCEECJMSQIQQogQpyhKl7WAJAEIIUSIO9uWv7ISuJfZ7fYuN76PjIzUNp0RbU6dOhXw2mg0dllRVghxbkFbCyicHDt2jH379rF27VrtmKIoPPXUU1x99dU6RhZc/H4/M2fODDi2cOFCHn74YVmkKEQ3kS6gXqaqKq2trTQ2NmobNBiNRm3P5FBzKQu1On4/NpuNkydPdmNkQggTtG3W0rH+T/vmAaL7tX/Ha9asCdj7INSeards2cIHH3zAqVOniIqKYu3atRf0bzQYDOzevVt7/eKLL7Jjx46eCFWIsGWA/xSDa/8FVRQl5G5Iwaj9ew7F77qiooJ///vfvP3227z33nsX1RLo+P2E4nckhN5M8J/dYtrr/3i9Xnw+X6f9I4U4XwsXLqR///488sgjZGZmSotSiCAkv5WiR8TFxbFjxw7q6+uZNWuW3uEIIbogCUD0mNOnT+N2uxk4cKBU7RQiCMk00CB36tQpfvrTnxIbG8v48eMpKChg8ODBeod1Tn6/n/fffx+r1UpkZCRLly4lLi6Ohx9+mIEDB+odnhACaQEELZ/PR0tLC9u2bUNVVZxOJwcPHuSdd96hurpa7/DOqbW1FZvNps3mSUxMxGKxUFRUJK0BIXTQ1UQKaQEEqb179/LLX/6SU6dO8eKLL2I2m1m3bh0rVqxg1qxZpKam6h3iV/roo4+or69n8uTJzJo1i5tuugm73c6Pf/xjZsyYQUREhN4hChF2pBZQH3Hs2DH27t1LRkYGqamppKenEx8fj8FgIDY2VrvO5/Px+eefc/To0R6LpX0J+bl+OqqqqgIgLS2NkSNH0q9fP+Li4mhsbMTn8wFts8+Kioq6LI0hhOheUgqij2htbeX++++noqKCDRs2YLVaqauro6SkhKFDh5KWlqZdq6oqzz33HKNGjeK+++7r9lg+/fRTnnjiCe2m/VWuvfZavv71r5OQkMBHH31EVlYWc+fORVEUmpqaqK6uprKyUrvh+3w+3n33XbKzs0N2JbQQwUwSQBByuVxUVVVhtVpJSkoCwGazYbfbSUlJCWjGGY1GRo0axdChQ3sklsbGRvbv34/X6z3ntSNGjMDj8aCqKo2NjfTv359+/foBgWMC7fFHRESQn5+PxWLpkdiFEF9NEkAQqqqqIjExkSlTpmjdPZs2beL48eN885vfZN++fVRUVHDllVfyxhtvkJOTw2WXXdYjscyaNYvDhw9f0N9paGigurqaBQsWaGMVO3fuZOPGjWRmZmI2m3nvvfeoqalh9uzZsuBQCJ3IGEAQ6t+/P5GRkYwYMQJFUSgrK+PZZ5/lyJEjLFmyhPXr11NWVsZrr71GVVUVv/rVrygqKtI7bE1ERAQWi4Xs7GxiYmJwOBy8/vrr/PnPf+ab3/wm77zzDi+//DL3338/Tz31lN7hChG2DAAWiyXgKay9NpDQR1RUFKmpqVoFzPfee0+bRun3+zGZTBQUFHD8+HEiIyNJTEzEarXqHbbGZDIxfPhwiouLqa+v58svv8RisTB9+nTy8/M5cOAAixcvJicnp0+saRAiVJmgbTCuvQ4QnH33GNE7YmJi+N3vfseuXbuYP38+d999N6+88gpbtmzhhhtu4Je//CVXXnklI0aM4LbbbmPVqlU9NgZwMcxmM88//zyvvPIKzz33HBkZGTz88MMMHjyYqKgosrOz+fzzz2lqamLRokV6hytE2NISQMcbviQA/aWlpZGfn8/s2bPJz88nKSmJvLw8rr76agYMGACgtdpSU1O1QddgERkZSX5+PkajkaSkJK1bC9oS3MGDB4mLi8PpdNLa2kpUVJTOEQsRfmQQOEilpaWRlpbGtGnTtGMTJ05k4sSJ2uujR48ycOBA7rnnHnJycgJ2GdOboihcddVVXHXVVZ3OqarK008/zd13382DDz7Iiy++qEOEQgjp6O/DzGYzzc3N7N27t8/Vy4+Pj+fkyZN4PB6ZBiqETqQF0Ifl5uby3e9+l1tuuYVRo0bpHc4FefnllykvL+fOO++UshBC9IKuNlaSBNCHWSwWJk+erHcYF0xRFHJycsjOzu5zLRchQol0AQndyM1fiN515uQeSQBCCBEGuprZKQlACCHClCQAIYQIU5IAhBAiTBmAgBK90PV0ISGEEKHFAJ1v+HLzF0KI0GeAzsXg/H6/1AISQogQJ2MAQggRpmQlcJBzOBx8/PHHNDU1kZGRwcSJE2WvBiFEt5A7SZBrbm6msLCQHTt2cPz4cb3DEUKEEGkBBLnTp0/zySefcPz4cTIyMmSAXghxwdon+kgxuD5m+PDh5OfnY7fbiY2NlQQghOg20gUU5BwOB4cOHWL+/PkMHz5c73CEEH1Q+y6PUgyuj7HZbOzfv59rrrmGgQMHcujQoT4xRVdVVbxeL8XFxdTW1uodjhCiC9IFFOQcDgdOp5Mvv/yS6upqSktL8Xg8ZGVlERsbq3d4Z3X06FH27NmD3W7HbDZTUFBAQ0MDU6ZMkR3AhAgS0gIIckVFRdTX12sbp0+bNo0VK1bwt7/9LWhbAkVFRdx44420traSl5eH1+tl7ty53HDDDbjdbr3DE0L8HxN0Lv0gA43Bo76+noSEBPLz8xkyZAhZWVnY7XZOnDihXVNZWYnVaiU5OVnHSP/j+PHjOBwOxo0bx6BBgzCZTDQ2NmIymTCZAhuddXV19O/fX6dIhQhvWjG4jouLpBhccFBVlU2bNnHzzTdz7bXXMnToUBwOByUlJbz22msANDY2MmfOHJ555hmdo22L1+/38+ijj/K9732P0aNHExcXh8ViYdiwYVx11VVYrVbt+traWlasWIHL5dIxaiHClwHaav90rAUUrF0L4aR9xL6yspLExETteFNTEy0tLXg8HqCtjpPL5QqKhO31enE4HNTW1jJo0CDtuN1ux2q1kpKSEhCn1+vF7XbL/29C6MQEnW/48gsZHFRVpbCwkAcffFA7tm7dOrKyspgxYwZ+vx+73c7u3buJjIzUMdI2x48fZ/fu3RgMBi677DLt+M6dOxk1ahQLFixAVVUURaGlpQW/38+6det0jFiI8HbWQWBJAsHBbDYTExOjvS4rKyMqKorU1FS8Xi9VVVU0NjZqLQI9ORwOampqiI6OJiIiQjteVVVFXFwcaWlpuFwu/H4/NpuNyspKvF6vjhELEd5kFlCQGzFihHaTPHHiBH//+99ZsWIFDz30EG+//Tbr16/n/vvvZ9euXTpHCvHx8QwbNozIyEgsFguqqvL555/z1ltvkZeXR0FBAStWrOCNN97gkUce4b777uOll17SO2whwpYkgCClKApGo5Hly5ezdu1aEhISWLRoEe+++y7Lli3DYDDwta99DZ/Px7XXXktaWpreIZOVlcW8efMYO3Ys9913H4mJibzxxhssXLiQZ555hmuvvZbx48dz/fXX88ADD+Dz+RgzZozeYQsRtmQhWJDLy8ujvLycqKgo0tPTycjIwGg0audtNht5eXnEx8frGGWb9q1Fp02bxsGDB5k3bx6XXXYZXq8Xp9OJqqqMGDGCiIgIKisrURSFlJQUvcMWImxJAghyEydO5PLLL9em6nacrltaWoqqqhiNRh566CH++Mc/6hhpG0VRuPXWW2lpacFqtWrJatGiRfh8PmJjY1FVlccff5wrr7yS3/72t9x5553k5eXpHLkQ4UcSgI46DrR/1TTOs5VOaC8J8cUXXwTFNNCOoqOjv/J1TU0NVquV+Pj4s/77On4/MilBiO4nCaCXtd/IHn30UV544QWg7ea/Zs0arrzyygt6r6ysLFJSUkhNTWXVqlXdHmtPURSFJ554gk2bNnH77beTnZ3d6RpVVZk9e7b2uqqqismTJ/dmmEKEPEkAOrBarbS2tmrlHBRFobm5+YLfp1+/fpjNZi6//HKSkpK6O8weNXXqVJxOJ0OHDu3yvKqqAeUugIAFcUKISycJoJcNGTKEjIwM5s+fH3C841z/C7F8+fLuCKvXGQyGgCf8rs5/8sknAcfMZrPUrRKiG0kC6GV97UldT8EwtVWIUGYAMBqNAbNL2qfzCSGECF0GaCso1rEYnN/vl1kXQggR4mQlsBBChClJAEIIEaYkAQghRJiSBCCEECGufZfHMyf3SAIQQogQ177D4JmTeyQBCCFEmOqRhWAZGRlkZWX1xFsLEeDOO+/UOwQh+qweSQB79uzpibcVQgjRjaQUhAgpqqoGLGoUl05RlIBKASJ0mOA/pR/aR4ilFIToq7Zt28aTTz7J8OHD9Q4lZFRVVfHqq6/qHYboAVoCMJlMmM1mVFXFZDJJAhB91m233cbixYv1DiNkfOMb39A7BNFDTABerxePx4Pb7QbA7XZLM1oIIUKcdOwJIUSYkkFgEZL8fj92ux1VVTt1ZyYkJOgUVXBqbGzE5/MFHJPvKDxIAhAhyeVy8fnnn3faK3nOnDn89Kc/1Smq4KOqKvfffz/79+/XjqWlpbF+/XpAdlwLdZIARMhSVZVPP/2UYcOGacfOfNIV0NTURH19PdDWcrqY/alFcDMYDF3O7pQEIEKWoihYLBa+/PLLkJ3H3tLSwssvv0xdXR2VlZX8+te/vqD9pRVF4a9//av22maz8bIJ2QYAABjGSURBVP3vf78nQhU6ioqKIiIiArPZHHA8NH8rhOigYyXEUOvScLlc/Otf/+Ldd9/l+eefx+VyXfB7hPL3I9o0NzfT2tqqzfRsJy0AIfqwuLg4HnjgAcrLy/nBD36AxWLROyTRh0gLQIg+zGg0UlNTQ2FhISNGjJAEIC6IJAAh+rjm5mZOnz5NXFycdOGICyIJQAjaVsO/8cYb3HHHHfzsZz+jqqrqovrT9VBUVMRHH31EXl4et9xyC9/97nfZtGmT3mGJPsAA/5kiZDKZMBqNGI1GeZIQYcPhcFBSUsKhQ4dQVRWbzcamTZs4cOCA3qGdk9/vp7GxEZvNRl1dHVFRUXi9Xnbu3InT6dQ7PBHkAgaBz9wuTIhQ53K5WL58OSdPnuSBBx7g29/+Nk6nk5kzZ/Ld736Xyy+/XO8Qv1JzczP79u3DZrMxduxYli1bRnV1NQsWLODaa69l0qRJeocogpgJ2p4i/H6/tkjG5/NJMhBhoaGhgc8++4zo6GhGjx5NamoqAFarlaSkpIBrq6uraWhoICMjg9jY2G6P5UJ+59pb6B6Ph8bGRhRFYcyYMcTHx+P1ejEajdTW1mrvW15eTmJi4gWtERChT6aBirDl9/tZu3Ythw8f5t577yUlJQWn06kNqubm5mrXqqrK5s2b2bRpE/feey8FBQXdHs+jjz7KwYMHz+vaZ555hpiYGOx2O/X19QwePFhrrdTU1ODz+Thw4AALFy5EVVX+8Y9/MH/+fEkAIoAkABG2VFWlrKwMk8lEbGwsiqLgdrux2+14vV4iIiK0axVFIS0tjby8POLj43sknsLCQrZt23Ze1zqdTiIjI/F4PJjNZpKTk7UpoHa7HZ/PF7DRU05OTqcWjRCSAETYcrvdNDU1MXfuXEaNGoWiKFRUVPDvf/+brKwsrFYrH374IaNHj2bPnj00NTUxduxYhgwZ0iPxvPnmmxf8dw4ePMiQIUMYP348iqKgqiovvvgiNpuNkSNHUlhYSE1NDfHx8URHR/dA1KIvsFqtWCwWjEZjwHFJACJsmUwmoqKiyMrKon///gC8//77vPTSS0yYMIFNmzZhNptpaWnhF7/4BePHj+fw4cPMnDkzaGbJJSUlkZKSQk5ODgCbN2/mT3/6E3PmzGHs2LE89thjHD9+nIqKij4xq0n0DJfLhcfj6VQMUdYBiLBlMBhIS0vDbrdjs9nYvXs3Bw8eJC4uDp/PR0NDA6NGjeLIkSMsWrQIVVWDbrFVe3dURUUFtbW1bNmyhUmTJjF79mxaWlrIy8vj6quvJisrS+dIhd66mmQgLQARtoxGIytXrmT9+vX885//BODOO+8kKSmJhx56iJiYGKZOnUpeXh42m40//OEP3HrrrTpHHSg/P59bbrmFI0eO8JOf/ITJkydz//33069fP3w+H1OnTqWoqIirr75a71BFEJIEIMJaXFwc+fn52qDpkCFDiI6OZuLEieTl5QGQnJzM/v37SUxMJCMjg/r6ehITE3WOvI3RaGTw4MEYjUZUVSU/P19rpbTXCSovLyc2NpbKykoyMjL0DlkEEUkAIqxFRkYyY8YMZsyYEXD8/vvv1/6sqirPPfccMTExPPDAAyxfvpyZM2f2dqhnlZubS25uLrNmzep07s033+TEiROkpqZy1VVXSQIQAWQMQIjzYLFYOHLkCDt37uxTc+nbZ35UV1cHTatFBA8TgNlsxmq1EhkZCUBERETI7qAkxIVSFIU1a9awe/duACZMmKBzROfv//2//0d9fT02m43MzEy9wxFBxgRty8ldLhcOhwNoW2Ti9/t1DUyIYJKVldUnZ9L01bhF75DHfCGECFOSAIQQIkxJAhBCiDAlCUAIIcKUJAAhhAhxJpNJ2/GxI0kAQggR4rxeLz6fT4rBCSFEOOqqGJwkACGECFNSC0gI0aepqhrwdCtVDM6fJAAhaLuJ7N+/n+LiYgCmTp0qWyiKkCcJQAjaNog/cuQIu3btAqCgoEASQB/Rvu+xuHAG+M8XeOaPEOGisbGR2tpaXnrpJdavX09qaqreIQnR4zolgPbXQoSThIQEbr/9dhISEkhJScFsNusdkhA9zgRtzd/2n/bXXU0ZEiKU7dixg9jYWObOnSsPQSIsyHC5EP/nueeeIyMjg2uuuYbTp0/T0tKid0jnxe/34/F4OHHihJRxFxdEBoGFAHw+H2VlZSQmJnLixAmam5sxGAxMmjSJiIgITKbg/FVxuVx8+umn2O12amtrmTt3LqWlpYwYMUJ2ABMBuhrblRaAEEBtbS1FRUU4HA5OnTpFWloav/jFL1i3bh2lpaV6h9clVVVZvXo1f/7zn6msrCQtLY3Fixczb948Dh06pHd4og+QBCAE0NLSgqqqZGVlkZ+fz+jRo4mIiOD48eM0NzcD0NzcTG1tLS6XS+do29jtdgoLC8nKymLy5MlMnjyZkpISnE5npxaL3W7XKUoRDM42u1MSgAh7qqpy8OBBfD4fK1eu5LrrrsPn82E0GnnttdcoKSnB7/fz29/+lnnz5nH06FG9Q8bv9/P73/+eQ4cOceuttzJmzBjMZjMWi4WrrrqKAQMGaNd6PB4eeeQR6urqdIxY6Kl9tfSZY0SSAETYU1UVm82G0WgkISEBaBsTsNvttLS0aBUU6+vrqaqq0jNUjcvloqysjOjoaC1mp9NJY2MjAwYMCGgBqKpKfX190LRchD6kGJwQXVBVlcOHDzNjxgzS09MBKC8vp6amhiVLljBw4EAcDgcrVqzg8OHDjBo1SueI4a233mLnzp0sW7aM2NhYAEpLS/F6vVx//fXExMSgqipOpxOn08nTTz9NZmamzlGLYCMJQIj/M2jQIO3Pra2tOJ1O+vfvT0REBA6Hg9OnT9Pa2qpjhP9x8uRJXC4XGRkZ2rGmpib8fj/p6elaC8DtdtPS0hI0cYvgEpxz24ToZampqVRWVmqDZBs3bmTChAn87Gc/49ixYzz00EOoqkpzczN/+ctfdF8olp2dTVRUFJmZmaiqis/n48033yQuLo6JEydy6623snDhQvbu3UtpaSlGo5G//OUvusYsgo+0AETYMxqNTJ8+nZKSEq677joGDhxIbW0tzz//PAaDgczMTFavXk1UVBRTp07V/eYPMG/ePO666y7+8Ic/MG3aNEaMGMHAgQOJjo5mzpw52O12Fi9ezPe+9z2++c1vSveP6JIJ2upnt08RUlVVey1EuEhKSmL69OmcPHmSiIgICgoK6NevHwBRUVGUlJQQHx9Pfn6+zpG2MZvN5OXlUVFRQXFxMWlpaYwZM4Zp06bhcrkYNWoUVquVlpYWbDYbycnJeocsgpBWC6jjpgpSC0iEm7S0NH7yk5/gcDgwm80BxeBUVeXPf/4zGRkZREVF8dRTT/GDH/xAx2jb5nVPnTqVSZMm4XK5tJivuuoqWltbiYuLQ1EU1q1bx8GDBxk8eDCPPPIIq1at0jVuEVykC0iEhfYHnK96sFEUhaioqC4rgdrtdjweD0VFRUFVFsJoNAbEHBERQWJiIkajEYDTp09TU1NDZWXlWeM+n+9GhKbg+T9ZiG6mqioej4clS5ZoXZqzZ8/m7rvvvqD3URSFm2++maKiIqKiorjjjjt6Itwecdttt1FcXIzH4+HrX/96l9f8+Mc/1kpHeDweamtrezNEoSNJACKkDRgwgM8++0x7PWTIkIt6n5EjR1JdXc24ceO6K7ReMW7cOLKzs2loaOhyXE9VVQ4cOMDu3bu1Y1lZWb0ZougFZysFIQlAhCSz2Uxubm7Azf9SJCQksHTp0m55r96kKAqJiYlnrQyqKArPP/88bre703EROs7WvScJQIQkk8kkUx/PU0pKit4hCJ1IAhAhZ/369Xz55Zd6hyFEUOlqoF8SgAgpEydODJq5+qHCarXqHYLoIZIAREgxmUyyE5YQ50nWAQghRJiSBCCEEGHKBG3NZoPhP7nAYDAEvBZCiK74/X7cbnefX0VsMpm6XAEe6kzQtvtRx63Cuto6TAghzlRXV8ehQ4eIjo7WO5SL1r5xzrRp0/QOpdeZoPMigb6ezYUQvcPlcpGcnMzQoUP1DuWieb1e3n33Xb3D0IXMAhJCXDRFUbBarURGRuodykXzer16h6Ab6egXQogwJQlACNGjpEtZf2crBicJQAjRY1RVpbCwkJtuuolt27b1eDKw2+289957PfoZfdHZ9nyQMQAhRI9RFIWxY8eSn5/Piy++yOWXX94j4wV1dXVs2rSJDRs2cOzYMRYsWNDtnxGKpAUghOhRJpOJBQsWUFZWxqlTp3rkM6xWKxMmTGDatGkyhf0CSAIQQvS43NxcIiMj2b9/f4+8f2xsLEOHDsVisfTI+4cqSQBCiB4XFRXF+PHj+eMf/9jlE7rP58Pn8+kQWXiTBCCE6BWTJk1ix44dHDx4UDumqiqlpaXs3LmTDz74gEOHDsmsoV501gQgW8IJIbqL3+/H6XRitVp5/fXXtZt8RUUFBw4cICsri5SUFNauXcuxY8d0jjZ8GKDrYnCSAIQQ3cHv9/Phhx9SX1/P8uXL2bZtGw0NDQC8++67REZGkpmZyRVXXMHw4cPDtiyDHgzQthS6Y7+c3++XkXQhxCVTVZUtW7bwyiuvcP3113PfffdRVlZGcXExAGazmSNHjgBtvQ6RkZG0trbqGXJYkXUAQoge4fF42LhxI5s2beKJJ54gLi4OgFmzZrF582Yuv/xy7rrrLu16v99PeXk5119//SV9rowhnD8ZBBZCdDu/38+GDRt4/PHHWb58Oenp6dq5GTNmsGPHDurr6wP+zltvvcWgQYMYN27cRX2m1+ulvLycpqYmrYtJfDVJAEKIbufz+XA6nTz++OOMGDEi4NyUKVPIzc3FZrMBbcni888/p6qqim9/+9sYjcYL/rzKykqefPJJDAYDt9xyC7///e/517/+JV3ZHXQ1ritdQEKIbmc2m7nxxhu7PJeWlsaaNWtQFAVVVamoqKC5uZl77rkHj8dDXV0dAwcOvKDPy8jIYOXKld0ReliRBCCE6HXtT6MlJSWsW7eOUaNGsXXrVhobG4mMjLzgBCDOrauxEUkAQgjdVFRUoCiKNhPIYrEwc+ZMnaMKH5IAhBC6mTZtWljuxRssZBBYCCHClCQAIYQIUwboenqQlIIQQojQptUC6jj31mg0SgIQQgQ1h8PBwYMHaWlp0TuUPssAbUu2O9bi9vl8soBCCBHUFEWhsLCQe++9l5qaGr3D6ZNkDEAI0SdFRESwZMkSCgsL2bZtm97h9EmSAIQQfVZUVBSLFi3inXfekR3FzqGrbn1JAEKIPm327NkcPnyY48eP6x1K0Gq/+Z+ZBCQBCCH6tLy8PCwWCx9//HGXY5dSHvrsZCWwEKJP69evH1OmTGHTpk3ceOONxMfHA9DS0sLWrVs5ffo0AHPmzCE5OVnPUHWjqqr205G0AIQQfVptbS1ut5tDhw5RVVUFgNPp5O2332bChAnccsst+P1+/vu//1taA2eQBCCE6LOOHDnCq6++yk033URubi6FhYVAW5G57du3oygKiqIwZcoUNm/eTG1trc4RBxdJAEKIPqmsrIwf/ehHLF26lHHjxjF58mQ+/vhjAFJTU5k1axZRUVEAGAwGPB4PEREReoYcdCQBCCH6nMrKSp577jm+/e1vk52dDcD06dMpLCykurqamJgYFi1ahNVqRVVVioqKuPnmm7V9iUUbSQBCiD6lvr5e22f4mmuu0aY2Dh48mMzMTJ5++umAvv6TJ09SUlLCt771Lb1CDlom6Fz7x2AwSC0gIURQslgs3HbbbcybNw+r1aodj42N5eGHH+b48eN4vV7MZjOnTp1i8+bNzJ8/nwEDBqCqqtzbOjDBf4rBte/RaTAYMBikcSCECD4xMTEsXbq00z1KURQKCgoYO3as1ue/a9cuZs+eTf/+/SkqKiIjI4PExESdIg8+JgCXy4XX69WaTV6vF5/PF1AhVAghgsXZHlDbZ/04HA5efvll3G43LS0t+P1+9u7dy5o1a3o50uAmC8GEECHH4/GQnJyMw+HA4XAAcMUVV0j3zxkkAQghQk5sbCxLly7VO4yg0t466kg6+oUQIsSdreUjCUAIIUKcz+frsgyGdAEJIS6Jy+WitbVV7zAumtfrDfkdED0eD4qidFoJLQlACHHRoqOj2b9/f5+uxa+qKqNHj9Y7jB6lqiomk4nIyMiA45IAhBAXLTExkXnz5ukdhrhIMgYghBBhwGQydeoCkgQghBBhwGKx0K9fv4BjJmhbVWc0GjGZ2nqEzqwNJIQQom87ZwvgbBsHCyGE6NvaH/Q7MgFaETiPxwOA2+0O+WlRQggRTqxWa6f9EAwAERERWvcPhMe8WCGECCdGozGgfDb8XwIwmUyYTCat60dVVUkAQggRQsxms7ZFZjsDoNX/b28F+P3+LpcNCyGE6JssFgvR0dEBx7RB4I7NA5/PJy0AIYQIAaqqYjQaiYyMJD4+PuCclgDMZjMxMTHA2QsHCSGE6Fv8fr/Wzd9xrBc6lIKIiYlh0KBBVFdX09zcjNPp7DRiLIQQos3hw4dpamrqtu1zW1tbyc3NJTk5uVver11paSnJyclER0d3muKvJYCoqCjS09O1QFwuV7cGIYQQoaSmpoaRI0d2Wlx1sQ4fPqztXtaddu3axZAhQ0hISOh0rssE4HQ6cbvd3R6IEEKEksjIyICZNX6/n9LSUmJiYkhOTr6gRbVnTtHsLk1NTURHR2M2mzud09ouUVFRDBgwAGhbCObz+XokGCGECFWqqvLxxx9z991309DQoHc4AJSUlDBu3DgyMjI6ndMSQL9+/RgyZAjQ1gUkLQAhhLgwRqORKVOmcOjQITZv3qx3OEDbA33//v07TQGFDgkgOjpayxDtg8BCCCEuzKBBg5g0aRJvvfVWUDxIezwe5s6dy7BhwzqdC0gAAwcOxGQy4XA4aG5ulqmgQghxgaxWK8uWLaOoqIiqqiq9w8Hv95+7BWC1WklISCAnJweLxUJlZSVer7dXAxVCiFAwdepUYmNj2bFjR6dzbreb+vp6rfhmTyouLsZms5GQkNBpO0joYiXw2LFj6devH6WlpUHRfBFCiL4mIiKCuXPn8sYbbwRUVSgpKeHvf/87hYWF/PznP+fYsWM98vmqquLz+XjnnXc6bQLTkZYADAYDZrOZrKwsIiMjqampkZlAQghxgXw+H1988QXl5eUUFxdTVFQEgMvlYseOHcybN4+ZM2cyffp0nn322R6Z+6+qKi6Xi9ra2q9c0NupBTB+/HgSExM5dOiQLAYTQogLtHPnTj766CMefPBBkpKS2Lp1K16vF0VRiIyMxOVyoSgKEREROByOHqm75nA4OHbsGBs3bmTQoEFnva7TjmADBw4kKytLy15CCCHOz759+/jnP//JjTfeSGZmJvPmzWPz5s00NjZisVhYtGgRycnJnD59mt27dzNnzpxuW0ncUVNTE7t27eKLL774yrHcTkUs4uLiSElJweFwcPTo0W4PTAghQtHWrVu56667WLJkCZmZmRiNRq655hpqa2spLy/XrisvL9cGh6dOndppm8bu0NTUxKeffkp8fHynPQA66pQAsrOzmTZtGna7nWeeeabbAxNCiFBz+vRp1q5dy9q1a7niiiu0EhA5OTnk5eWxb98+oK1vfsiQISxYsIBx48bxm9/8hubm5m6Px+l0UlJSQnp6ulbluSudEoDBYCAxMRGz2UxlZSVNTU3dHpwQQoSSyMhIHn74YSZOnBhwPDo6mpUrVzJu3DgaGxvZsmWLNrty+PDhlJWVcfLkyW6Pp7a2ltbWVl566SVmzJhx1us6JQBFURgzZgwDBgygoqKCjRs3dntwQggRSqKiohg1alSX59pbAbW1tXz00Ufa7Eq/34+iKBdUMO58ORwO0tPTycjI+MoWgKmrgzExMcTHx6MoCiUlJd0enBBChJuMjAyuu+466urqiImJ4V//+hejR4/uskjbpXrrrbdYs2YN/fv3/8rrutzJIC4ujrlz5xIdHc26detobGzs9gCFECKcREZGMm7cOMrKyvjwww9JT0/n+9//fpcrdC+W1+ulubmZxsbGLmv/nKnLFgDAvHnz+OCDDzhy5Ajr1q3jjjvu6JHRaiGE6KuampouuKTD6NGjGT16NNBWFqJ9TKC5ufkru2vOx8mTJ/n000+56667zuv6syaAnJwcHn74YebPn8/f/vY3rrnmGrKzsy8pOCGECBWDBw/m8OHD3fZ+Xq/3K8s29ARFPUfJz+9973u89tprrFq1invvvbfTpsJCCCGCw/bt2/nrX//Kk08+eV47jJ1zN+OFCxficrn48ssvaW5u7pFly0IIIS5dXFwcq1evPu/tJc+ZAMaMGcOyZcv45JNP2LNnj9QHEkKIIBUVFXXOmT8dnTMBxMXFMX/+fJqbm9mxYwctLS2XFKAQQoieMWTIEAyGc97WNf8fgmb6tNsq3oYAAAAASUVORK5CYII=;" parent="IuaTcRtPijXqOsnX0eB4-1" vertex="1">
          <mxGeometry x="1244.92" y="390" width="224" height="168" as="geometry" />
        </mxCell>
        <mxCell id="vuEfzPaLM79mjF0In50A-35" value="" style="shape=image;verticalLabelPosition=bottom;labelBackgroundColor=default;verticalAlign=top;aspect=fixed;imageAspect=0;image=data:image/png,iVBORw0KGgoAAAANSUhEUgAAAK0AAABgCAYAAABv2fIpAAAAAXNSR0IArs4c6QAAAARnQU1BAACxjwv8YQUAAAAJcEhZcwAAEnQAABJ0Ad5mH3gAABfbSURBVHhe7d1lrCRF1wfwgsXd3d0ddnF3XSR4CLrwDYIkBMlCgBAIEEICfMDDIosFd3d3d3d3fd791Xtrnn6auTKzM/dO79Q/6cy9PS1V5/yPVHXXmYn+Mw4hI6NCmLjnMyOjMsikzagcMmkzKodM2ozKIZM2o3KozR78/fff4a+//opbGcOGDQtTTDFFz38ZGa3HP//8E7n3559/9uz5f0w00USRf5NNNln8O+5LpH3llVfCs88+G9577734RcIff/wR5phjjnDQQQf17MnIaC0Q9q233gpPPfVUeO211/6HoFNOOWWYZ555wtprrx1mmWWWMOmkk/43PXj//ffD3XffHW666ab4N/Km7dNPP+05KiOj9eA3f/755/DZZ5+Fd955p8a7F198MTz44INx++abb2pZQI2033//ffjkk0/CL7/8EkaMGBFWW221sOqqq8a/l1tuuZ6j6sM53333Xfjpp5969nQuCCgJx6bPUqOegNN1EI4R4o033ojejoNCoMEErzrjjDOGxRZbLPIN7/BvoYUWChNPPHH4+OOPw++//17TUS09uOKKK8I111wTXfMFF1wQO8NtwySTTBKmmmqq+DfY7/vffvstKpzyEXa22WYLSy21VM9RnQeWyjhFlM8//zwKYeaZZw4bbLBBLfR0E+iOAT///PPhhRdeCJNPPnmYe+65wxJLLBGWXHLJQZVHymdTTiuP1a5bb701vPzyy+Hoo4+O7cLDf80eYDbiTj311GGaaaaJm7yiiG+//TY88sgj4ZRTTom57qGHHhrGjBkTLaKTQUEnnHBCePrpp6NVr7jiijEVGj16dPjoo496juoefPjhh+G6664LZ511Vlh99dXjxtPecMMNcYxTb1DeLnCMBvuJc8iJh8hbxr9Iy1WnDYFtKSlOcPG55porrLTSSmHUqFHRtacw26mgjHvuuSfcfPPNUTkrr7xytFx9+OCDDyKRed9ugWjJgzHatdZaK0ZI3nXZZZeNUfPUU0+NKV+KtoOBMufKvEtoap4WaYUR+Ydtuummi7MMnYwvvvgihkDhZ8EFF4zpwEwzzRT/FkmMXHmebsFXX30VXnrppfiJqNNPP33c6JXXe/zxxyNpB9PbDhRNkZbL5sJ1sJ777kTwHl9++WXMu1Oupu0IO8MMM0SvI33oFogqxiJff/11mHbaaWteTUjmlHhY8uhEZ9QUaasIHsMIlBepB2FSrt4tMEOAsLxpGWlM8+6778aZoU5DV5A2zXb05TWkD4M91TOUII/+xiByy05EV5BW6JMK9OZlgQIHc9Ax1DDdl+Y9q4auIS2v0Vf+LY/ri9QTGsiiP0/qmN5G8EOJriAtpKmU3rzLrLPOGvO4bgEjTXOhRZmkVMoYwACtEw15vEnbiZZYD5RDSb/++mstDaAsf1PQ4osvHonbLUBIL0KZOfFkM0Heb6bFPi+qIHenYbxJG9+66dCEvQjzsossskh49dVXww8//BBzWAoygjY/61n3Agss0HP0hA+EXXTRReMc+9tvv10blCErRzT//PN37KPtYaM9wxwHE80UqpEjR46MX/YGHfPY0xMmT5LuuuuuOKfHaxmFIwOvVn78O5RI84/maimIxzXN9fDDD8f3EbbddtuoRM/fuwEp7Juv9UjenDsdeshi6s+rgAyZPIYqmnqK6UUebVxnnXX+/WpiI+BZdRoJEHPzzTcPO+20UwyxyOrCnZY2aJfHtvvss0/0LgTBy3oqtv3228e2d1NOa5C18MILh/XWWy8MHz48EpYRM+5VVlklbLLJJlG/nZj+/estLyS85JJL4pe9wSmS9R9//DF619SxlCu6hq3TknjtEwW8gsebaB/r9R6F9lYhzWkl6NEDF7Lg0UQgb72RRyfk96L4jTfeGB+/9/mW10CApCxSB3WO4m0ekdo6dtQ5jpS8xzLLLBPDnxdnpAQ8bLcRFuiRPOacc86w7rrrxlc0l19++Y4fkHafpjIqj0zajMohkzajcsikzagcMmkzKodM2ozKIZM2o3LIpM2oHDJpMyqHTNqMyiGTNqNyGG/SppeobemFmQkdXhbyRtRtt90WLr/88vD666935KrVRkF/7Vor50UlZY6uvfbacO+998biLs2iadJSnPcd1cWiPJv3aylTAydUeJfYO6cPPPBAfJ2PsXon11tSVe13emvv0UcfjWWSVCm0MrnnBcDxAgPwDvNjjz0WnnzyyfhGmXe377///vhqaDMG0hRpKQphb7nlltgYNUW9QK7Td9xxR3wRnBAmJFAgL+S1xoceeijWBFCdRj0w1VieeeaZ+DJ5FaFvDM6rgAq+0aPI0QrSkom6x9dff30k6NJLLx0/yUvtt7RiohE0RVrv0bIaxdy8yrbvvvuGvfbaK9aCuuyyy8Jzzz0Xl7RMSCBoa6cInyKUo1xjjTXiS+SW67z55puxxFAV4RVFm+VIyrpaduTV0vSedLMgM87s9ttvjxV8LBTAF6skVCji3AbN0wqLiOnt/3nnnTfWgLIaQGc1iPv33YQEaQHBC53eF/ZOLog6wlyVc1rk9BK8JS2777572GyzzaJOx5e08tb77rsvRuUDDjgg3oMcOTQyQ1rya9Sj10hrzRTBDySsO1ZuwrWzSC9Qp5fCLYiz5qjdxdyEZ6nIVVddFfNqhlRsO+Gwcrm2SolCVLmCjIjBwAymbPIsgyrXKkI/9RdhKZOhWsUKlq3wFq0Ipe0GoujDpZdeGlcE8ICcj9RA3qnytohRrLotf7/zzjvjJ5LRq/TBdRzbF4xvyJP8rDezDMt1RSry7A+pdBOS42ZKJWqkJfSBCF4H1X9y0+JaMMS1CI4XMihxs1ZDo13X6BMRCVBnEO/iiy+O+Say8vLyTmRGZOc5xiBDHqUPrmMfMlvCYZNnpUWaRVm4Bm9B0byFfruHAm6U7ntG21cxkKGGcqbGH0bwDE+bGSnikhlZkhm5Ok4qRAbGK0b8Cm2npS/kQ1aOlc+TZxGMGOGcywDIy/Xcg8ys/sWf2Wefvc+CIO6f0oeiY6iRltCRrr9lMtYUYT5rqXdD//veca0Ggir2e+6550Yrty5fmHZPvxWhTj8yEqj1bo73vTxKpxHScQTpWISjAMtu1GglA+QUSYrQF/spyDURn+ehdB6azCxRQehWg6IY3UC3pOQykM2Mh75YWpNkIoSnEI18iEYuZGCfpUj6a2bI+choeQ6ZMwCRTMRy7wTXJWNOwf3wirx4aOmC88jRMva++EYfqai3v9OSqBppnWzrjfVlaBgL7U1IrQYBCk9SDx5zyy23jOu8ENc6L4Mi6QklICeCHXLIITHPlrIgpZHrcccdFwnP87ieNVKMjOexRmqbbbaJnqgICjTIIh/C5i14aB7JglDCV1lcXt9qkC8HMdCNTlJoL0J/LftnXAzbp76SIxkoMm1VssF0kYBWWstx7fcbCGRkEOpTXVspQDGdAG3mWcmZXBFP9GUMUg3yQ2RE7Au+T5GtLmk7HSwWIW0ELA1hYBZU8hxHHHFE9B6EyBv7rhgJCM6iS56CMBGTglW8Pvjgg8OZZ54ZczrXpZyi8VIAxVgNuueee0ZjcL+999473oPhGIA6t5VgqAxKCOfRfPa3IYa2lqHSN6Icc8wx4fDDDw9nn312zGMZNWLobz1PbR+ycAj6T476jKTltCBBu8lWCmBpvtklMvYzBxzNmmuuGZ2McUEiYiNo+Awdp/CyNwKN1RmNYb2tRLo2IfJoiZA+5aOEqm28IpJBkXjgGr6nLNfYaKONYh0EUz3y4fPOOy9ceOGF0RM4NoHBOA85eVVeivUjlOOczyCaUUB/cM200lkO2N+GVPVCrjbyrLvuumu8loh1zjnnxEiBXPqRtnpIoTr1sa9jgYd1LEPWfpwgMwMz1zK/jUNlHQ0EDUvZjTXE7ywUgUwUK79RBML8ZSuRyImYvC2hJKRwJHQTQr2wkywf8X3PS2ij8LfDDjuEDTfcMJLRAEsoKyokeR/fIzsZGFRID1ZYYYXo4SmmHeAFhWYbT9ffxuPXKzqi7/ab0tp6662jx+NYzMLIWYselgzLBpgcRBFpn2PrkY+88MQx5C2v5gBEMv2hh3rn9YeGSesmFCcZT8pHBI2R98mb5DwKPrQSvAeS8SYGT0iTioUI+YiGcLyIkId06ZGyv+V7zjNd5UmW/3lUAheqeCClkQi0XB0bcZBSf22Mw3SadGK33XaLgz1eqNUga/dL6QeZ9reliFOGwY8BKr2pKiPCbLzxxlGmKWLY6LLoEOzjkOzzmUDu/k/Rz3FFaLeoxJs6VsoixSF78tanZtFUPGNBFOXGRtUSe4RN0xlyTI1rJZDLfSX/PLnn/YjDgyCwkS2PIewo6cMrX3nllXEfcmsnMu68887RO1KChwUGVPbzBoyRZyinPgzFOchK+HJmo2xE3W+//eL3nQ4DMSmB6MCQEVv79RdxRSLGT1ZpUIds6X+fNtGUHEQ2+8lD5LM/EZeuyF9KQK6OkRaYgfDEjY7qGdZA0VRZJJ1BAvN0rJd1C5mEYYTOgu0rh5PxhfsimMEGq+UhCAdphGg1qCghHWNeURsQVGgUkrbYYot4jufsZhgInPIIkWeT+/FEPHaC85HfI1z9BteSUvBu5VDaiRg7dmx8IMDwk8ckE85HZGTgIgcHxHvq/4knnhjOOOOMaKQiHbn5CSvkJjeOik7s9xjfAJnBo5RrmPfl4ckOpGFmWRwzEG70VhapKdICgpoy4lkpVSNc0PRSInE7QOCsnOdg6YhGCITMYxBuOobnJzyCRUohXnTwP+XYeAhAPOfyDoygOJghIp4IYd0T9NG1qkBYkLYZgOoXmYCcVj/0mR6Td9Vf/eIRERZJE8kcS9/SQddxHHlLq1xLWpDAwyI2D01PZhLwa6AyM7frh/jM99YlLaJeffXV0et46WWg0HgK1ShCKDa63UjCLxJsoOjpdmx3N6CK/eWpOVKp2LHHHhtTQ/ysUZ718J4srRHwYDydfHAwCQvI2gxhgfK6hbBQxf7ipPyZUyxys0ZahOMpmyVBRkarwSGaXpV7SzeT0dVIi6zFLzIyhhocqRwWLxE45cI10iayZtJmdApwEVF9pg1qpM3IqAoyaTMqh0zajMohkzajcsikzagcMmkzKodM2ozKIZM2o3LIpM2oHDJpMyqHTNqMyiGTNqNyyKRtAl6o9m5nvQV93YqiTBp9J7tRZNI2CEqxjMRSHov1/J1WUHQzLNWxHN1iU6ugyaldaJq0FEVh6tRaMGezpseaoKFWooV0Vn5auGh9Uqu8IQ9i6YfrWsVLQRbeWSvXbu/SqaBr8qZ/MrEIUdkqVXzS+rtWoynSUhDCKiZm4Zu/LRK0mtMqWf+309L6AzKdf/75kVCpesr4wtIPdRMUUVNfwQI/LygraKfmQqpq001AWHpXndLCSfKwysBKXauhrZZuB5oirXU7PM6YMWMiIdQ4UATDIkdKtLKzXVY2ELg3j09ojGd8X2xnpJalU47ySVb1WnZtBSrPwkh8302gd4bKYDkv6wQtPLS0nnzwIxUBaTWaIi2PIxwgqCIWqbEKMbA+a92FzHaCMMpbwqabbhqLLZ900klhvvnmq5G23jlp6wuMUbg77bTTYp0DtR14WmROS8ulIUOJgfSpv++hfExvx+m7fisAYjkMx4WslppbJiPacm7tiLhNkZaFCZGgkUhhUSSFWpvOIxmotAOESBAEIvkX/nk5bUrr8a3cTMcRrk/7HWNLy9797XxbX3m4EJgKpym5hLCu736+G+ocXh/1iRz0hYcTbYqEScek/jIycioiyTUd09tx4PqKaVx00UWxyrd6FzjgHE4rybnYhlah4aW3FIUsLKkIa3koVU6j3JDCEO0AYQk9RqppWbFiEjz7dtttF41I1RsDRJa/4447xk9hXRFk5/ptAQU5nKudQpw6raqtIGQZ+qN4snpaFti5ny0VKrGvXcVJ+gPjU7jEICjl2kbvdLHVVltFJ8KotJUMEFp7kUqtLRGSIZKFohicje8ck4xAsTr1t4ow+ErjGfciD3/TyxNPPBGr7+BCO1Z3N+xpKUmnNLLe6l3k1VnCbDUIH8kUTXYPQlFVRjt4QnksIDYFKHOfRvaO4UUUJFHYV2hT7cTgwbkGkPWiA8NQK4wh8K6UTynaIJdThkmpIdcabPBiSCJE827kocqLVEatWp/6zijVOtNPbU0VgMjIfjIlG387FglT5Rn5uv6XQQ6OVTzD92ZUyIOzkD5a+s3zpso0rUTDpCUoxEUgnRvfQU4jcE/WbPDjvsoS8Y5qeKVCy6oCKiCsSB3D0V7C41EUxnMNRqeM0vDhw2OFcJ7GrAAClME4RZZ0Hfc3UjY6do6c2ebegw0GxYAU40NYJTzl82QhVQMyUKmFzBDM96p4q83LwSCbMI+0iC/dIUPyStXTGWYZSMujq33GmM0YOJ9hICpngh/tQFM5LcLYNHYwQcg8Gm/hR9r8OIgieMKiUKiMPfI4xmg2QVt5VETlQRSrM/KPJXbGXdMnb1NvMJVyO15HCjFy5MiYchiAIg3Dca3i/QYLDIrhIIrZjFTLbJdddgnHH398DOkijWMQyIA5QWqQDNu8KhmRhYhiVsg+hkmuI0aM6DnrvxCpGP/6668fy53a5LbkILVIFcbbgYZJK6ywapsOCz+DBffmQVTfA4T1GwpHHnlkJDEvwSPa6g0eEnjMcq7VW0ojX/Qd7212hFelGAbrHgyAoVD6UIFcGF5qA8M0BUlHZIJgIkyZRGQgcij/mcgu11cd0g8bHnjggbHGW2+DatdHTs7AeQZeNpFPifp6HroVaJi0LJaSbEXC+luDeSshRUdaDYJHLEoaNWpUOPnkk8Nhhx0WQ5nS8zxD8pZ9RQHKLZMM0esZoFSIQhmLETKPLTTKFw3wGJDPoYS2k0vqs/baUh95UCj3z/+O46Edi+w85umnnx6OOuqo6EWlFVII5C8DFxCTPuieXHhfKYj97chnoWHSEgDCCtFAqcmzCaM8kzBhpN1qUIxRq4QfidSaVY7dpzYgLOFRHoXYtMt3xS212feOZQyQzisSniL1Vb95FtczanYvdXgZzFAMwgBZ0g/xmRnQJv0yEJVjMiyEVBNWn+lG/4CHNYBCWvV4yQBB9dFvM+yxxx5h//33j9fjqctRiPEqOpgMwgyLAZhIJGfWtnahYdICK5I/8jxIREA2AxmWJjxI5lsNgicY88AGD5SAYEKUaRl5GtKaRTB4MriQ0/nfp7a6hvzVdXza0lwro3NcUUH6aOKc8twPOZyLLHLbdnmTgUCaI5cV2eS1pvP0UTv9Tx/CtgGo9MFoH1GNAZDMgJLM5Or6b7bFQyPn+59c5ewMt2yY9pMB+SG1KIfEprpMszGGdmHY6HHwh+kP0xssxGCjL7AyxCU0+Y6cz0iSUHhY4YEwkhW2CsiEVIiDnAzE/4QmVCEu4+GJDSh4E6FbnygzVaZGNIMF1+ONGAHhU6wowjulPFVfeVfnOxYR5LRmHgzGymnGYAIxEErfhWZk0w9tZWQ8rIgkVeNhycpx5EXXSGbO2kCLgasFy4DpjQHLdUUZ+alBWxH6TS6Mg1OgDwM/BtIqL6udOMXItDPpsqlK4E7RSB6H5aZwigxIm35EpNUKdU/C5CF4AopxT8YjrLF+HfS9UOkYxiV8aotzKQVhERNJCZ5wXNs1tJ0HKc4G8Nr6iRDIzCDreZ+hABkwXrpASn1OMyUIq6/2cSyOQTAyszlGX/RbSsGgySH1S1TyPW+t30WYuUj6RyTXsjmuVc6q5eXrnaZTGk9wwPIJwGc7PBBvQQHum0gL7kc5hEfotpS7ESAFgePT/qS41I8E1yCDYnhznmtSbPreZ6dAn/SBtyQXbddGxpyQ+uAY0HfHkBtd+V7/nA9JTkjCAZWJ6HsGn67X23HjAykH0nraV5e0Y8eOjfNzQosRZBG8p1+FychoBxiK1EaKKvVLkOrZzwj9yqTfbPgf0qafofdIsAw/GOHn1jMy2gEeG+9Eei/vFyGn9mTObIZBsehQIy0PazAlbytD/meQk5HRDkg15Md+Gb7MP2mYcYmHO8Yg0poaablojE95YhEO5JYzMtoF/EtjlSLk2/iX8mX/10ibkVEVtHYiNSNjEJBJm1E5ZNJmVAwh/B/FPnnd5N7MyAAAAABJRU5ErkJggg==;" parent="IuaTcRtPijXqOsnX0eB4-1" vertex="1">
          <mxGeometry x="2103.8500000000004" y="420" width="126.15" height="70" as="geometry" />
        </mxCell>
        <mxCell id="vuEfzPaLM79mjF0In50A-36" value="" style="shape=image;verticalLabelPosition=bottom;labelBackgroundColor=default;verticalAlign=top;aspect=fixed;imageAspect=0;image=data:image/png,iVBORw0KGgoAAAANSUhEUgAAAL4AAACjCAYAAAA0PKTYAAASzUlEQVR4nO3deWwU5f8H8PfsdLsnvelBS7cI0hMCBIGSUkCRW+QwQQTRIAaM4o8YhIRLEvBOvNAQSY0QwUikRWPERCqeRKiAIi2lxV60pe2WtrvdXXa3uzvz+6PZ+VrL0Zm9dz+vxEjLzswn5d2ZZ5555nkYnud5EBJhZIEugJBAoOCTiETBJxGJgk8iEgWfRCQKPolIFHwSkSj4JCJR8ElEouCTiETBJxGJgk9Cis1m88p+vBL8L7/80hu7IeSeFi9eDJfL5fF+PA7+G2+8gdTUVI8LIWQoysvLsWjRIo/343Hwv/rqK8yYMcPjQggZqhEjRni8D4+Cv2zZMvz8888eF0GIGM888wz279/v0T4kB99ms+HmzZtQKBQeFUCIWDqdDu+++65H+5Ac/JMnT+Lw4cMeHZwQKVJSUjB79myP9iE5+G+//Tbuu+8+jw5OiBRyuRwrVqzwaB+MlHdueZ5HUlISurq6PDo4IVJZLBaoVCrIZNLO3ZK2ampqglqtlnRAQrxBo9Fg+/btkrePErsBx3H4+uuvMWXKFMkHvRdvPKAg/RiGkXxWDHae9CiKDn5fXx8++ugjj37b7sWX+440N27cwGeffRboMnyivr5e8raSzvgmkwkqlUryQe/lzTff9Nm+I82TTz4Z6BJ8Rq/Xo7u7GwkJCaK3FX0NNBqNaG9vR2ZmpuiDEeJtUjtYRAe/s7MTABAXFyfpgHfz22+/4cSJE17fLwlfUoMvuqlTV1cHAJIuL0PFcRyMRiN4ngfDMAP+Lj4+3mfHDUW9vb2DOgMi6WdkNBolbSc6+BaLBQCgVColHXAo7HY7Ll68iJ07dw74/vz58/HKK6/47Lihhud5bNmyBZcvXxa+l5aWhtLSUgAYdNIIR93d3ZK2Ex18q9UKAGBZVtIBh4rneZw7dw7333+/8D3q5hzMZDIJ//gcx8FsNge4Iv/y2xnfbrf3bxglelNRGIZBdHQ0rly5Erb90BaLBYcPH0ZnZydaW1vxzjvvQKvVDnl7hmHw+eefC18bDAa88MILvig1KKlUKuFELJboRPE8j6ioKJ+f8d0YhhnwXzix2+346aef8M0336CkpEQ4qYgRzj+fe+F5HlJnuRd92na5XHA6nZIPSP4nNjYWW7duRXNzMzZv3ozo6OhAlxQxwrMNESJYlkVHRwcuXLiA7OxsCr4fUfADzGw2o6urC7GxsRHXVAmksAi+0+nE8ePHsW7dOuzZswc3btyQ1F4OhMrKSvzwww/Izc3F6tWrsXHjRpSXlwe6rLAnOvju0X7BcnayWq1obGzE1atXwfM8DAYDysvLUVVVFejS7onjOPT29sJgMKCzsxNqtRpOpxNnz5712vwx4Uwul0vuZBF9cyuTyfzWo3MvdrsdGzZsQFtbG7Zu3Yr169fDZrNhzpw52LhxIyZNmhToEu/KbDbj77//hsFgwIQJE7By5Uq0t7dj8eLFeOihh1BYWBjoEoOaw+GQ/GxHUq+Ow+EIil6dnp4eVFRUQKPRYNy4ccL8PgqFAomJiQM+297ejp6eHqSnpyMmJsbrtYj5ebivlg6HA729vWAYBuPHj0dcXBycTidYloVerxf229zcjISEBFF9/OTufPsUyoc4jsP777+PmpoabNq0CcnJybDZbMLNYk5OjvBZnudx+vRplJeXY9OmTZg4caLX63nttddQXV09pM/u378fWq0WRqMR3d3dyMrKEq5OHR0dcLlcqKqqwpIlS8DzPL799lssWrSIgu9FIRt8nudx/fp1REVFISYmBgzDoK+vD0ajEU6nc8BYIoZhkJaWhtzcXJ+MKgWACxcu4MyZM0P6rM1mg0qlgsPhgFwuR1JSktCVaTQa4XK5hPsohmEwZsyYQVcw4pmQDX5fXx9MJhMWLFiAgoICMAyDlpYW/Prrr9DpdFAoFDh16hTGjRuHP//8EyaTCRMmTMCoUaN8Uk9ZWZnobaqrqzFq1ChMmTIFDMOA53l8+umnMBgMyM/Px4ULF9DR0YG4uDhoNBofVB25Qjb4UVFRUKvV0Ol0GD58OADgu+++w6FDhzB16lSUl5dDLpfDYrFg7969mDJlCmpqajBnzpyg6ZFKTExEcnIyxowZAwA4ffo0PvnkE8yfPx8TJkzA66+/jrq6OrS0tIREL5W/eTJ0RnR3ZnR0NORyecAHjslkMqSlpcFoNMJgMOD8+fOorq5GbGwsXC4Xenp6UFBQgNraWixduhQ8zwfdQyJ3s6ulpQV6vR4//vgjCgsLMXfuXFgsFuTm5mLmzJnQ6XQBrjQ4OZ1OcBwHAGixcqK2lfSyucPhEA4YKCzLYtu2bSgtLcXJkycB9M+pmJiYiB07dkCr1aKoqAi5ubkwGAw4ePAg1qxZE9Ca/ysvLw+rV69GbW0tdu/ejenTp2PLli0YNmwYXC4XioqKUFlZiZkzZwa61KDl7k3LUIk7EYdsUwfoH+SVl5cn3AyOGjUKGo0G06ZNQ25uLgAgKSkJly9fRkJCAtLT0yW/nOwLLMsiKysLLMuC53nk5eUJVyX3OJ7m5mbExMSgtbUV6enpgS45aB1p6sMa3dDHOoV08FUqFWbPnj1oHsUtW7YIf+Z5HgcOHIBWq8XWrVuxYcMGzJkzx9+l3lFOTg5ycnLw8MMPD/q7srIy1NfXIzU1FcXFxRT8uxATeiBMxurcS3R0NGpra3H27NmQ6guPjo4Gy7Job28PmqtUuAjpM/5QMAyDV199FefPnwcATJ06NcAVDd3LL7+M7u5uGAwGZGRkBLqcsCI6+HK5XGiDhgqdTheSPSOhWrc/Se2lE93UcY/ToRe/STCQOmYsItr4hPwXBZ9EJAo+iUgUfBLS/HZzS0gw8dvNrfs3LJgGexEilqSZ1P79f0JCUdg/uSXB7b/TAPpruHtYBJ/neVy+fBkNDQ0AgKKiInpVj9xVWASf4zjU1tbijz/+AABMnDiRgh8iPJ3s1m+9Ou5LUTDd3Pb29kKv1+PQoUMoLS0Vphkh4c9vvTruN6+C6eY2Pj4eTz31FOLj45GcnAy5XB7okkiQC5t+/N9//x0xMTFYsGBBUF2NSHAKm+AfOHAA6enpePDBB9HV1SWs1RXsOI6Dw+FAfX19wN9jjiRhcXPrcrlw/fp1JCQkoL6+HmazGTKZDIWFhVAqlT5ftkgqu92Oc+fOwWg0Qq/XY8GCBWhqakJ2dja9ceVjYXHG1+v1qKyshNVqxc2bN5GWloa9e/fi2LFjaGpqCnR5t8XzPHbt2oUjR46gtbUVaWlpWLZsGRYuXIirV68GuryQ4EmPUFgE32KxgOd56HQ65OXlYdy4cVAqlairqxNWATSbzdDr9UEzb77RaMSFCxeg0+kwffp0TJ8+HY2NjbDZbIOuUFJX9gt3nqyBJTn4wXIDyfM8qqur4XK5sG3bNsybNw8ulwssy+KLL75AY2MjOI7Dhx9+iIULF+LatWuBLhkcx+Hjjz/G1atXsWbNGowfPx5yuRzR0dEoLi5GSkqK8FmHw4F9+/YJK8oT75Ac/GDpznQvBsGyrLCit8vlgtFohMViEV6R7O7uxo0bNwJZqsBut+P69evQaDRCzTabDb29vUhJSRlwxud5Ht3d3UFzpQoXId/U4XkeNTU1mD17NkaMGAEAaG5uRkdHB5YvX46RI0fCarXipZdeQk1NDQoKCgJcMXDixAmcPXsWK1euFObqb2pqgtPpxCOPPAKtVgue52Gz2WCz2fDBBx/QLAteFvLBd8vMzBT+fOvWLdhsNgwfPhxKpRJWqxVdXV24detWACv8n7a2Ntjt9gETRJlMJnAchxEjRghn/L6+PlgslqCpO5wEZz+fSKmpqWhtbRXuO77//ntMnToVe/bswT///IMdO3aA53mYzWYcPXo04Pcno0ePhlqtRkZGhjBjRVlZGWJjYzFt2jSsWbMGS5YswV9//YWmpiawLIujR48GtOZwE/JnfJZlMWvWLDQ2NmLevHkYOXIk9Ho9SkpKIJPJkJGRgV27dkGtVqOoqCjgoQeAhQsX4tlnn8XBgwcxY8YMZGdnY+TIkdBoNJg/fz6MRiOWLVuG559/Hk8//TQ1c3xA0uJvQPD06gD988zPmjULbW1tUCqVmDhxIoYNGwYAUKvVaGxsRFxcHPLy8gJcaT+5XI7c3Fy0tLSgoaEBaWlpGD9+PGbMmAG73Y6CggIoFApYLBYYDAYkJSUFuuSwIzr4wThILS0tDbt374bVaoVcLh8wSI3neRw5cgTp6elQq9V47733sHnz5gBW23/SKCoqQmFhIex2u1BzcXExbt26JcyYfOzYMVRXVyMrKwv79u3Dzp07A1p3OAmJpo77QcXdftkYhoFarb7tyEyj0QiHw4HKysqgGr7AsuyAmpVKJRISEoTpGbu6utDR0YHW1tY71j2Unw0ZLHhS8B88z8PhcGD58uVCs2ru3Ll47rnnRO2HYRisWrUKlZWVUKvVWLdunS/K9Ym1a9eioaEBDocDTzzxxG0/s337dmGIg8PhEJYJJXcXtMEHgJSUFFRUVAhfS124LT8/H+3t7Zg8ebK3SvOLyZMnY/To0ejp6bntPRXP86iqqhJmggYQUZPMejJWR3Tw3Qfz5c2tXC5HTk7OgNB7Ij4+Ho899phX9uVPDMMgISHhjiM1GYZBSUkJ+vr6Bn0/Evy7ifd+rR3/N1Yx5G1FB98fbcqoqCjqwhui5OTkQJcQFMSEHgjCpk5paSmuXLkS6DJImAuq4E+bNi1o+trDhUIh7kwYKYIq+FFRUfTmEfGLkOjHJ+R2ZDJZZL+BRSITx3H+ewNLJpOBZdmI6TIj4UnShFIul4sekZOQRk0dEpGCqleHBE5NTQ1MJpMw7HzSpEmS9nPx4kUA/W/B5eTkBO2Qago+AQB0dHQgPz8fSqXSo/1kZ2cD6P9Fslqt3ijtjhQKheSFxin4RKBSqaBWqz3ah0ajAeCfB2d2u13yQuOig69QKKBSqfy2cgUJHv8eoxXq//6ig2+322G1WmmC0wjhDjvHccKMD3K5HImJiSHdpU1NHXJHHMfBZDKhvb0der0era2t6Ovrw9ixY0N+xRkKPrkjl8sFg8GAqqoq1NbW4tKlS3C5XHj88cfB8zyd8Ul4ck/LmJ+fj7Fjx8Jut6OiogJOpzPQpQHoH9RIvTrE62QyGTQaDbKyssBxHGJiYoLqib3T6ZTcqyNprI6vXz0kwYNlWSgUiiGvK+brvntvkTRWh6azIHcSKr19od0ZS4KOp09+/YWCT7xK6s2mv1HwySBdXV2St3UvveQv9AYW8RqVSjXoe0OdT6mtrc1XZd2W1HtN6s4kg7gHqvE8D6fTCbPZDKvVCpPJJKws2dLSgtjYWGg0mgHzeoZKbx+d8ckd8TwPi8WCa9eu4cyZM+jp6YFWq0VTUxN++eUX1NXVDVqt5d+rvAQzOuOTO2IYBgqFAsnJyWBZFomJibBarVAqldBqtUhKSkJ0dPSAbW7XTApGFHwiMJlMcDgcACDM0a9UKpGeno7U1FThc+52dVRU1B3X5DWbzdBqtX6qXDwKPgEAZGVloaamRvi6uLgYQP9Z/7+LbdzNpUuXAPQPJ3CvSuMrfp0tmYSnzMzMAStHSuX+hfEHT0YP0M0tCWl+m1CKkHBAwScRiYJPIhIFn4QsT3p1KPgkZHnyXggFn4SF79rEvQdMwSdhYUGauEdSFHwSkSj4JCx80+oQ9XkKPgkLj6QPbSyRGwWfRCTJwQ+VN20IuR3Jwad5dUgoo6YOiUgUfBKRKPgkZNFYHRKRaKwOISKJDr770kLdmSSUiQ6++9JC3ZkklFFTh0QkCj4JWdSrQyKSzWaTvBAFBZ+ELJ7nJc/VKTr4LMsiKiqKenVIUBg+fLik7ST16jidzpBZ5IuEN41GI2k70cF3t6mCZZFfEtmSk5MlbSc6+O4D+XutI0Jux29NnaSkJAD9c6kTEkgKhULIo1iig+9eH0nqUuqEeMsDDzzgv35898oYvb29kg5IiLfMnDlT8raig5+QkICcnJwBq2cQEghr166VvK3o4Mvlcjz66KOoqKiQfFBCPNXQ0ICxY8dK3l7SA6wVK1bg1KlTkg9KiCc4jkNJSYlH+2B4CeOLXS4XkpKS0NPT49HBCZGivb0dmZmZ6Ovrk7wPSWN1WJZFRkaG5IMS4onOzk7k5eV5tA/Jg9RWrVpFPTskIJqamjxuaksO/osvvoilS5d6dHBCxDKbzTh8+LDkJ7Zuktr4blqtFr29vZDJaHQz8Y/jx48jJiYGc+fO9Wg/HgW/rKwMxcXFkh8bEyJWR0cHUlJSPN6PR6fq5cuX46233vK4CEKGyhuhB7zwBtb69euxfft2b9RCiN94HPwxY8ZAp9N51KdKiL951MYnJFRRdwyJSBR8EpEo+CQiUfBJRKLgk4hEwScRiYJPIhIFn0Sk/wehA7LtzJYqxQAAAABJRU5ErkJggg==;" parent="IuaTcRtPijXqOsnX0eB4-1" vertex="1">
          <mxGeometry x="1537.81" y="400" width="128.22" height="110" as="geometry" />
        </mxCell>
        <mxCell id="vuEfzPaLM79mjF0In50A-45" style="edgeStyle=orthogonalEdgeStyle;rounded=0;orthogonalLoop=1;jettySize=auto;html=1;exitX=0;exitY=0.5;exitDx=0;exitDy=0;entryX=1;entryY=0.5;entryDx=0;entryDy=0;startArrow=none;startFill=0;endArrow=classic;endFill=1;" parent="IuaTcRtPijXqOsnX0eB4-1" source="vuEfzPaLM79mjF0In50A-37" target="vuEfzPaLM79mjF0In50A-23" edge="1">
          <mxGeometry relative="1" as="geometry" />
        </mxCell>
        <mxCell id="vuEfzPaLM79mjF0In50A-37" value="self-joint operator" style="ellipse;whiteSpace=wrap;html=1;fillColor=#d5e8d4;strokeColor=#82b366;" parent="IuaTcRtPijXqOsnX0eB4-1" vertex="1">
          <mxGeometry x="1861.92" y="300" width="120" height="80" as="geometry" />
        </mxCell>
        <mxCell id="vuEfzPaLM79mjF0In50A-39" value="" style="shape=image;verticalLabelPosition=bottom;labelBackgroundColor=default;verticalAlign=top;aspect=fixed;imageAspect=0;image=data:image/png,iVBORw0KGgoAAAANSUhEUgAAAFkAAAAgCAYAAAB5JtSmAAAAAXNSR0IArs4c6QAAAARnQU1BAACxjwv8YQUAAAAJcEhZcwAAEnQAABJ0Ad5mH3gAAAQJSURBVGhD7ZhZKHVfGMYfZM48RC6MUYgkcuWC3EmGC5mKGy4kuTBEiMhw40KEC5FyT5HIVFyKRCGZh8wZMg////uedfR9Ps7B2WdzsX+1O3u9q91Z+1nveta7toG7u/sLFPSKofhV0COKyDKgiCwDisgyoIgsA4rIMqCILAOS1Mk+Pj6wtLQULe28vLxgc3MT5+fnIiIf5ubm8Pb2hpGRkYho5/7+HisrK3h6euJ2bm4ubG1tUVtby21t6Cyyl5cXSkpK4ODggLu7u9eBGBsb80VtihMGBgYwMzPD7e0tmpqaMDMzw3E5iY+PR0pKCgwNDVm85+dnHpeJiQkL/947bGxsoKioCFlZWdjd3YWzszNcXV0xMTGBsLAwdHV14fLykp95D53tIiQkBKampuju7kZqaioyMjKQmZnJgyHGxsY4Rld6ejpGR0dxc3PzI1lMBAcH4/DwEGVlZUhLS+Nx0YST4DT5LS0tr+PNycnB1tYWLi4uWPjT01MkJCSwsC4uLsjOzsb19TVfmtBZ5ICAAMzOzqK/v19EAD8/P9jb2+Ph4QE7OzsiqmJ7extnZ2c4ODgQEfkgW3NyckJfXx8vfzW+vr6cKJSNJKoaSgQap3qs9Nzg4CBbI63cqakp9Pb2vmb+R+gkMlmFlZUVZ+ufUJy8jwa9tLQkoirs7OxwdXWlcXnpi8DAQM7G8fFxEVHxv2Wyfezv73MS/Im1tTWOjo74njw4Ojoac3NzWF5e5klrbGxk69CETiJ7eHjg5OQEi4uLIqKCNhbyMnqh1dVVEVVBWfA2u+XCzc0NCwsLf2UeZTbFaTNeW1sTURWUELQa1dZXV1fH3kwJ8vj4iPLyclRUVPDkaELyr3C0edDs0gSMjIygra1N9PxOQkNDUVBQwJtfa2srpqenRc/HREREcIYPDw+LiGYkF9nf3x+FhYVsF7TrDg0NiZ7PExcXh8TExC+VWQStqPr6etH6HFRp0H8dHx+jurpaa1Z+B8lFjo2N5SqCllRDQ8M/dvEZbGxs2Ccpu77C3t7eq39+ltLSUs7m+fl5VFVViai0SC5yfn4+IiMjWdzi4mIR/Z2QH5On0sZFlUNPT4/okRZJj9VUaXh6evL9+vo6//5mqHSjUpMOIG83PSmRNJOl8GMiKioKMTExXFZ9BRKqvb1dtLQjhx8TkoqclJSE5ORkLuK/68fEdz2ZSsa3da4mKisrERQUpFc/JiQTmSoBymI6cqrP+tpOQj8JHZhoz3B0dMTAwAA6OztFj/ToJDLZQk1NDdfEH0EfUZqbm0XrZwkPD0deXh4sLCxE5G/o20VHRwcmJydFRBokry4U/kXS6kLhfRSRZUARWQYUkWVAEVkGFJFlQBFZBhSR9Q7wH2WgtCX49inbAAAAAElFTkSuQmCC;" parent="IuaTcRtPijXqOsnX0eB4-1" vertex="1">
          <mxGeometry x="1886.92" y="349.27" width="70" height="25.17" as="geometry" />
        </mxCell>
        <mxCell id="vuEfzPaLM79mjF0In50A-40" value="" style="shape=image;verticalLabelPosition=bottom;labelBackgroundColor=default;verticalAlign=top;aspect=fixed;imageAspect=0;image=data:image/png,iVBORw0KGgoAAAANSUhEUgAAAP4AAACvCAYAAADdRGMDAAAAAXNSR0IArs4c6QAAAARnQU1BAACxjwv8YQUAAAAJcEhZcwAAEnQAABJ0Ad5mH3gAACa4SURBVHhe7d0HeFNVGwfwf5LuPYDSwd5lLxFkyBJF/ABBZAqoLNmIgooILkBBUIaCKMqUJUsBBxtENmW0gC2U7r1X1n2/m+SU2dKbNm2T5vyep+T0JW2z3nvOufcMGYnAcZxVkbNbjuOsCE98jrNCPPE5zgrxxOc4K8QTn+OsEE98jrNCPPE5zgrxxOc4K8QTn+OsEE98jrNCPPE5zgrxxOc4K8QTn+OsEE98jrNCpZr4sRe2wSuwGzLZ9xzHFU0I34Magf1xO13NIqZXaomvjDuP3t3fwszFa+DKYhzHFU1e8yXMbJWAboM+QLqWBU2sdBbiEFIxtmsrXPOfihObp0HBwhzHSSMoY9C1eStUGbgc2z99hUVNpxRqfMIvH47Hz7cDsHbVxCckvYCju9ejaaP6eG7i18hUCyzOcZzc3g8bv/0Qf3wxAasOh7Go6Zi8xo859SOa9pyMMauPYeGINixauFNLh6HjjF/w1qrDWDmhC4tWVGrsWPIOdoV74/n2dWFPShze/TsCh8/CpL5t+JlWC5Zy428MfGMlhox7Bc42NkgO+xf/xPlg2Rcz4ONsy+5lLBUWDu6Cz//xwPlr+1DfzYbFTUCX+CajjKH+Tf3Iv9N4SlUJLPhkQtYVquNuR3YNRlOSWtrPWCY1zevXlnq+/TPlqLUsJr5k6RE07tm29MaC3SzCWRaBIk+tpaoOzSg4PpvFdDR0fO0sathiCN1KzmMx4+VEnaTGnrbUdcJKuv+pKTmTJv7ODwaRHF60+lg4i0ihpbc61BVbHW609XICi1U8N3+ZRjayxnQnXcki9yUH7SB3+6q0+nQ0i3CWQpkWSg3cHGnc9lAWeVAuje5Yj9q9uYxULGI8gbZ+PIxg4s+HyRI/L/o41fGwo0Yvf0w5Rlbc1zdMEw8YoFc+2sUiFYugzaE2bjZk1+lLyivotdHE06D6LtT0pbni28xZDoHO//wWyezd6UYhmX1kgZi0tnXprzuZLGI8dcpVetrHkfzajKR0E1X7JupWClg0bSbC0lzwwXtvwFHGwhIF9h+DQG977NmyBXHKirfatyb5FC5natC8z1OwL+i1UXiiVrMauHriN9zM5audWwxtJtZ+9DNsHbxRt5BufL22zQF1KLbsvsgixrPxbIz3pw9BzPntmLs5iEVLxiSJnx26D6t+uwDfHhPQt7UfixrBuSF6tq4P1a0DOHA5jgUrjpijO6AR87m+jyeLPEoBV3cPIO0OjlxPZTHO3KnT47EpPBs28qqFXr1y8aysT7Ir504bAsUiw/OvT0ZjNxU2fPw+EtUlrxxMkPiEJdPnID5XIdb2o+FiZG1vIMe4N/uI/2Zi1/YjLFZRCLhx5py+VLuqmNwFkqOqh7d4m4qTwdGGEGf2cjJj9aNSbRQ+hkABXLx89APYQiJCoDSEisW2cjPMmtgbKf8dwux1xW895Ctx4msSj2PVoRDYBryMgR1qsajxGvzvdbTxtsW+rZsRpapIzV0BkdekJ3NiVAorceZOmZXESkXLTsxEdok+1nL8b/QkuIiHj91fzEF2CYe9lDjx10+dIdb2Woz9aAp8HErw6+zroEfnFkDUUew6E8OCT0KIvh0HrdkfIwiJ/8WzctFUd3lT31Kos9NYSYKEkiY+4F7vGUx/oTZSwk5i0d9RLFo8JUt8bRzm7L8udkH88XrvZixYPKTJhkwriL2ZbOz8YTeLFoAEKHOzcGb7AgQ2mooUE/R3uKIJ6lxEx8QhVyVt8LhWlY3I6HioJB6Z1bkZiIxJ1J8L4QrjhMHj3hBvs7B24qdilVJ8JUr88J3zEZ+uhGvvKQj0c2ZR45GgwuLRfREwcSE6+9jj2F+7EFFAQucmHYWrmwdqPTcBF88eQobKMob5yuRGvMyyYp0kKWWEj/q2RYC/L1oNW4y8oj5xghKjAn1QPaAqOr69AxoWLoyQE4O+9auiur8f+n55ikXNn8yY90ouEyu1kmvQ+RXUE39XbPhOHE4u6pUtXAkSnzBh7HqxBwu8N7E/HAzBYhCwaFAH3Ok8D+Of644BL3TUjfvFlpOP94sdKz2LzMwMxJzYgI71KrGouZOjZruarFw0h0ZVWMmcCLh+29AFCQ8PR1FXXElQ43xYtr58/frtImtxbV4WQqJyxZIGQVfDDUELYO9RlZUkCPCAW8na13oKz5qYPrq5+FIlYfy8AyxqvOI/lNxzOJ6te7MCMPCp6oaY0QgLB7bD/irjsfQNMeHFY2L/US+Lt3nYvWqL/h6WT456bRvpSzejCztxJyA2NVm8tUPz+sW4HFrqFNh64QJ2bd+N0L+Wwr2IT43MxgVB6Xex+Zc9iN77NhyKqOpsverhcnQwtuz8A6HrhrKo+XN0NSS+Wlv4Oams5DhkiLfVAvzhYgiVkC1eGDFGX4reMl9f8RZHMROfcPG7+cjRHcrbvIkAL3sWNwbhx4m98Fn0U9j51SjYi80XnYD2ffCcnwPOntiDOxXi7L4Mgd10lyqBoOhE8VkXRIP0FN0ZYj/0aO5rCJkZW+eq6DewL/w9pLXt7NyqY8ir/4OHo5SJJTK4+zXC4Jefg4ONOXZ1Cubo7gdddaXWRqCwMx/pSbH697xlLdNNwvJv2gNe4m1uyg3sCC/eRcLiPRatEjPm/KEvjpnSz+iRerqkXzfpeYz9KRNn9nyJyg4PfDjsquGV/t0hxJ/Fiv2hLGjZ7Bv2g42NHLfPhxbc36UMRN+IgWeLVujoZ8eCnLmTOXpj0tQO0KhyEVtIHRUedFP81wHdBugOEaZh6xmAad3E1gblYOq83wupTJ6sWImvyrqO4zmGY9xr3evobyUjLXbNfhFvrrqIPef3ILCKE/uPfDL0HjpAvFXj0PebDSELJ7f1wQ/DmkG9fxPSch+vG/IiruDQrVwMeHMGHFmMswQ26DV5nvgG5mLj2YK6cQJ2HQ2CZ+vBGP5MNRYzAZkjXhyh6xITkrctgbY4M+vZmH0jCPTf1rd0f0n86kDJuRoWl0BQ02+LRut/9tN9wYVPM1RGU786bqTwak4hWQXf68rqQeLvGUgJSsuY1qLNuk2Brg40a3vQIxNxNLR22ktUq90YSsgz5cRLrkxolbT13d7kUHMY5WkffmfTb+yhAKcA+uFoGIuYTmrYH4YclNvTvxlqFpXO+MQX8uiTVm76P2r/7DKSOO1eL+X6dvHnFPT8h7tJ88SfE2jvl7oDhB0NXXqCxR5maYmvkxr2Dw3q3IneW7WLohKSKT7yFi2fOYpeGPIu3Ux4cC43Z0m06kz6cc5oat1rCp0LvkupaUl09uBP1K19D/rhYJBJ59Hn02RGka++8pXTwE23WFQ6o1fg0WbHwcfFF7pz0MM3BmPDMMMZayk0eYlY9/1xjJw8AEX1ZIW8VBw98g80zpXxXOenWPS+q2teRbNxAhKU21DZznJOCOmucd+8chFnTp5FjnNVtGvfAU0bVIMFndPiCpEeG4az58/j8vV4NH66PTq0awEPx+KuvlMEysXcVlXxyeUMoOnnUAW9B1sjPkNGJ35G+EG413pBX94bkYWXqhV/4E5JWGzic5xJCDi1dAA6ztCNcq2PtLxguNtLX9bWyJN7hIiTe1jZCU9VKs5lvOITG1VITExEYkIMLl/TXTuNxq3bkfpYRo7KcCeOswpyNOjYi5VvITjDuM+/kYmvwel9f7JyB7jblu3C2YI6A5MmTcLPW39FRoPBWLFiGC4f2ou5783E9lJYiZTjzJlz7basBPx+MZGVpDGuqa9MQQ8HbxzSlQMXQn1tFu+bclw50eYkwNnZRz/Pv/KUXxH3dX/JNblRNX5eZrwh6UUNhnaGgic9x5Ubhb0L+rBzh4lbjiDPiPG7RiV+dkr+SDoFBnSsb5LZRhzHFZPCDr16+BvKiSeRnSd9vy2jEj/1Rv6SPzZo08CdlTmOKx8KNOvehJUvIS5H+rh9IxKf8F8wS3xbBZpXMeGuHhzHFYMMtZu2utfyDknSzZaVxojEVyHk9GV9SWHjimpGtRU4jisNrrUa30v8SyG6YXXSSE9fbQ6unzWs82Ujry029jmOK28Kv0b3Fm06fTPSUJBAcuJTbhZOxBlOGyoUDfiJPY4zA3LbyveWADt9ORRqfalokhNfnZeF/EWR5OJRhuO48ieXe4hdfUPiq86HQ+raNZITPy8r6d7RRN6sBitxBVFnJeDbz95Hw6ZP4e0fjrMox5meTGaHgPy2ftgN5ErMfMkj9+Kv7kTVZgP15RrvH0b4Z131ZdMTcOWvjfhqy2W0bVULGo0cKZEhUDTphzmjexhzNrJ8CXlYOrQ13t4ZjU3XozCkvmlWXOPMU/rt05jw9mp06NkWSt3J9ewI3NXWwdxZr6OSUymeERPU6G7viMMa3TX8pohIv4hqUvbR1yW+FOHHVuoOEOKXjJ5eGcSipqalA19Po2bPvEERD2wnrclLoYXDOlP3cd9a1G6ycRc26F8z795rLepxc8YQKPbCL1TdsQGdjcxgMR01/b5kAjXvNI7C0x7fGt1kBDW95aZguVmZghNy2X88meTEv75tHvvltjR+bxSLmlbS5W3k6+hL68/Hs8h9un3IveW2NGOv6VczKS2a7DhqYguS29akFDVfXaciUmWEUytPJxq+PphFHpRNw9vXpmcnrxYPA6VFS0sa2LDcBJ2JkrYdt+SWc1pK/jZQMni6lMaCkAJWfrYYCT7t0LPF42vL27kF4J22Tlg2dDLyzH/fLD2FkzfmjW8ntsYisf6KEdstcRaCELL/G1zMtsHsVxuy2IOcMPL5tji6ehlOReWwmOlVrn9/ff/EPGnTcyUnfnZuFivJ4ev56AKZJpAXin2HLsOvRQNUKWi2r8wOHfq3hZB9EP+mlGTf0bJkg56TZ4m3Wnzw3ia+PVRFo83Cj3PXwtbREw0LWQymYYeWgCoEm3ZfYhFTk8G10v3FcNKyTJr4hLT0/M0cbVDZw/TLCWUEn8TVFBWquhv2Ey+It2818aEQtp6UsqmmeXCp0Q0NxZcr+8/PEZ8j9SorZwnUGfH46VYGbOV+he6P7+rpox/zcuVMSfbHfzKf2ve36VappU3Rk5j4ArLuJb4Mzo6SGwqSRd+6rp9XXMW9sK2xZKjsr7uMSNh9+pa+Q2MJ5HauWDb1abEUh40XEgxBrkLIzYxDunhroyh8Ky0Xbx+4ibfBEcEorTWi7J3uV8Tx8dK6FJJrfGVOflO/dCTdlb6VdFxoXKE7l5gfObrP/ky/YMnsd34qesNJzmIos6SPjc9MzkTp9fKNJ7nqJoF9Ym1sxD6+6ZfcSo2IYyUJLkeJbRDLYePZEXXsbYCzXyM6zVLOT3BFURmR+IhJR2apfGhl8K3dgJXFtnl+nhZBYuKrkBCu29tNJJPBhu1zx0lDpEINJ91rloi1R+4YggXIS43Eig/HwtXGFS+OnI4/LkXoTmmYB/GBaLVa6Y9HvKNGd3/2bVGIBP39uZKJS9Zt0Vk003fWuYeQJgvj2gTi8wsH4CK2979YsBk5BWTDzT9WYMqGYIyduwppyjRs+2oSFnaqCa92b6P8r14SFgxsCzs7e7QZtUx/LuaJBBUmNK+iv3+39/cW2S2j3HgMauANO3sXDFpxjkW50mQ2iV+loRFbbT9Vo9CzqOZEUKVhQseWaLzyNFrXfBYd3F0gnP8W/z16AiYnDD/tVOHbyb1gZ2sDhUIBZ+862HvzKNLOLUXvlRfK+WSmgH+vx4jNSC2uXw1BbhFNVtKqcOhqktg91OLMv9ehLuLBa3LScOa/NPHn8nDq1A0WNX8OxuyPX83TJPvjm4rkpv6dUNbU1ygRUQp9Fd+6tfS3Cens7zyGkBQToS+1bl3H7JsqpEzFpK7tkPbyakzpoFsXTYFPP+gh3iZh3Z8h+vvki792HMs2fYI3Fv7FIgYuPq3QVXzef74j1rLlWu0rsOnoYaz59ntc2LcIHkW8+DJbF5y7exHfrFiLGzunF70/vnc9nL52AsvXbELQj5a3P75GG6u/LUhWSgIyxVt/f18T7Y//uPRrF1gJCImVNlBMYv7YoVZdb0NRYY/qpZB1AU2fhp94G5MWX+iJu8Ro3cRgGYZ2Me+FPkms6eeP6IW//EZj/Tvd7j3WNq+/g0r2cqz+5peHTvR41mqDji3qo3WTh3dUlcnk+ktByMso976+S9WGGDP+TTT292CRJ3Ov3hKTJ76B6p5S9tOXw79xR0waMxSVHC2hLWfg6OGHduKtWhtVaHcmIzlW/3luUat1qbVS3Ru3YiWgoa+098eIFGYf31LKOIV/O7RqURXxEbEo+MKhBteOBIt/3xWDmkl7cuWBVCmYP7I3vr1eB6c2vIsHB3TJ3J9CR99KyLuwBufCdVeADewqN8Vfp85g8ksPD/tUZcdgv/iC1xcTyJ5vYGB2dPvjTxzbBhp1NuILOTBHXL0l/muPZ/uZbn/8x+RPyxVJ/ZSYT4tZ5oYZI/tCc+U8gqLzWPA+IS8dqw7Hw7/vl/DVXRozR9oMLBrbD0uOCdj311pUcXj05VVgzvSe4m0Gtv4RZAgVSoO/v5oGwbUV/lz0otl3bayTLV6cPheUl4NtlwtqYgvYe+Qy3Jq8jBGda7KYmWCTdYqQTfN6+umOaQRbL7pUSlONhJxoGtq2JvV5Z8Mj01gFurl/Idk6BNK1tNKb51QimgxaNuV/JHetRj+evMuCjxPSzlE1ZxtyaDKWktWFTdYV6PaxteTm2ZZO3JU224orJ9o8Wju+Czk1GkfKR/bHz7z9B9Vy9aXl+0NYpHTE7HrLkJvi1+R151n0ycwq8XUyo4NobJ+eNO6Tn+luXDKlpcTToV+WUbs2vej3q49P1zUXp1bOEF8fV5q65hiLFEZLU7o3FO/rRhv+LWh6s0Chx9ZTh46D6EpCDotx5kyrSqMvx/ejZ4fOo2u3YykjM42undpNL3boQku2nSYNu19pqRCJryeoKDToFK1Z/CnNnP0Z/Xb0IuWa+XT25NDTtHz1AUnzrlVJN2nLhvW09/QNFrkv+uLv9PqIDyhRmV97CBQRFEKPVCacGUoKv0bbflpBUyfNpo27D1NiVikuwPGAipP4Virq4p80+/0V9NDHRVDT8EYf0b3jAMc9ojiJz88ZmYmYy/swZtr3aBToge2bNmET+9qw/jsceqE9bPlJfc6EeOKbgdyoU+jZdQAOHN+OkcOHY/gDX6+NmoqXOjcqrauonJXiiW8GHAOewfVUla7bVcCXFqv7GjGcmeMk4InPcVaIJz7HWSGe+BxnhXjic5wV4onPcVZIYuILyEhli0cIWmQbShzHmQFt8v31KpNzTbquvhxu+ZtoyBW4v3w/x3HlTeF9fyUgb0dpu1zxpj7HWSGe+BxnhXjic5wV4onPcVaIJz7HWSGe+BxnhXjic5wV4onPcVaIJz7HWSGe+BxnhXjic5wV4onPcVaIJz7HWSGe+BxnhSQmvg3qtOyAbt26oXu3zvAqg8NFYvAfaNu8KTq8OBbJ5bo3vOnd3LMIzZs0xouTliOnsD3BOYt0deNsNG3cGP1nb4SyjD62bj51xbzsps/PejXcWbQIJEnZ76Sz88MhbHcQb9oQks2iFcPYlrXZc2tMF+LLZpslrmz0qezO3tvWFFpGG7xWqJ10Og99E92aNkTnwaPQq7Yji1YMMz9/G838amPgrGlo4G3LolxFsGDVLPE9rYnhH78Lf1cz3c5dhx0AisD3zuMelhT8Nw3s8zyNnLmMMs18Q9OKju+dx5WZ7UsXY8dvB/Hz4sU4FpHHopyl4InPFUv3V15GAz9fNHu+N1r62rMoZyl44nPFUq/nGNyIjkHQgdXws+dbeloanvgcZ4V44nOcFeKJz3FWyIwTn6BRq6HRVsShbQS1WgWtoLsCU9GJz1VlLc9VxzKer9kmftTp9XBwcIBXrU6I0VSsD83ZFWPE5+aI6t3fRkYFH7J7YsFAODg6ovZLHyPbCoYnH/u4r/751um3ADlm/LE128Q/vf+AeNQUkBkZgj9vVqzd+r774QgE8bnFHN2PWwnS9jqzVF+uOqZ/rhH7dyIyTc2iFdeCFcf1z/fuvm2ITtOwqPkx28R/aco8jO7eEcM+WIDBjVxYtGJYuvU7dK/fGnPWrUQLH2l7nVmqnw+uQ8fqLfDZ1tWo51nxhydvPvwz2ge0wMIda1Dbw3yH7Mp0w/dY+QlyMP+5epj3Vwxg64VLOcloYcbDkDnOmsTungi//qv05cnrzuObUa315SfhZ/U5zgpJTHwNEuIyDUWtGsl8DjnHmY3cyDBWAqLSc1jpySQmvg08PNnUWLkN3Hg7gePMhkOlB/bHd5Y2b0JyCtvZs069TAY+g5zjzIfM0ZmVAEcbBSs9Ga+7OTOgxektC/FS3wH45sAtFuNKk8TEV8DR1YGVOc60KDsWE4e+h9/2/or3h3zAolxxeLs5sdKTSU58t8quhqKgRVpZDMEiDWLvhiE6MYMFKhBBifCwUCRn8gUsdGSO3hg3/jl4OVVGx3FDWNRCCbm4HRqKtJyyG6ykzL1/Qs/eXlpH3PimvlZAZl7pJ37I78vhV7Mu6gZ2Rki2lkUrhn1zhqBW3Xqo13ECElTWMob9CeSOGPftH0jOTsDBRS+zoGXaPK4n6tSrh/rdZiGtTIaaE1JiI1lZfCklZrTku7l5VWHlsvHflSD9bV5qNIKilfpyRfH3iRD9beqNS4hJN99hnZzx9hw2nKNIDDqN1HKosKpUuX+i70kkJr4Mdvb5fXwNostgfPlL0xfhkzEjMHf1BrxaX1q/xVJ8tXcHxvQaiHUHN6NFZX6NpCLZfOYghnbqj+0ntqCWe9kMb02Nv98dVkhcDEnikF3gxHfj0XnCarHkgG8uJWFyC2lHFo7jShNh9+uN0H/dTf13v4Um48U6Xvryk0ju4zs7spN70CI4Mo2VOY4rX4Tb/9wfuVfVycQDeJzcPViJkJlbsaeScpxl8oGzqQfwOPvkDwvU4Hp8OitzHFeuSMC1sPzeuhcc7Uyc+E5efqwE3L0RxUocx5UrIpxjRcDf9Inv6Hr/cp7mEk98jjMHJKgRnn9+3qs27O2kpbTkxLd38oA3Kwthd1iJ47jyRJSLPLDEb1kPDtIqfOmJr3B0RVu2SpSQe8NQ4DiuXAlCmq61r1enZW1IXchNcuLDzhltmrjpixptKPhaHBxX/oSsO7odr/Xlrk1rQ+pmZtITX+aARl0C9UWNNgKZ+ScSOY4rN+qIG/dq/Bb1KhsKEkhPfChQt3EzfYk0WoTxySUcV84IsSGX8nv4aBiQP8iuaEYkPuAfyFbv1GoQFFGxJs5wnOUh3LpwiZUroZ6b9DUzjEp8t+pNWEmL385FszLHWQMBNy+dw5WQ/5CWbSaVHqnxz1aW+DZPw91R+oQvoxLfya06DOP3BBw8cKkUT/AJyEpLwq3gq7gcFILYxFRUmK3XSIvUxFhcC7qEayGhSEzLutdU48yZHNVqVMbqmQMQ0LAjjoeV/3wVUiuxk9W/tp17wtFO6qk9IxNf4eyBgQGGC4U5vx6CphQyX6vKwM/zxqDbkPnIUriiiqcMmz8Zhw6D5yI5z7Lnrquz4/He0B544/MdsPPygSuSMHfw8xg9byOy1Pw6iblz8qqJT7/4FOqo8xg17P1yP2CrlcnIv7De+9VOki/l6emm5UqnpQPzu+qer/hVn7KUWhY3ESGPFgxuT51HrSCBhQwEurRhOjn69iNT/8kyo82kPv6uNGnDRRbIp6ZvXu9ObQYtJPXDT5ozSxk0paMvwb42/ZuuYbHykRF5gOUiaPONNBaVxsjEJ4o9tuTeH7uSoWRR0wjZ8ZH4exvQ8ahcFrlPyE2mRpBR4Oy/HzkoWAKBjnzQRXxuXSkp9/EjlyryOPnClmZsvc4inDk7vmKi/vPf/YuTLFI+7ux+914uRmSpWFQaoxM/Jyno3h9bcS6JRU1BRUOfrUt2bUdSJos8TE3rh9UhmaImZaosq9oXNBnkaqcgpyHrxGdRkHR6o11lqtbpTQs8qFmfzNtHyUH8/Ps2HlqO75eGtk5sznKxP+VojHskRvXxdRxca6AlKy/fH6Q/ApgCpV7E+RNhqFe3Hgpe20eBRk83A2nvYn9kLotZBnXEfuSotOjyTGMUvBiTE3zrBCDy7CmcT+d9fXPnUqM1pnb1R+ytIziSUE7nndSZ2Ljmir5YeeLrsJe65hZjdOLL7Fzw7uhG+vLNFTuRa6L1BBOvnkaoluDu6FrIsEMZXD11SwoRNhy+v+KI+SOEHdkD3ctU1aOw5crkcHZyAZSR+PtyPItxZkvuggGjhorJF4+PvjvJgmVLmRmPA2pdtWuDj8Z1NjqRjU58Xc373LhxhmLiLqTkmGY1nsgbN/SXBz1d3A2BAnhVraa//fv0zVK8lGhqAkJOG661BlQqbGSVHJXdPcXbLPwbzMdHWILAbgPEdpqA4J++Nlmr1xjJN49C19aQ23liSKD0EXv5ipH4gFvzl3Vb6IliceSOaVbjSQyT/oHPC4rS16CWQUDExQhWLlpWWCIrcebM2b8p3u3hj5TI4/gzruw2zzAQcPGPX/Ulu1qj4WFkM1+nWIlvY18VU+sYmq1fbz9rktpXlWVEvz0lu1yOssWVmyZt62IdbSYfCm0RZE4YMOF1QJOGWcuOsWAZUaXipxVHxIINXv5oTLGSuFiJD5kt3l06Tv/DF1ZuRDqfsFPh5SbcwJJlq3EjVtqWZtlRlzDvi+8RnSGlK0iICzmBT77eiFSVZXTiBGUqfvv1HziI1d5/az4u0xZoRtwN7ElWQ+7ohvkD6rCocYqX+CLfF6bCyV4BpO7GpeiSN/ft3VxYSYJKzpLnHZc/GZwL7ds/TuEubXnksqXF+L69MXP6eHQZ9DEyishN0mSjR4unMX/WWHR4bTWURdQL6rTbeK59d8ydNhLdJu9mUfMlKFOwZPpY2A5dgvnP10BOxkUcjC2rlacJwYe26/v3HrVfQ10jhuk+qNiJD0V1zGjlIxbysGZfyS/rValjWMxTrS388ohGZWgGO7eoDokrDJkBOaq3NJyUVKqf8Nw0hv9zr1O2W5VJI0ONKpX0B9tK1avAtqjPmkyB+lUNC7X51fYp8kMmt3VEDW93saBAtTrS55SXByEvBYsnvIYrNUfh7d7NMWT2dPG4mIOZn/9ZNt1PbQa2rtokFuwx4vOphlhxsOv5xZJxfjnZy2WE6qMoqYRjaeOPLyMxman1iC9Y5FECXf1xhO61pRfWXGYxSyBQyI9D9Y/7lbWXWOxRWpo/qr14Hyf69EgMi5kZbQ5dDbomfZi2JosuXLxOKq20gSWq7GS6eOWWWQ9gEtSZ9M1bvanDiIWUP2ZVlX6HvMT3VmHbxuhBNMWRcfuYfvCQfaUmlFiCP1f8Gl/k2vp1BPqITfSILTh5K4lFi6dKkw6oay/H7cQIfTPmcYSo/3QbEsrwWtfahpBFkKF21376Pc3+DY0upFZQITUhDrCrjp7NzbHGF8kd0aRZYzhLXMUVCme0ahkIW7m0pqitkxdaNq2nb1WYI133Ze17I/H5JW/s+uHdexNibF398HGfmtBqLmN/1MMncfMSrmLJnMkY+eY0HNRdiVJm4PTB3Vj88Uz0f3UcZn76A3KMOqVBOLdvo9jGliHwuXdQqSQvFjsAFNvZpYN1Rw/q/M5msd4qCSW93r0Boc7LFF/QLxJyaV4zF5LZ1KF0ixuym05VHRSEZxZRXkFHaXU0/S/Agap3HkvlO+2DK4igyaY1M/qRU5Vn6Gzc4/NIks+v1rfovEf+8sD7p6UF735HKWqBDs0fTJ7tBtDyZcspPJPdQ5NGY6rY0dQD0YbvJRCUsfRKDUeSOfjT3zElmydT4sQnIZIaVnIUn3gLupqYx4LFE/b7F2Sv8KGtQY/PAVClh5Mr5NRxwSkLHM8u0L9f9CWZrD6Fpz3+hqUE7SAHmTPN3XeLRTizIajolzmvkMIhgDacKThJNTnx5KSrjhFIKbkssZU36dut/+iLK1/rTnYe7eh8wgPvvTqFhnnJqOv311igaGGHVukPMA06zWGR4it54ov2v/ciia0Omrz6FIsUl5oWjuhCzfvMoRz1/VpdENT05yLxqOn/ciGTXCyBknpVr0T9Pz9A6gf6vbra5P1+banD4C9L2GLiTE9Luz8dTpDb0nubz7FYQTT0ywixtSrmwPcXE1gsXwYNaONDg97fzb43yIm9TJC50ebQx1sQBRJy6P3+geJjqUw/Bhk3BbcgJkl8Ut+mxlXEWt+vP0XllrQ+VtPvX0+iWq1epaMXQuj2zUv0kXjEbD/qSwtO+nxKWvxGF3pm+Fy6dDOMblw4QoPaNqaxX+3lSW+Oko5TdZmM+kjoxqri/yY7GznJ2nxA2Q8e2BNOUm040Q/n4lnE4NbvC8jBpynlsO+Lknp9L9mLB5b6HWeYpMVrmsQXHV7wqnjEk9GHO66wSMlo1CrKyc6izMwsylOqLbB5XxiB1ColZWdmUlZWDqnUvFdvvgTxM5hDGolXJpS5uZQrfgkP3P3Wrg8Jjl3oVvYDhw4hi+Y+6091R2/Wf5t3+wCFPfG8lZa+eKOTmF9+tC0kg8VKxmSJL6jjqVN9b7KvNYAiCzyDxXHWZ+krnah6/w8eOmmbefcfskUl2nZbrO8FFS19cfQTV1/KCPmNPG1k9PTgZSZrGZboct6DZDZV8MOXM0B3dmPx+tMsynHWLAt/3rqJXh27PzTgzMnLH52qe8DXnXDop0/RavVy2BR6aU6NxfM/RqpnG6xaMb4EI+4eJtNlPyuXHCnxUb8OWHTGDZdu/oVG7gUvO8Fx1kFAWPAteNeqCw/Hh3MhNz0OwdfD4VOvMQIqFz6kO/LYdwjsNgWjvzuKb8Z0YNGSM23ii/Liz+OZll1Q5dVVOLB0JItyHGc0IRnDn26J815DcO63hXAtvFlgNJM19fM5+LTB2qXv4fDqOdh0KYFFOY4z1l9fzcaOiKr4YfUHJk16HZPX+HqUh5VT+mPhOR9cPrEO3kXO6uA47kFZd/5Gi9ZD8eb3f2L2gBYsajqlk/gibVYERnfrgdwen2H756+wKMdxRRIyMaZrG8R3mosdnwxDMWfePpHJm/r5FC7VseLXbWjikIA8FuM4rmiUehteXabhpw+HlErS65Rajc9xnPkqtRqf4zjzxROf46wQT3yOs0I88TnOCvHE5zgrxBOf46wQT3yOs0I88TnOCvHE5zgrxBOf46wQT3yOs0I88TnOCvHE5zirA/wfyr0RQS/YsCcAAAAASUVORK5CYII=;" parent="IuaTcRtPijXqOsnX0eB4-1" vertex="1">
          <mxGeometry x="1849.35" y="409" width="145.14" height="100" as="geometry" />
        </mxCell>
        <mxCell id="vuEfzPaLM79mjF0In50A-41" value="w.r.t an orthognal basis" style="text;html=1;strokeColor=none;fillColor=none;align=center;verticalAlign=middle;whiteSpace=wrap;rounded=0;" parent="IuaTcRtPijXqOsnX0eB4-1" vertex="1">
          <mxGeometry x="1856.92" y="509" width="130" height="30" as="geometry" />
        </mxCell>
        <mxCell id="vuEfzPaLM79mjF0In50A-42" value="" style="shape=image;verticalLabelPosition=bottom;labelBackgroundColor=default;verticalAlign=top;aspect=fixed;imageAspect=0;image=data:image/png,iVBORw0KGgoAAAANSUhEUgAAAHYAAAAiCAYAAACKuC3wAAAAAXNSR0IArs4c6QAAAARnQU1BAACxjwv8YQUAAAAJcEhZcwAAEnQAABJ0Ad5mH3gAAAXnSURBVGhD7ZtZSFVbGMc/h7Qyh8zZVMzSrPAhFUNFX4QIJVEftIcgEEKtSCIRHypIpAExzBKUsEgKJJFIMUTMoRdJikxDymhQm7Qc0hRJs/v/XPs6XLv3HPc6KfvuH2zO+dYezlrrW9+0tpr5+PjMkI7mMBefOhpDV6xG0RWrUXTFahRdsRpFV6xG0RWrUQxS7LFjxyggIEBIRJmZmRQdHS2kP4uzszMdP36cPxU5Ozt7Qf9WCszJoUOHhEQUERFBJ06cENLySUhI4ENh//79dPjwYSEtjUGKdXNzI19fXyERubi4kK2trZB+T2hoKJ05c4Zu3LhBZWVllJWVRZs3b6a4uDjKyMgQVxnH2rVrydPTk9zd3f+WoVx8rjSYEz8/PyERbdy4kZycnIS0fOzs7Gjr1q1Cmn2uo6OjkJbGIMWamZmRpaWlkP4bCwsLOnLkCFvW0NAQFRUVUWlpKXcmLy+PkpOTuX25mJubc59WIxi7KTD2uSaJsQcPHqTw8HCqqKigy5cv0+PHj6m1tZXOnz9Pg4ODrJienh5xtY4pkK7YLVu2sFLfvXtHtbW1onWWkZERevv2LSv35cuXolXHFEhX7I4dOzgmjI2N0fT0tGidY3Jykr58+UIDAwOiRccUSFfspk2baM2aNRzsg4ODRescsNTq6mohzWJvb09BQUHk5eUlWmaBPD9p0BIY165du2jdunWihfg7DAPzoRbz/Px88VUOcMETExPcOZQhSJqQRO3Zs4cTgAcPHtCTJ0/E1cTKR0KF9P3ixYt04MABboc7P3fuHJ0+fZp2797NbVoAc4ASCMfJkyd5jKgyAOTc3FxKT09nWQ3SLfbhw4f07Nkz+vnzJw8CFhwVFcWdhgLnr0aUB4mJidTY2EhVVVU0MzNDPj4+fO7r1680Pj5OVlZW5OHhwW1qgZVcuXKFysvLjTpwjyzPsW/fPnJ1daWcnBx6//49z49SuiH3QPiSUSJZYsJlgo7B8lDDhv9ldTt37iQHBwdWMiYnJSWFSkpK+FpcA8W1tLRQUlISf//06ROfe/HiBdXV1VFsbKy0DPrNmzd09epV/h1j+P79O7169UpI6ggLC6OnT59y7Q1LxbOhUHDz5k3atm0bff78mWU1mKTcAW1tbVRYWMgu9ujRozwxqD2RNSugDCooKOB2xJvR0dEFbhq1Liz348ePokUdWHRdXV3U3t5u1CFLqeDatWt09+5dDk1Y8Mg5ent7+RzGj6Ovr49lNUhTLNwqdpkiIyNFyxz9/f306NEjntipqSnROlv+QGlQKjYv8P358+fiLJG3t7fmMmglBwkMDOS56OjoEGdmk0XsoMFbqUWaYrHliK1HrLjfgRi6lFv19/cna2trtgylRMJC2b59+wJFqwUTd+rUKbpw4YJRB+5ZnLGrASEJbvjbt28L6nkkkj9+/GAvoRZpikVs2LBhAycDi0F8RacxkKamJtE6B1wSBgTLVoCrQgLW3NwsWtTz4cMHqqyspNu3bxt14B7cKwsbGxu2TBgBLBhgjpD9K55NLdLKHcTO9evX0969exdkvuhwamoqZ7v37t1b0s0gliLOwmoBVnNMTAxn2P/mAYxluTEW98iYbAWMCe4Y++/KyxQkj5iDhoYGltUixWLRObhhJD7IOJF5YsHAjRUXF/PrKyQMizcmFOrr6zn1j4+P54z67Nmz1NnZSffv3xdXaIvXr1/zosUCRh176dIlCgkJoevXr0tbyOayyh0oDZv8eB7qPsTG7u5ubk9LS6M7d+6IK/8JBoqCHQq9desWxzTUj1oG48NGBDZwcKCuxTzIQorFYpUhdsJd4cCbHKw+pPY1NTXsdgwByRNc3/9lHxlVATZzZLt6IC150lld6IrVKAYpFq/aZO3+yACvBIeHh4W0usCGiimYXwoagkH/lIVSBQ9WYiU2rbFBjxjxp0H5hL+bwrabEpcW92+lQJmHkk8xAryGQ+ar1KrLRfnDPSX3WPw7S6H/t51G0WOsRtEVq1F0xWoSol8XKew39AY+igAAAABJRU5ErkJggg==;" parent="IuaTcRtPijXqOsnX0eB4-1" vertex="1">
          <mxGeometry x="2121.9300000000003" y="349.62" width="90" height="25.93" as="geometry" />
        </mxCell>
        <mxCell id="vuEfzPaLM79mjF0In50A-47" value="triangularizable" style="ellipse;whiteSpace=wrap;html=1;fillColor=#dae8fc;strokeColor=#6c8ebf;" parent="IuaTcRtPijXqOsnX0eB4-1" vertex="1">
          <mxGeometry x="80" y="30" width="120" height="80" as="geometry" />
        </mxCell>
        <mxCell id="vuEfzPaLM79mjF0In50A-52" value="" style="endArrow=none;html=1;rounded=0;startArrow=none;fillColor=#1ba1e2;strokeColor=#006EAF;strokeWidth=4;" parent="IuaTcRtPijXqOsnX0eB4-1" source="aK0aah2MI1z-rDvGibRR-83" edge="1">
          <mxGeometry width="50" height="50" relative="1" as="geometry">
            <mxPoint x="60" y="225" as="sourcePoint" />
            <mxPoint x="2320" y="225" as="targetPoint" />
          </mxGeometry>
        </mxCell>
        <mxCell id="aK0aah2MI1z-rDvGibRR-83" value="inner product space" style="ellipse;whiteSpace=wrap;html=1;strokeColor=#006EAF;fillColor=#1ba1e2;shadow=0;fontColor=#ffffff;" parent="IuaTcRtPijXqOsnX0eB4-1" vertex="1">
          <mxGeometry x="1086" y="180" width="120" height="80" as="geometry" />
        </mxCell>
        <mxCell id="vuEfzPaLM79mjF0In50A-54" value="" style="endArrow=none;html=1;rounded=0;fillColor=#1ba1e2;strokeColor=#006EAF;strokeWidth=4;" parent="IuaTcRtPijXqOsnX0eB4-1" target="aK0aah2MI1z-rDvGibRR-83" edge="1">
          <mxGeometry width="50" height="50" relative="1" as="geometry">
            <mxPoint x="10" y="225" as="sourcePoint" />
            <mxPoint x="2280" y="225" as="targetPoint" />
          </mxGeometry>
        </mxCell>
      </root>
    </mxGraphModel>
  </diagram>
</mxfile>
